<mxfile host="app.diagrams.net" modified="2023-09-15T21:40:41.231Z" agent="Mozilla/5.0 (Windows NT 10.0; Win64; x64) AppleWebKit/537.36 (KHTML, like Gecko) Chrome/116.0.0.0 Safari/537.36" etag="4QrN_GGRYMNErOPgPE9F" version="21.7.5" type="device">
  <diagram name="PÃ¡gina-1" id="DCmMkBzG66warktYRE4F">
    <mxGraphModel dx="1130" dy="631" grid="1" gridSize="10" guides="1" tooltips="1" connect="1" arrows="1" fold="1" page="1" pageScale="1" pageWidth="827" pageHeight="1169" math="0" shadow="0">
      <root>
        <mxCell id="0" />
        <mxCell id="1" parent="0" />
        <mxCell id="6wW6lBvhg6wL6kc6Jvn_-16" value="INGENIERIA DEL DOMINO&lt;br&gt;" style="swimlane;horizontal=0;whiteSpace=wrap;html=1;" parent="1" vertex="1">
          <mxGeometry x="40" width="1000" height="440" as="geometry" />
        </mxCell>
        <mxCell id="6wW6lBvhg6wL6kc6Jvn_-21" value="&lt;b&gt;FAGMENTO Rating_AlterProductTest&lt;/b&gt;" style="text;strokeColor=none;fillColor=#E3E3E3;align=left;verticalAlign=middle;spacingLeft=4;spacingRight=4;overflow=hidden;points=[[0,0.5],[1,0.5]];portConstraint=eastwest;rotatable=0;whiteSpace=wrap;html=1;" parent="6wW6lBvhg6wL6kc6Jvn_-16" vertex="1">
          <mxGeometry x="51" y="230" width="389" height="30" as="geometry" />
        </mxCell>
        <mxCell id="6wW6lBvhg6wL6kc6Jvn_-22" value="&lt;b&gt;ARCHIVO DE PRUBA DEL DOMINIO ProductTest&lt;/b&gt;" style="text;strokeColor=none;fillColor=#ece9e9;align=left;verticalAlign=middle;spacingLeft=4;spacingRight=4;overflow=hidden;points=[[0,0.5],[1,0.5]];portConstraint=eastwest;rotatable=0;whiteSpace=wrap;html=1;" parent="6wW6lBvhg6wL6kc6Jvn_-16" vertex="1">
          <mxGeometry x="479.34000000000003" y="220.82999999999998" width="500" height="30" as="geometry" />
        </mxCell>
        <mxCell id="6wW6lBvhg6wL6kc6Jvn_-24" value="&lt;b&gt;COMPONENTES DE PRUEBA&lt;/b&gt;" style="text;strokeColor=none;fillColor=#ece9e9;align=left;verticalAlign=middle;spacingLeft=4;spacingRight=4;overflow=hidden;points=[[0,0.5],[1,0.5]];portConstraint=eastwest;rotatable=0;whiteSpace=wrap;html=1;" parent="6wW6lBvhg6wL6kc6Jvn_-16" vertex="1">
          <mxGeometry x="51" y="20" width="225.81" height="30" as="geometry" />
        </mxCell>
        <mxCell id="6wW6lBvhg6wL6kc6Jvn_-26" value="&lt;b&gt;REQUERIMENTOS EL DOMINIO&lt;/b&gt;" style="text;strokeColor=none;fillColor=#ece9e9;align=left;verticalAlign=middle;spacingLeft=4;spacingRight=4;overflow=hidden;points=[[0,0.5],[1,0.5]];portConstraint=eastwest;rotatable=0;whiteSpace=wrap;html=1;" parent="6wW6lBvhg6wL6kc6Jvn_-16" vertex="1">
          <mxGeometry x="479.34" y="19.999999999999996" width="300" height="27.45" as="geometry" />
        </mxCell>
        <mxCell id="qvFa3PDqAJ5_tdk628x6-4" value="" style="shape=image;verticalLabelPosition=bottom;labelBackgroundColor=default;verticalAlign=top;aspect=fixed;imageAspect=0;image=data:image/png,iVBORw0KGgoAAAANSUhEUgAAAkAAAADTCAYAAABp96zyAAAgAElEQVR4Ae2dv27sthKH9Tx5BDX3JXLq2xh6gtOkCHya9HJhIEBw2jQuThFk28BAKgNBOjcqghQnKfwCt5uLoUhpSFF/9o+82t3PgCGtSA6HH+Xlb4ezViH8QAACEIAABCAAgRsjUNzYeBkuBCAAAQhAAAIQEAQQNwEEIAABCEAAAjdHAAF0c1POgCEAAQhAAAIQQABxD0AAAhCAAAQgcHMEEEA3N+UMGAIQgAAEIAABBBD3AAQgAAEIQAACN0cAAXRzU86AIQABCEAAAhBAAHEPQAACEIAABCBwcwQQQDc35QwYAhCAAAQgAAEEEPcABCAAAQhAAAI3R2BUABVFIfzCgHuAe4B7gHuAe4B74FLugX1U3KQA2scQdSEAAQhAAAIQgMC5CKhI2+dntPa+hvbplLoQgAAEIAABCEDglAT21S0IoFPSxxYEIAABCEAAAmchgAA6C3Y6hQAEIAABCEDgnAQQQOekT98QgAAEIAABCJyFAALoLNjpFAIQgAAEIACBcxJAAJ2TPn1DAAIQgAAEIHAWAgigs2CnUwhAAAIQgAAEzkkAAXRO+vQNAQhAAAIQgMBZCCCAzoKdTiEAAQhAAAIQOCcBBNA56dM3BCAAAQhAAAJnIYAAOgt2OoUABCAAAQhA4JwEEEDnpE/fEIAABCAAAQichQAC6CzY6RQCEIAABCAAgXMSuAwB1HyRx+KD3Bcf5Gk3juut/ujqaL376mWk4os8FR/ksf46Ur7e5WX+rdf/nOW6LERviP63lKpu5podWL6TSvsq6wPb79esqUszrniMqw1xPxf72k0tZVFIuTnHehc5gwAEIHDpBC5DADnKrXCZEkBhMl6rKQEUap3vuF3/VJRU0mvMRuqqlPXW4Z1UJxZAdWn97+dYBVAQFLuqkMoPsi5PO76x/ntP5s+sr/O1qQEBCEAAAocQeDcB1EVw6i/yVLbRnPvyQV5dgOGrPIdr1Ys4geAjPvfFg7y6kfnITWmiPOWDPGcCFGMCYz4C81WeK2Pf+fAx20ce9rL2U/4FThrFeqy+yJvtqDHsAh8b6Zort7ay56kAEtHFOIgFFQ56w6iQ2NWVi1IUkeBoBVOIIJVlbcSUiDQqeEL0Re32AihEaHJ99a42sqtMJKespQoCxkdNQt/hGOz1NkSsALLXY/8KKata4tsrGV9Vio7R/ezRf9Rn5gUCKAOFSxCAAAROTEDXiX1+RmvPG2oFjBM0flVpBUkvMAbCYPcgqQCK2rvyvn0YyMBOKPDHfLkXYaURHc7+9LZbb3p5+3z/vaX2rLXXb9WlW3df5VXFWufvXHlqP/c6FUCNDCIku0qKopSy2kmj89j4o8iwrhM8QUSo2Klk1ykKL2aCgFBTRmw573ZVF7XR1yp+qt5AK6iKOIKzJAIzJoDqqooFj/pf9Vt0rTDZdXUaZWH8Vx+X9J8jb68hgCwNziEAAQisQ2Bet8T9Hi2A4i2seJEfCIOMAJpqH1wd2AkF/pgtd3lGqZhSUZFeS4yFl3u0z/YvIm+7L/IYImE+wtMLIC+wwvXyozzVLyZCNFceHJ06+rycLg8oERzaNBElnTWNgGTCLSpa3BZarp22MQJiWgD10aKuz8zJEgGSFUAjEZwi2hK0EaxCykjQtc4s6T/jdnepcZG10gjFrogTCEAAAhA4IYELF0DSbpfZbSDJX7PMsgIkK2Bsq5nzPdqP96/RppCcHYvD0Pvb7kWe6wd5Clt1XQSorTFXHuzkj2kEKFMrJ2S02jsJoC6AlHFNLy0RIFkBJMsEVtdt04iKFSJAHRFOIAABCFwUgXcXQFNbWJEwaF58XlCcA6RbPm3ekEZMHuQxE6GJ7GSmI1/uIyhVGlX5uPAbY8vbZ/v30a42p+mrvNU6NvNttYzA0jrdFuFceYbD8NIRAuhEW2AhUbnZDb8JpcIllKvvjc8psoEnu2XXRlOSbS0XxOqToC0DjVaVdZ8Cbsv0XG3bLTjdAkujXkv6T+2mr9kCS4nwGgIQgMDpCby7AHpKkqDjJOaXOEHaLfA+Ydpv/TxVrTBwX3UvP8pzFzEJOUZx/ftIIKV10u2tYRLzIBF5cg6m2qd9Bz97H1xOjxunii6T8KwRLidwQht/tEngc+WTfreF8dfg49wa0QhJtzUWEplTIZEkCS9JgrZfhbdJ0rq9pBGW6Ovgsf1CE6BtTpBLSfLJ2c6uzTlqt+/UXv+bfmMsTbL2uU6enUaXqigJO7E/1/+COdAqCKCFoKgGAQhA4AgC7y+Axj9gHzEMmkLgigj4fCQb7bqi0TEUCEAAApsg8G4CyH69u9u22QQCnIAABCAAAQhA4NYIvJsAujWwjBcCEIAABCAAge0SQABtd27wDAIQgAAEIACBlQgggFYCi1kIQAACEIAABLZLAAG03bnBMwhAAAIQgAAEViKAAFoJLGYhAAEIQAACENguAQTQducGzyAAAQhAAAIQWIkAAmglsJiFAAQgAAEIQGC7BBBA250bPIMABCAAAQhAYCUCCKCVwGIWAhCAAAQgAIHtEkAAbXdu8AwCEIAABCAAgZUIIIBWAotZCEAAAhCAAAS2SwABtN25wTMIQAACEIAABFYigABaCSxmIQABCEAAAhDYLgEE0OzcvMhT8UEe66+zNQ+p8FZ/lPvq5ZCms23qshCd4P63lKpuZtsdVmEnlfZV1oc1v/hWtz7+i59ABgABCNwYAQTQmSf8tfqwmgAS0UW5kl03xkbqqpTVNJD2d2IBVJfW/24gGz259fFvdFpwCwIQgECGwHUKoOaLPBYf5L74IE/1F3kq2/P78kFeuwBIG9nROhqBea0+uvpa59nXcdEZbyeK0hj7rg9VGLuHtn3odyei7YMfWu+x+iJv3SSY/kMf3peuSvPS+65lkf9drYmTVACJNHUplVdEu6qNDpV1I7u6ktJFcKzgaAVTiCCVZW3ElIg0uuCHCJPa7QWA9qPtcn31Djeyq9p6ro+ylqr0Aq2pW3+iCFZvr7eRP2ujX6XUYVx+bFb8Xcf4G2nHWsmuu7fzTLgKAQhAAAI9gesUQG58QWD0oqcVNB87gaPVXATGCZAHeZVWtERiJ9QZbFN9lWcVVua6s1VakdODFmnrp1tpoxEgL7Kedv3WW85/28PwPBVAulgmEaBdJUVRSlntpNEFtPFHkWFdJ3hqaddZFTt20fVixkSArNhyvu0qUbEVflT8VHbVVvtF7N8xESAVBmVVt+Nyner4rcBT4Xrp40cAhfuJIwQgAIF9CFy9AHrq938kJ0JaAdSKnzFwoyLFRX18206w9Fbedl/kMUSffJRnqQCKok++rYtWaVQrGlPf3/BMBUWI0OgxERzaIBElnQ2NwITwTXdRq3uBkmunbRYLoD5aZMwPTgeCZVBj/MJA7Km+MxEw1zI3Di24gvGPk6EEAhCAAAQQQAtycEYFkInqOMFioz+dIAoRnP0iQK0AmhZm87dvGgHKtDizAOjjQRnfXBQqidjkq2WvXoIAWnP8WShchAAEIAABR+DqBdB9YbbAXMQmswVmtrFy98W4AIpzf6Lojo8OtflEX+WtfnD5QFGdbsvNb5s1L/Jcfmy/cRbyjKqXLm/obdfa2C8CNCMgxgTQibbAwpZXs2tzesJr5aw5OPZ143OKbODJipjG5fNUfgsuN1PxtaVbYNYHa8H27a4fsAUYbK82freFV0hhodlBcA4BCEAAAlkCVy+A0iTokODsaCSJy6k4EQl5RD6JuojFU0s01BlGa7rE6kJFjUnGjgSXTXT+GCdKD5Kgk/LslPYX2+TYsAUW59a03xALZf0xXkcPSIJ2ycb+q/Be0OhNVmjuTa35Nlb0xPYLzU+yOUEuJcknZwcbcyGTfvhtDpNLzPbji3KW0u3Bts6ljb9N5F4uCg0eTiEAAQjcNIHrF0CL82Vu+j64ysEPIjhXN8pmkDR+dUNkQBCAAARWInCdAihsH3XJw8PozEo8MbsRAlH0yyRmb8Q93IAABCAAgTMTuE4BdGaodA8BCEAAAhCAwLYJIIC2PT94BwEIQAACEIDACgQQQCtAxSQEIAABCEAAAtsmgADa9vzgHQQgAAEIQAACKxBAAK0AFZMQgAAEIAABCGybAAJo2/ODdxCAAAQgAAEIrEAAAbQCVExCAAIQgAAEILBtAgigbc8P3kEAAhCAAAQgsAIBBNAKUDEJAQhAAAIQgMC2CSCAtj0/eAcBCEAAAhCAwAoEEEArQMUkBCAAAQhAAALbJoAA2vb84B0EIAABCEAAAisQQACtABWTEIAABCAAAQhsmwACaNvzg3cQgAAEIAABCKxAAAG0AlRMQgACEIAABCCwbQIIoG3PD95BAAIQgAAEILACAQTQClAxCQEIQAACEIDAtgkggLY9P3gHAQhAAAIQgMAKBBBAK0DFJAQgAAEIQAAC2yaAANr2/OAdBCAAAQhAAAIrEEAArQAVkxCAAAQgAAEIbJsAAmjb84N3EIAABCAAAQisQAABtAJUTEIAAhCAAAQgsG0CVy+A/v3zJ/l0dyd3d3fy6ac/5d9tzwfeQQACEIAABCDwDgSuWwD9+6t8uvskvzrV86/8+ulOfvrTU91VooOPfstKds3+1HdVaeyUUu32t0ELCEAAAhCAAATej8BVC6B/f/0kn1r10xLVaJB53dSxWGlUFJX1fvSbWsqykgN00379UBsCEIAABCAAgZMRuGoB9OdPIfrzp/z0yW+DzQig0oZvmp1UZR8lKqs6Ejq7qi/rIkmRgGqkNtGhsqzFBodC+7JuZFdXUmpESqNQYXpn+g/VOEIAAhCAAAQgsB+BmxBAf/50Jz+p8MlEgDrh4rbDSqlNKKeuksiOCpIqiRC5CFByzc9BXcb2xAmaWESJ24orRYVXo303/igii/rfb76pDQEIQAACEICAiEtd2QdEMVZ5XyU1ZueU10ME6NdPn+RXzf3JCCAb8GkFihctKmzSHCH32kRo1NkxAaTXI+PtyDRfyIosFUAaARr8LO1/0JALEIAABCAAAQjMEdhXt1ykABKXDN1ugd19+rVjkuYAaUF/Tbe/8pGdzkDbQHRra/BzrACShf0POuYCBCAAAQhAAAJzBK5aAA2SoBMavdjxBbpFVRTdt7g0WlPWXUZO0jq00STojADSLayFW2DZCJCILOo/7xVXIQABCEAAAhCYIHDVAqiN/Pwkf3Zfgw9J0U5dmK+u98nMsRhpnAhRSO639Lk6HmhtEqS7OtG211QSdCu2una+j6i5TPc/Ma8UQQACEIAABCAwQUDX331+Rmvva2ifTo+p+++v8T9CPMYWbSEAAQhAAAIQuA4C++qWixNA1zFNjAICEIAABCAAgVMSQACdkia2IAABCEAAAhC4CAIIoIuYJpyEAAQgAAEIQOCUBBBAp6SJLQhAAAIQgAAELoIAAugipgknIQABCEAAAhA4JQEE0ClpYgsCEIAABCAAgYsggAC6iGnCSQhAAAIQgAAETkkAAXRKmtiCAAQgAAEIQOAiCCCActPUfJHH4oPcFx/kaeJJGG/1R1dH691XLzlLIvIiT8UHeay/jpSf+/JC/3YPfqwP8npul90/8o7/e7c+1kRvZvc78miSObeHjy5pH3OSeVTtnKm43D/YNv4v43EVXkEAAhCAwPsSQACN8m6FwZQACk1fqykBFGpdwdGJoPcVQHVZyZgG1Wel1ZE6OeIBsrtKivg5JG7CdlX/bLhDZ1DFGeLnUHq0gwAEILAOgesUQDaCU3+Rp7KN5tyXD/LqFsyv8hyuVS/iBIyP+NwXYYH3kZHSRHnKB3mOFtx2UsYE0HyE6Ks8V8a+8+Fjto9o+s34uihVF6GxkavY/mP1xY+/tTbrX/PSs9MolmMR+EQejbxInoWmD5e10Rl9+Kx5nlpZ1dLh9VGTLqqTeVbalABqn9NWSl1XUnaRoSoRTL3bWj+jf0TUj9L41TdZfIYAWoyKihCAAATejcB1CiCHrxUwTtD4VbVd8HuBMRAuUYQj096V9+3DLA3shAJ/zJd7EVZ+kbdQ34uYJVEnEd/ebL25fjp73v/qxdv/6oXeUMDk/fMCMGzdqRhyAm3YPrifHtuFf9eJmkajLEYA1VXVlbm2KoiqOjJzTARIRY0TVb2qkrw9fTDtWKRJy9JIU+Ti7AsE0CwiKkAAAhB4dwJXL4BiMdGKhpCPM1j4MwJoqn2YrYGdUOCP2XIXxUnFlIqM9FpizL60/vqoUOevLevatCKmqzPhnxOLnZjyFbM2O+OZkyTCo9tZQYyMRHiKRIjkBUvb1VQESGsMcnpEAzrlMNLjfEnEmBnNaHTI1Bk7bVwEquzHPVaR6xCAAAQg8K4EEEAmgiLRAr9cLGQFjpnGbHlWAJlGi057QTcQLNFYgrHlYxrYUxNZm8H2zLFpRMVAHwFalq+zlwDy21XBky0IIPWFCFCYEY4QgAAEtkPg6gVQtAXmFvA+whIJk+bF5wWFLZ5WLNyXfd7M2+5BHjMRmshOZm7z5f0WVrcF5ra1Pu73jTE3pjbvJ0S2Whe8/9EWmOYbhfH1jmb96yJK/ttrAz59+7EzFSBVF/IR0S2w0iTaaASnrMdSnFurVsS00ZQ+UqPCwiYup6/ZAhubGa5DAAIQgMDVC6CnJAk6TmI2Sb6aIF2Hr3r7pGn9GnyloickUX+U5134OrsXGKGsO/YCK3wF3n1N3pXbMr354iRlraeJyr0gWnKDBj+GwkZUtJgk60cj5lrLoW0Yb+JfEyeQP3d8knojbmr0pqrs19PNFphr04iKIL0J3W9ZOoEUdsm0ihNNXfl0+yiJOmyB7cw2nN2CS3we3eYiCTohxUsIQAAC10Hg+gXQdIDhOmaRUWQJ2OhRtoK9uOLX4N03yYqCr8Jb3pxDAAIQODOB6xRAfvumj7xkoiNnBk/36xLQiE4fWYq/WTbW80AwnSD6M9YX1yEAAQhA4LwErlMAnZcpvUMAAhCAAAQgsHECCKCNTxDuQQACEIAABCBwegIIoNMzxSIEIAABCEAAAhsngADa+AThHgQgAAEIQAACpyeAADo9UyxCAAIQgAAEILBxAgigjU8Q7kEAAhCAAAQgcHoCCKDTM8UiBCAAAQhAAAIbJ4AA2vgELXdPn1pemGdtLW9JzTyB6H8Juf9GXUpV2/9TnW932NXzz1/6f5CaZic7fZhrudI/cdyJfFOIfFOJ/FW359/6f9kUXrtyrWN+P681BXtO3Ocy9kt9/G7Zv5zas6e2+nfKoDyo6WGNJubnMINJqyn7jci3Zs7d/Jciv21k7u1IfqtEwn1rr5/qfDX7U/xP4PyS9w/3eCP3P9v0sUjDyZ0rP9ZNBNCxBDfVftkDRvdxeephpPvYucy6Kkoq6f+ZeCN1VUrm7/REwzvj/I38J2w3MH2G2xqD9oucWzz8m/F3HrYKoLCo6AIQrqvoOKUAUnu/HTF7Kkps+8/Vaf1LXfvuxAJocvwT85P6ddDrOft6T1TGstY/cr6MtU2cTvJf28M5/qfqf+z9I72+q8Q8KlJkrvwE/iGATgAxZ6KNHpRS6ydo8ywru47sqva/Fevi4j5puwjOcMHVSdLfsqzNYuwelCVV9x+P9cGj/QLqHgxaFN0NZfvq/U2fxVVLVfoFXv8LcvDbHKMbtDc0OAv9B9/tccli6p5Gr89Pq774h9R+kPvyQaJnuTXmWW5aV5/nph8i7H8CL8Oz1fzDZ7PPZBu47y+kAqh9sntgYJle+vyNPgtNSaRvRGO49r3u34CduPECKCdurACKumhEVBCE6NC3GkmKKoioILHluoC6H993KAvHILQSM6MvUwGkwi3YUL/Vrgq531TQ+QhOKphC34PFPRmf2g0CKETIcn1ZZ4MPro+ybe8YLxn/wvmx/e11Pmc/FUDSRgqDMJaEz17z7x0d5SMioWx0/vw9G+bYjl2FjV7/HObdz313fy/hP2E/9BXd30YchvtDmXSRNFPu2s/xD50cexx5/9DnQNr10D0yKLy5ured6fJj3dL2ui7t8zNae19D+3R6qXV1UXEP6Owie40MIir6ybvwDwF1i/dOGl8/3ZKQphU4bbGe24eDejFT9jF4FSHmfhosZHoD2qe1O/tFfNMN/H3HyXBPqS/6B9A6URQETfq0ehFpRZN/UOtOH2yr5174VC8SHk771Id0ZkaTCiCdv5iPioPLn790nAmWkTewpNZBL1VA2AXZioNgUBeisNCHa3rUN/9I8OiCaCIGIYoU6vylC0oQQN7QsZ/AUwGk9rpFTvvwi5hbnN3ft8hf/u97UNcv6MFfFTt2y8ctyMZ/K7bccHZ91ExfD7ip/cB74fi7+n6xzM2PN3XQYdK+sjPz6Tow146d/yV8puYvDDjcZ+F1OOr8dvPuL6b3W/o6tLXHKfvRvZbcP9pO7/dwD+l4O/HoO5jkb5045nzk/SMrgMz6NVd+jEuh7b66BQEUyC04DhZLDU7MiJLOrEZgIvXSlnQ3Re6m8s+uCjam++qjRaF+7nioADo2AqS+OAHkhIv3zIma9rluXYTIRXTC0+zbYytw2ifdP9Vf5DFEfdzT7Pd5LpwKA/NMsSIRjOpWbh70+iXNn4v2VfqBOv8zNsZ87ZNfHSxU2sPIJ2j91G0X6ShCZBaD4OSSBSjUzR11AXHRFX8cCLVElHQ21P90cfeixS1quXbaZg8BFKJFXZ+Zk2PHnzF5uktG7HRGw7UTzP8SPiqAUtHQ+eJPFgsUH8Gy98gS/ln7c/dPpq8lY0nHdpLXI+8f3VoWOknWr7ny0OyYIwLoGHozbS9BAI0uen5shwqgGTSLiucF0LSYaSNIKoo+ehGkW2oaCVr6MxMZUTMjf9zvJYBOMn+XKICk3w5aNJuNT7Q2AkLbLVmApuyrALKCa1B3bAGdW8By7Q4QQCGaNPDLXzh2/GN2T3I9iB1jzIqBRQImtM3Mv7af47NENFifQnd6VLZRhCYjSpbwz9qfu38yfS0Zi/X/ZOcj75GaQhB9xk8+NM6Vn8I/BNApKI7YWLoFNpYTMxBQB2yBBdvNrs3pCa/VZb3B7GvN2tecIntTWh9cRn4xESkY4XDo5SkB1OX5VC/y5jt42z04oRO2uLookdapP8p98UEe6697uHOEABIZbpdtdv5mxjnyBuZAui3AQgp70+xBeEnVbATIR0umPp3r4mI/besWWBp1sYuUW2iKBYuicfpgAZRbIJMtDF2gw/aFdqkc7BaeXRjd2Hy+UXAv3fLQrTe1aZkcO/52C3il+U8FkPc/CM50fGHc4Tg3/2n7HJ8losHOQ+hbj9r/ki2wIJLG7r8p+6Gt6ze5f7SdneslY7H+u/NT/H2PvX80dfStWo34RG8jc+Xq4JH+IYAGM366C048uMRkv40S5eyk2yttnegGkPZbRzpJ+rsoCVrrhn1UL2hce+271nwVK3pi+4Xmt+zimEKjN2/YBor8Px2nnKUgWFS0uKhNLrF5kAT9UR6rkPTcJ0M7QeTa+/ygXIeZa20ie9gCS3J/5LrmL5cEHZK8w/3X3kd9jpkia+ukbDIwD7mkC2CyxRQWv2DOiYJQJyw4vtAtgCYJ2uZDhPZBOLh+EsER6owd1b71L1qMNEIV/DLHaEHSRdL4tygJWm2FKJZf8Drfk38loH5b+9ruc5L/dsz41f5q868RDsOtG2P89tQlKodyJzj8hC2Z/yk+c/OXK1c/wj2q/StvFZ3BPyto1c0p/nP20/m194+KH9en/msGnXPztzT1ocGj6w7HzO+S9w/9UB3eX+yH8eDAXPkx/mkf2vc+P6O19zW0T6eXWtdGTy51DPh9IwT0k1SsvhcMXJPCraBe0IQqV0SA+Z+aTCeAEsE2VX97ZVuf3+P921e3IIAW3qVR9CBEZBa2pRoEzkFgb8Huc4eSoMI5XKfPcxBg/kepR9HBELEbrb3Rgq3P7wn8QwBt9N7DLQhAAAIQgAAE1iOAAFqPLZYhAAEIQAACENgoAQTQRicGtyAAAQhAAAIQWI8AAmg9tliGAAQgAAEIQGCjBBBAG50Y3IIABCAAAQhAYD0CCKD12GIZAhCAAAQgAIGNEkAAbXRicAsCEIAABCAAgfUIIIDWY4tlCEAAAhCAAAQ2SgABtNGJwS0IQAACEIAABNYjgABajy2WIQABCEAAAhDYKAEE0EYnBrcgAAEIQAACEFiPAAJoPbZYhgAEIAABCEBgowQQQBudGNyCAAQgAAEIQGA9Agig9dhiGQIQgAAEIACBjRJAAG10YnALAhCAAAQgAIH1CCCA1mOLZQhAAAIQgAAENkoAAbTRicEtCEAAAhCAAATWI4AAWo8tliEAAQhAAAIQ2CgBBNBGJwa3IAABCEAAAhBYjwACaD22WIYABCAAAQhAYKMEEEAbnRjcggAEIAABCEBgPQIIoPXYYhkCEIAABCAAgY0SQABtdGJu3a2/n7+Xu+d/bh0D44fARRLg7/cip+3mnEYAnWrKdyLfFCLfVCJ/1e35t/WpjL+jnUbk20Lkt1N3uRefP+SH+x/l74wP+sb6w2tS8Pqj/Of+v/Hv44/y+1tS70pfKpPB+B2P7+XnG2GwdGp/f/rvQFjrtf/cw2oJw+zf36Bh5u+3qaUsa2kGdbkAgfMRQACdir0XDk70+MX+u11s/HO5grAwXaxt33S1/+kCPsFo7tPj36+/yM+v/0j7BvyPhNe2jRVGf6soevwlFF/10fLSxTxw+PnxtIv6zyoqVyQ5Z3+u/BjXTsFqTf+OGdsp2oa/t7G/P9uHvR/t9V1VSJW8J9pyziHw3gQQQKci7hd4J3q8APocPu74Mhch0iiR/40EUiPyXdmXfauRpMS3z1Vc/m3pKyyxn9hKX6p4Cn7p0UavQtnnuo0OuXqlSDc+b6zzX4VeGgWb4hM5k/n06Mv/fvtDfnj8rxM2aXSnfWPuDakAunv6o78wcfaz2tQIwPOPchciSY8/xtGT11/avn1k5el/uQ8AAAlJSURBVIfn2HYbRWijC78HO1YwjLbX8eqYfvT2f5Tf1Xd/rRcc/8jPT32k5+7pe7nLCDwrgKIhB3Z+fHdPvyQRtgn7b7/0XHx7jTgFoRX1M/ZidPwiMmd/rlxE5vn3UcLc1qoTQNZHE0HUe8uO1/blhrvAP5nlPwauvR58iCJ90fwn8/f4SydWQ9u7p/j+7u8tnQP/tzV6f4hM/f313o///cpsFKiRuiykKCrZhffO3jBnEDg5AQTQCZF+V3hR4Bf7dBtpKkKj4iYSPCqIqt453VZTURLq/KUiKwggX23Kfm9pwdkuFkDaQm07UWbemGx/ev45fLprfP1kC3COj/ajb9a5BSqUaVQn92k9vMn3C8R+0Q8VQU4UdFtG/0j8if4f+bsraxfcgQBwW3HfO+Hl6r79YdpMtHcLaOvv38+6ULfbd78/9dt9LZc/OtEyFuEaE0A/PyVbirrgPfURsiX2Yx4L7qOoysT4fb05+3PlMsm/7WTs/nIi+PGXfr6cIOgjXtoumm8VqUmO2pR/c/wjVJkXUf9vf8hdEt0b/E04/3uRq+1VZIcPDnpvWf+X+NfayP/9BZe1jrUbrrfHnVRFKbV5D4nLEUAxD16tTQABtDZhY98KBnNZdGNc825sBCacWxHVRVgKEY3+/Ja8kYzajzpb8GJEAKURHxVlLoql/idiTDI25ntuPz1Gn0xNo9+f/adafXNPIjDRAqFt3AIQRJCPspjoRSuU+gVusIB4MdYtem82AvRfuXvMREAyi2Ln/lR7FUDh07wu4j5yFY8p+YRuFrOuDx8J6XwOBSMRCie0Qh2Ztz++wM/z1SiPi96FCEOG37j91sm5chVA44tva2NsgZ6b/3guRHJ9jfo3y38BvzBPRiyHSy6Clol2qsgJOWCT/s/61/Y09ffX1pj++9U6GuFhG6ybOU7OTAAB9I4TMCVQVNws/ml8onXSZsr+YttaMSNe1PbaAmhscVri++ANPhUwM0amF0B9Y//e5SAFM7n+cotiW3+mvS5AswIo9KziTnOh8jlO+QiQips+2mMs5U9H7I8u8Hkr5urM+H3NOftz5eP8e1fG7rHp+W8jk5GwzIitcf/25N+7G5/lxI/W0OvHCCAnfve4P2KvuldjbLsKCCCLgvMNEEAAveMkWBHhtrSKfkvrt2q47WRd07Y2Z0i3wHRLyv5M2Q/1dBtKo0s2shTKuuOIAJrdAgsRqZEtsM5+9uQf982vsehPtom5OBAkGgHaI09lcgvMCZQfu+0RTQjVaEa0IKovmUXRuTjX3pX7BWgkAqQL9A+v/b8FGMtxygsg3bLTrYk4b8ngc9uKc/atSFABdjfyTT1rd9H4fYM5+3Plo/yNQ2OLdLoFpnN8Z3K4bDtXdj/8NtmUf3P8jYv5U71Hom+qxaLK9u0MZLbAovs1uVeP9k+W/P3ObIHtKtEFqSBElL8HuHpyAgigkyMdN+hES9jqymxhqQgKW1+a32MToZ0ASsrTLbA5++rZMQJIc3y6bbiM/1GZz1kapxGX2AUmLlnwyuV+JF+DzyxQU5bcAvJqtoGSLSb1L+QXaa7Q7+512GJoxVYoD0e74Iy3N231U7wfi27lhDZqR6MLP5gkaJvP4cY1YNBv77Xj/seJoODbfx59rpKHMmtfI2q6aIZtxITPFFstC2PR/of82tZz9sfLDcPgXyR+8+VhC7BNatYIn0n2TsfnBIW/x7TM5WrFImjcPx3fNP85fq2PyT0eRfXmk6CVvbsnzb3Sbxke55/Ob29rZDQzSdD6LTFNgA6fo0ascBkCJyOAADoZyusxFBKu7YhsdMleHzvXb4HZb5KN1Wuva8JxEBPTNdcqPXf/a40LuxBYn8Cyv9/pr8E3MwnS64+CHm6PAALo9uY8O+IQGdIIlI08aWUVPzYylTWQ1EttjLXZwnW3/REiB9Gn6i14hw8QuAICM9GfKxghQ7hAAgigC5w0XIYABCAAAQhA4DgCCKDj+NEaAhCAAAQgAIELJIAAusBJw2UIQAACEIAABI4jgAA6jh+tIQABCEAAAhC4QAIIoAucNFyGAAQgAAEIQOA4Agig4/jRGgIQgAAEIACBCySAALrAScNlCEAAAhCAAASOI4AAOo4frSEAAQhAAAIQuEACCKALnDRchgAEIAABCEDgOAIIoOP40RoCEIAABCAAgQskgAC6wEnDZQhAAAIQgAAEjiNw9QLIPWG4rGR3HCdaQwACEIAABCBwRQSuXgDpXE0/hfiKZpOhQAACEIAABCCwiMBNCKCmLqUiBLTohqASBCAAAQhA4BYIIIBuYZYZIwQgAAEIQAACEYGbEECyq6QsCinrJho8LyAAAQhAAAIQuE0CNyGA2AK7zZubUUMAAhCAAATGCCCAxshwHQIQgAAEIACBqyVwEwKIb4Fd7f3LwCAAAQhAAAIHEbh6AcT/ATrovqARBCAAAQhA4KoJXL0AuurZY3AQgAAEIAABCBxEAAF0EDYaQQACEIAABCBwyQQQQJc8e/gOAQhAAAIQgMBBBBBAB2GjEQQgAAEIQAACl0wAAXTJs4fvEIAABCAAAQgcRAABdBA2GkEAAhCAAAQgcMkEEECXPHv4DgEIQAACEIDAQQQQQAdhoxEEIAABCEAAApdMAAF0ybOH7xCAAAQgAAEIHEQAAXQQNhpBAAIQgAAEIHDJBBBAlzx7+A4BCEAAAhCAwEEEEEAHYaMRBCAAAQhAAAKXTAABdMmzh+8QgAAEIAABCBxEAAF0EDYaQQACEIAABCBwyQQQQJc8e/gOAQhAAAIQgMBBBBBAB2GjEQQgAAEIQAACl0wAAXTJs4fvEIAABCAAAQgcRAABdBA2GkEAAhCAAAQgcMkETiqA1Bi/MOAe4B7gHuAe4B7gHriEe2AfAVfsU5m6EIAABCAAAQhA4BoIIICuYRYZAwQgAAEIQAACexFAAO2Fi8oQgAAEIAABCFwDAQTQNcwiY4AABCAAAQhAYC8CNy2A/ve//+0Fi8oQgAAEIAABCFwHAQTQdcwjo4AABCAAAQhAYA8CNy2A9uBEVQhAAAIQgAAErogAAuiKJpOhQAACEIAABCCwjAACaBknakEAAhCAAAQgcEUEEEBXNJkMBQIQgAAEIACBZQQQQMs4UQsCEIAABCAAgSsigAC6oslkKBCAAAQgAAEILCPwf3w+SZJnEhPLAAAAAElFTkSuQmCC;" vertex="1" parent="6wW6lBvhg6wL6kc6Jvn_-16">
          <mxGeometry x="470" y="250.83" width="518.67" height="190" as="geometry" />
        </mxCell>
        <mxCell id="qvFa3PDqAJ5_tdk628x6-12" value="" style="shape=image;verticalLabelPosition=bottom;labelBackgroundColor=default;verticalAlign=top;aspect=fixed;imageAspect=0;image=data:image/png,iVBORw0KGgoAAAANSUhEUgAAAZYAAADaCAYAAACFFWQ1AAAgAElEQVR4Ae2dC7xOVfrHX3SdpmammijGZUqErhPKlHSdmciYmqakphuN4pBzCJUock1CFEqYSqSDTjiH43Cc3JX7rZtKRSIpdaT0+3+ed/6LZXnf97yX/e537b1/5/PZn733u9Z61rN+63nWd699jlcI/KECVIAKUAEq4KACIQdt0RQVoAJUgApQARAsDAIqQAWoABVwVAGCxVE5aYwKUAEqQAUIFsYAFaACVIAKOKrAYWAJhULgQQ0YA4wBxgBjoKwYiEWiI8ASqzLLqAAVoAJUgAoIdGL9HFZaVuVYhlhGBagAFaACwVCgLFYQLMGIA46SClABKuCYAgSLY1LSEBWgAlSACogCBAvjgApQASpABRxVgGBxVE4aowJUgApQAYKFMUAFqAAVoAKOKkCwOConjVEBKkAFqADBwhigAlSAClABRxUgWByVk8aoABWgAlSAYGEMUAEqQAWogKMKECyOyukvY9PmvY9xeet4BEiDXXtK/RXEHE1GFCBYMiK7NzoVsLR+ooBHgDQgWLyRm7Z7SbDYPkMZ9I9gCR5UCZYMJpyPuiZYfDSZTg+FYCFYnI4p2guGAgRLMOY5qVGaYMlfWYoFm37h4SMNhk05/HUndyxJpQobGQoQLIYgvD2kQCSwlGwGePhHA4LlULzzyjkFCBbntPSdJYLFPwCJ9jBAsPguba0YEMFixTTY6QTBQrDYGZn0ynYFCBbbZyiD/hEsBEsGw49de1gBgsXDk5du1wkWgiXdMUb7/lSAYPHnvDoyKoKFYHEkkGgkcAoQLIGb8vgHTLAQLPFHC2tSgUMKECyHtOCVoQDBQrAYIcFbKhCXAgRLXDIFsxLBQrAEM/I56lQVIFhSVdDH7QkWgsXH4c2hpVEBgiWN4nrdNMFCsHg9hul/ZhQgWDKjuyd6JVgIFk8EKp20TgGCxbopscchgoVgsSca6YmXFCBYvDRbLvtKsBAsLoccu/OJAgSLTyYyHcNIF1hGPt4WXa8JHTxyp+Uf/MZkue7dqjYKV2w/+Fm0L1DUP4/Vbv7avRjc8XpMGDU0IZu6fXWtbEXzX9XzyplfQpmOzKFNgoUxEFUBp8GiFmVZ5OVaFt8ZRavQo8WpUHCJBQh9sRbwCIDiaaf6TRUsyo6AUfli+iHj6d2qVnhcqo7NZ4IlavizIAUFCJYUxPN7U6fBEg0asuAr2ESrYy7O5oIebzvTTiL3Zp+qrfivYEOw+D0rOL54FCBY4lEpoHWcBossvmoBVouyeTYBoXY08upJdjZyr3YO6nWUtFHtRg946OArNrVDUfXlXl0P69YybE9smK/exEdlW65VuWobbQwKPLqvMj7pV9lTAJXPZSz972sUhqqUyxhi1Vf9K1vR/DA1jXXPHUtAkzvNwyZY0iywl807CRa1KKrFPtpipwAhi7RaqPUFVy3yZpnUkQVX2Zd7E0Q6WJQd5ZdapPX+VZmqKz7roNP7U+ORcv1VWCR7qi9lS/ksNvT6ci91VX2pp66Vb1Jf9Z3MmWDxcoba6zvBYu/cZNyzTIPFXGR1mOjXkRZkfYFXi7AOFn0x1xdv/TqSXX3xFhtq96AWeL1fqRvLnllX1dd9kzqyq5HxyucKlrofqVwTLBlPM186QLD4clqdGZSTYFGLpnrijrYY6jCRhVR/daTDRL8WW3o7udcX7XjBotdT/pl21ef6WfxUu5po/ar6uj29rpSr/hWs1FmHifQV6XNlP9EzweJMrtDK4QoQLIfrwTtNAafBoi+q+gKofx7tWurrMNGvpUxvJ/f6oq0WbFmU9Wvlg76r0K9Nu9KHDjrVXu9b71fKY9kz66r64qeyHesstiP5E6uNWUawaAHPS8cUIFgck9J/hpwGi1rU9cVQAUItpvoircrkM1kQpY7aGZhlejupqy/aqt94wKLbUe3MPmVBVwu0qqM+0/uVOpHsRatr1pd7fczSTrVVZfq9fJboQbD4L29tGBHBYsMsWOqD02BRi54shup1jpwVOKRcX4jlXhZqeRUk9fRXQlKm7MjiG6md+iW6WvzjAYtuV/obO7TPQZhJmbKl+y92pcwsV+OSclVfh6oJIWVDr6+P2exbAU+1S+ZMsFiafB53i2Dx+ASm0/10gSWZBTBTbQQOOgwy5Ue6+iVY0plBwbVNsAR37ssceRDBIrsF9XpJ7RDUfboW90zaJVjKTANWSEIBgiUJ0YLSJIhgUb+7ifTqKpMASFffBEtQstndcRIs7urtqd6CCJZ0LeC22iVYPJWSnnGWYPHMVLnvKMGS+F9Z2QqQaH4RLO7nVRB6JFiCMMtJjpFgIViSDB02C7gCBEvAAyDW8AkWgiVWfLCMCkRTgGCJpgw/B8ESPLAULP6YkU8FUlaAYElZQv8aIFiCB5bWTxT4N6A5MtcUIFhck9p7HREswQMLdyzey1MbPSZYbJwVS3wiWIIHll17Si2JPrrhZQUIFi/PXpp97zxkPuTViDryV5Ye/E6saH++ys+9BSP+uXGakyig5gmWgE58PMNWQFFngsVb0IgH8gRLPJnAOokqQLAkqliA6ncdWnxwtyJwmbxgJw+faUCwBCihXRwqweKi2F7ryvwdi9q58Hzo9aDftODvWLyWpXb6S7DYOS9WeEWw+Bcg0YD43JRVVsQenfC2AgSLt+cvrd4TLMEDiwCHP1QgVQUIllQVZHvfKcDF1XdTygG5rADB4rLg7M5+BdRrIvs9pYdUwE4FCBY754VeZVABgiWD4rNrXyhAsPhiGjkIpxRQUFFnp+zSDhUIkgIES5Bmm2ONSwGBCn+oABVIXgGCJXnt2NKnChAsPp1YDss1BQgW16RmR15RgGDxykzRT1sVIFhsnRn6lTEFCJaMSc+OfaIAweKTieQwnFOAYHFOS1oKpgIESzDnnaOOoQDBEkMcFlGBOBQgWOIQiVWCpQDBEqz55midV4BgcV5TWvS4AgSLxyeQ7mdcAYIl41NAB2xTgGCxbUboj9cUIFi8NmP0N+0KECxpl5gd+FwBgsXnE8zhJa4AwZK4ZmxBBXQFCBZdDV5TASD83zFTCCpABZJXgGBJXju29KkC3LH4dGI5LNcUIFhck5odeUUBgsUrM0U/bVWAYLF1Zizz64nRi5E9eF4gDgFLJsfacVAR2vUrxH/6zEa7/oV4cFCRq/6Mz1tvWfTRHa8pQLB4bcYy5K+ARRZcHv7XgGDJUJL5qFuCxUeTmc6hKLAMeHkdhk15P3jHG+9jmEvH4Nc2IqyzS/2pcT00fFH4wYFgSWcmBcM2wRKMeU55lDpYSjYDPPynAcGScprQwP8rQLAwFOJSgGDxH0jMhwOCJa5UYKU4FCBY4hCJVQCChWBhHlCBeBUgWOJVKuD1CBaCJeApwOEnoADBkoBYQa5KsBAsQY5/jj0xBQiWxPQKbG2ChWAJbPBz4AkrQLAkLFkwGxAsBEswI5+jTkYBgiUZ1QLYhmAhWAIY9hxykgoQLEkKF7RmBAvBErSY53iTV4BgSV67QLUkWAiWQAU8B5uSAgRLSvIFpzHBQrAEJ9o50lQVIFhSVTAg7QkWgiUgoc5hOqAAweKAiEEwQbAQLEGIc47RGQUIFmd09L0VgoVg8X2Qc4COKUCwOCalvw0RLASLvyOco3NSAYLFSTV9bMtmsBSu2I7erWqj6zWhw47BHa/H/LV7HfmKf9VH7rR8R+yZ3yxswz2/3djHCezy0AgWlwX3andeAIu+6AtQBCwjH2/rCAicAov445RPTsOIYPFqdtrnN8Fi35xY6ZHXwCKLroBGdjIChVQXYYLFyrCkU5YqQLBYOjG2ueV1sAhk+t/XKHz0aHEqZhStCsNGdg/qFZq5k5A2qkx2PwIp+Uza9m5V66CNSNCZMGroYW1lB6V/ZvaVKvicaM8di21Z511/CBbvzp2rnnsNLOarMAUJOatFWBZ69XsYBQf5TMrVvaqvoBAPWKSOvlMSiCiQ6NfKD1vOBIurKeXrzggWX0+vc4PzAljU7kKdFTRk4TYXewUeBRKpo4PGrK+DpqwdSyx4xCrLNGAIFufyJeiWCJagR0Cc4/cCWAQG0RbnWKBQbXSw6NdSrkAkdmKBRdXTgaXsy5lgiTPgWM3TChAsnp4+95z3G1giAUCHSSwQxQJLWfAgWNyLWfaUOQUIlsxp76me/QYWAYAOEvWqS+00zHsBjbxik3OsMrFrQknvh2DxVNjT2SQVIFiSFC5ozfwIFrW7UL+TkUVfPlOH7EzkL8ikXP1FmUBDygUWqt2wbi3DfwSgysxy/Rf5Ukfa6b//Uf1l+szfsQQtq9M3XoIlfdr6yrLNYMn0guyX/gkWX6VsRgdDsGRUfu90TrAc2sn4BSTmOAgW7+Sj7Z4SLLbPkCX+ESwEiyWhSDc8oADB4oFJssFFgoVgsSEO6YM3FCBYvDFPGfeSYCFYMh6EdMAzChAsnpmqzDpKsBAsmY1A9u4lBQgWL81WBn0lWAiWDIYfu/aYAgSLxyYsU+4SLARLpmKP/XpPAYLFe3OWEY8JFoIlI4HHTj2pAMHiyWlz32mChWBxP+rYo1cVIFi8OnMu+02wECwuhxy787ACBIuHJ89N1wkWgsXNeGNf3laAYPH2/LnmPcFCsLgWbOzI8woQLJ6fQncGQLAQLO5EGnvxgwIEix9m0YUx6GB5+rVN4OE/DfgllC4kUkC6IFgCMtGpDlOBpfUTBeDhbw3G561PNVzYPuAKECwBD4B4hy9gefjZkrQcXZ4pRqfB88JHx0FFyBow9+Bxf985kKPr0OKDRzJ+CAxjtVOw1OuIX+rzWO3FZ71dtLoyRrOu3s6Wa4Il3qxgvWgKECzRlOHnvlJAAUIGpa71czyD1eura7OdfK76MMt4TwWCogDBEpSZDvg4FQj0sxOS6PbUtbIr9/yhAkFUgGAJ4qwHYMxqkTfP6Rq6DhG3+kzXWGiXCqSqAMGSqoJsb4UCmVzMzb7jubdCNDpBBdKkAMGSJmFpNr0KmIt3entz3rrpv9zzhwr4RQGCxS8z6fNxmAuxH4drjpGw8eMsB2NMBEsw5tlzozQXWc8NwCGHTR0IG4eEpZm0KkCwpFVeGo9XAXMBjbddEOuZWhE2QYwCu8dMsNg9P771zlwcfTtQlwZGPV0Smt3EpQDBEpdMrJSqAlz4UlUwsfam3nLPHyrglgIEi1tKB6wfc2EL2PCtHK45J4SNldPkC6cIFl9MY+YHYS5amfeIHsSjgDlvhE08qrFOWQoQLGUpxPKICpgLUsRK/NCTCphzS9h4choz6jTBklH5vdO5udh4x3N66oQC5vwTNk6o6l8bBIt/5zalkZkLSUrG2NiXCpgxQtj4cpqTGhTBkpRs/mtkLhL+GyFH5IYCjCM3VLa/D4LF/jlKi4dcANIiK40aCphxJvf88b8CBIv/5zg8QjPBAzJsDtNCBcxYJGwsnKQUXSJYUhTQ1uZm8trqJ/2iAqKAGa+EjbfjgmDx9vwd9N5MzIMFvKACHlXAjGnCxjsTSbB4Z64O89RMusMKeUMFfKqAGfeEjZ0TTbDYOS9HeGUm1BEV+AEVCKgCzA37Jp5gsW9Owh4xWSydGLplvQJm7sg9f9xVgGBxV++ovZnJELUiC6gAFUhYATO/CJuEJUyoAcGSkFzOVTYD3TnLtEQFklNAYrLDoHm+ONoPLEK7/nORNbAo6nj0HPTLuMsah4x597f7kguQBFoRLAmIlUpVPYjlmj9UwDYFJC4LVu1DyWbw8KEGMre+BEunwfMRlMMESVDGLeN044nItkXZD/4QLP4Gqm/BIoH7atEO3x46TPw8zlhjEw0IFm9ihmAhWJyKXFdfhTFwGbhOBS7tOK8A85P56VRUESw+fJeaqXfkbm61nUoA2jmkAMFCsByKhtSuCBaCxbFf1BIsqSVjplsTLASLUzFIsBAsBItT2eRxOwQLweJUCBMsBAvB4lQ2edwOwUKwOBXCBAvBQrA4lU0et0OwECxOhTDBQrAQLE5lk8ftECwEi1MhTLAQLASLU9nkcTsEC8HiVAgTLAQLweJUNnncDsFCsDgVwgQLwUKwOJVNHrdDsBAsToUwwUKwECxOZZPH7RAsBItTIUywECwEi1PZ5HE7BAvB4lQIEywEC8HiVDZ53I5TYJkwaii6XhM64sidlu9YrEkfgztej/lr9zpm062vQipcsR29W9VGPHr0blULM4pWOTJGN78Zg2AhWBwJWklKNwPX42u4le47CRZz0ZdFtEeLUx1bJJ0AiyzYTi7c8YKJYAFCegaURSG9bqRrpwI33glkPXe39gRLpKj3zmdO5WekRV92FgIbKXMiLyP1kahdL4BFdn7csZSRQ04FbqIBlGj9kY+3PWIbLxMsnydqS+pnKoCT8TWVNgRLGQlgebFT+Rlp0TfBIrk0rFvL8C5G7W7Uk7x6jaa/KlLtpUx2PtJWtZN68mpJ2kfKt0h29c8i7aRUf6MHPBS2Lf1Kf2/OWhjuX91LPZUz+rphrhXioxqX2NFfhem+SB193E7uqNzMz7I2IYHcsUhQmIEhcJAA1CddBVSks26DYLF8RaV7YQXSCRbJG30Bl/zQYaAWcrWjMevrsFILcTxgMe3quahfmzms2ikfzT7N9SCSf2osqq1aO+RzBRDVj6pr+kSwxJGcTgWuGQRO3+tQ0G1H+1yvo64TqavaeP3s5hNRHOHGKgkq4FR+qoVTPaGrs1pYJc7N/DAXVH3B1a9Vjkgf8YDFtKvayzlWmdmnea/DwiwT27H809uKD/3va3RwtyVtRRsFGoIljiB2KnD14EjHtRn0qg/zc0kUlTRyVsEgZ/W5tNEDWF3LVl6vo/pQQSpl5pZf1bH1TLDEkQQWV3EqP/VFNVqsRsoltTuQNioPxJa+ECt7knvxgEXq6XZVezmrXJSz/rlc6/1Hutd90q+VHV0D/Vq3Jb6Za4i5JhAscSSMU4GrJi9dZzPopR8JPv1VmASTPGmooDQDWLehB7CyI+WR7OpBqAJWJVC6xuuUXYIljiSwuIpT+anHcLTY0vND5YG+iOoLu36t7Ol9mLln5ptuV7WP1KdeZvZp3qvclL7NMrETyz+9rfhq7lh0P6L5rteJ99rN/OTvWDYf+ZdTEvTqyUE/S7BEm0Qp05+M9MSJFeh6kJUVoNH6tuVzNwPX4vXZs65lEixm7MuCrf9ORs8vVVc9cKmHNWkjuSB1VVtVV+Wunm96Xpo5ZLYz73U7qk/ljyoz+1T34qesK5GgZLYVm+Kn6V8y927mJ8ESBSxqR6GCRoeGfKYCTYGnf5tLUgaLCiqVIKpvFbDJBJObbdwMXM+u3hY7nkmwSJyq+Fc5peeBlOsPfHKt54VeJn/Jpb9NMO2qBV7PYbMvVWbWVffKpt5O90Gu9dxT8JOxiW9yqLbKlhq33pZgiSNhnApcfcLScS0Tq0+uCmo9kCUodNiY97oN/clIvxa7KqikvRnMUi6BrPebjvE6ZZNgiSMJLK7ilfx0Kl6DZsfN/OSOJY4diwSgAoB6YhEQmNttHTTJgEX60UGi+iRYLF6NfeQawXLka3E/wYdgibDYuznBOhT0fmXRl+2qvruQewHMq+NfOuzrIaSOlAkU8goWHyyLtWORvtSuRdoKqGRbT7D4aPW2eCgEi7fBUrz5AOZt2o/pq7dh/LI1GFCch/7FU9G3+HX0LZ6Mtq+MwF/69MKTeeNR/MHbWL11HT7buT0tEckdS4YhpoMr0rXAzHwtF6meDZ+5+USUlmwIuFGCxdtgEajM3vAdRiwqQdZbQ3DR2CY4b2x91BlbD+e8cA7OGnE2Kvc/Bw1HXI2saR0xcsEoLNq0FLu+2eN45BMsloFFIKJet6lXYeo+0/Cw6YnI8UygQRAs3gSLwOSNNZ9i2JK56Dx3OB6c+zg6FmXjvqJWuH3ODbgp/0o0e6sRrs69GI1euQhXTWqEf067HnfntULOrBwUrC3Eks3z8eWur/Dd3lL8ULo/5WwgWCwDi/7XI/I6zKbdik1PRClHPg0coQDB4j2wLNj8C6au/RzPLi9Gm4KeuODli9HsrSuQvexfGL2lMwZuaoNH1vwLHVY0xb2Lm6BlSSM0K7wQl06viTov/wHVRlbG4zN647WFE/D+px9i19ffYO/3pUfERqIfECyWgSXTu5JI/dv4RJRooLN+2QoQLN4Cy+wNezFlzSd4anEeWhd0xz2FrdHu7dvQZXlLPLb6Njy6rgUefPc6tFl6OW5f2AA3zT8fTefWxVX5Z6P+9KqoM6kSaow/DdeMvxIPvN4Gr5VMwvKNK/HFlzvKDpYyahAsBMthf29vgsXWJ6Iy4prFSShAsHgHLJKX09Zuw7Bl89B+bm9cldsYrYv/jhc+6oYRH2ah78ZWuGfZBbhtUV3cuKAWms07E9fOqY4r8qvikhmVceH0iqiXexrOmVIRvxt+Av408nx0mPAAxhY8j6VrFyQRPYc3IVgIlqhgsfmJ6PAw5p0TChAs3gHL3I2leGH5Mtw761HcOfse5Cy9Ez1X34WBm+5Gz/U3InvVVbh7qYClHm5cUBtNi87CtXNqoPGsqmiQdwbq5p6Ci6ZVQ4vZTXD2K6ej1uiquGL45ejyalfMLJ6FtRvX46tdO5MOK4KFYIkIFtufiJKOeDaMqgDB4h2wTF39OfqXvIFrpzRDyzlNMfKDLhj6QVt0X9sMWSsvw73Lz8edS87DrQtlx/I/sFw9uwYum1kFDfOqoOH0P+KGgsZ4bFkOms5uhHr/rYFK/Sqi6bDmGDlpFOYvKsHWz76IGitlFRAsBEtEsNj+RFRWYLM8cQUIFu+ARV5Zd507BLcX/AvtFt6Epza1xRMbbkHWu5fhvuUX455l56PVonNxc0kdNJ9fC3+deyaa5FfFn978PZrMOAePLMvCpPfGY/FnC/Dye8+h7Zy7UG14DVzy9J/RaURn/DfvVaxdtwGff57cv3MhWAiWiGCx/Yko8WWTLcpSgGDxFlj+M6szHlx4F7q92xI9196K7JXXhncp/15ybvh8y9t18Y/i2ri+qCaunl0djWdVw5Uza+Pu4haYseUN7Ph2O/aV7sP6nUvQf1kv1Bh9NmoNrId/9L0J/ScMRHHJ23jv/Y/wzZ69ZYXOEeUEC8ESESz9iqZZ/UR0RCTzg5QVIFi8BZZb3/w3erxzP3qsaYX2K67EHYsuwt/n18RNC2qhpbwCK66NZvNq4to5f8QlMyrhipk10WNFVhgqH+1+H6U/luLATz+j4PNX8GBJG5z+/B9xRr+zcGkv2bXkYMrUqXjn3VXY8dXX2PfjzwnFF8FCsEQEy925vWDzE1FCUc7KcSlAsHgLLDfkNkPPlW3RbeUt+FfxBWgx9zz8s7AhWsw9P/zL+qZFZ+KaOdXRJL8a/jb7fLQpuRF5WyZjx97tKN1fih9/2oddpdsxcH0XNJt5DX4zvCp+26cqznrkHNw+8E6MfvEFzC8uwWdJvA4jWAiWiGC5asItsPmJKK6VkpUSUoBg8RZYrp3SBDnLW6HNouvx52k18fe8JsiZm4Vb8v+KC6dXwtWz/4BLZpyGRm9VRc93sjDn0zxs2fMB9v20DwcO/Iyd+7bh7R15aDKrPk4fVwVHP3UGju9VGb/v+gc069UCAwY/hRkz8/HRlk8SiiOpTLAQLBHBcv6YP8PmJ6KEI50NylSAYPEWWBq8cgFazLkc7RfcgX4L+mD6yun4cMsWLP9gGaZtnIJGeWei1zudMO+zfHz87YfY//OPOPDLAXyz/yss/CoPgzd0xTWz6uPYsUchNPREhJ6ogWO6V8dJOZXQuMvV6NK9Gya+NhkbNr5XZuyYFQgWgiUiWOqMPh82PxGZgcz71BUQsNzfr/DIo28h7udhnQb1xtTDX2Y2xF3zbkT3eV2QuyoXO7/YhS+37cCHn3+Ih5e0x8wtU8Ovvn7Y/z32H/gRX+7biiU7C/HU+m64segK/GHiKSg3qhxCg3+LUI9a+NVDtVAxpxqu6nwdsh/qjJdfnYh1GzYlHFwEC8ESESxnP18bNj8RJRzpbFCmAhu37AIP72hwzogLcN2MhvhrQUM0nlYffRb2wsdbP8WuL3dj985v8OmuLdi992vs378fBw4cwHc/7cbinTMwZGM3XJffABVfORHHy25lZDmEBpyCUNdz8Zvs83Bmdi1cl30N2ndqi9EvPYvF78wvM3bMCq6D5elJm8DDfg2qDDobNj8RmYHMeyoQNAX+Pvl6XJfXEJe8WRu1Xz8Drea0wLhVo7Hi46X47uu9OFD6C37ZD/z880/Y/sMnWLqzEIPWdQ/vVGpMOg1HvxhC+TEhhJ4+AaEnTkcopy4qdroYDXIa4Zaut6LbI90xcdIkrN+4MWFpXQXL81NWg4c3NDj9iXqw+Yko4UhnAyrgMwXunXYXGk+pjzqTq6DapBNx4dRqaJrfCGPWDMO3u7/DTz/8jAM//YLSn7/Hkp2zMHRTN1yb3wC/m3A8jhtbIQyVcqNDCPU5HaHuNRB68GxU63QJ/tb5Btz3SFs83rs3cqdOD/9blkSlcxUsiTrH+plToMWE5rD5iShzyrBnKmCHAj3nPIbL/3sJ/jiuEipP/DWqT/4tar9eCf8pbok33huPPd/vwiffbsTSnbMxYF03NC+8HDUmVUKFMSGUHx1CuefKIzTsGIQeqYnyObVwbMcaqN2hIW7MuhnZj3XGM0OHIb9gDj7+5LOEB0ywJCxZMBpk53aAzU9EwZgFjpIKRFfgxcVjcfmYy1D5udNQ6ZUTceorx+G3EyqEv1zytvlXYNu372H+tkkYtrkLrs6vj+NeOhoVxpRHaFQIoedDCD17FEIDT0So00U4OutcnNShCi5oVx8t27RCj1498dK4CSh5exG+2Jb41+gTLNHnLdAlLy54DjY/EQV6cjh4KgBg9vpC5EzrjCbjGuP0UafgpDHH4oRxFXDGxN+gbm4V9FjxIFqX3Iy/zb4U1SdWgrz2KhcGSuFFZtEAAAQoSURBVAWEhvwKoX6nItSjOsp3qIWT29XFuVn10bTDDWjb8QEMHjIEeW/NxOo167Bz1zcJ602wJCxZMBos27wANj8RBWMWOEoqEF2BjVs3Y8qSqbh/8gOoMrgyfjX0WBw39mgcNbY8Qi+G8OsJIRwzNoSQ/B5FgDIyhNCIEEJDjkGoz2kIdT8LoY4X4ah2Z6D6A7XRvF0L3JfdFl27d8fYl8ZhydLl+GjLp/j2ux/s/kqX6BKxxEYFbH4islEv+kQF3FTg86+24d33V+OF4rG4c8JdaDCiAU4ZcjKOe+Z4hIYdhWOeOw4Vhh+P0DMnIPTUSQj1PxmhPhUR6lkFoe7VUT7nLBzboRbqtG+AKx64Endk3Ynujz2M4c+OCP+L+02b38e27V/h+x9+JFjcnFi/92XzE5Hftef4qEA8CshrquUb3sXYWeNx74ttUPPJWji5T0Uc0/8kVHjqdyg/4GSU63sqyj1+Bso9WgPlH6qLCp0uwFEd6+L4rLNxcvvqaJ71D9zRriU6dOqIpwY/jalTp2P5ipXYtn1H+JuNS/f9RLDEMxmsE58CNj8RxTcC1qICwVBg0ZqlGFswHtnjuuDmYbfi0n6Xo3KvM/G7RyvjhIcr4oRuZ+DEh6rh953roFr2xajT6XJc3OEqXPbA1WidfR9yHumAIUOfwetTcrF02Qp8+NHH2P3Nd9j7/b4wVKz+duNgTLG/RmnrE5G/VOZoqEBqCsjuYuXatZgxJx9DXx6OrKc74M+PNMY5D9VDtZyaqJpdE9Wza+HcnAtxWefGaN6lBW7PuQOts9rg0ccew6AhfZE7dWr49ypbPtmKr3btTskh/vI+JfmC09i2J6LgKM+RUoGyFfh42yas+2AFFr07D9OLJmPMlBHoNKQD7ulzF25++Ga06NICzTs1x02d/oHbcm5Bm273oFOP9ni0Tze8MH4kct+aiOLFs7FqwxJ8uHVd2R2WUYNgKUMgFv9PAdueiDgvVIAKHFJg7w8/YPeePdixc2f4G45XrVmDKW+8gRGjn8Ezw57BwEGD8GTfvujz5JPo178/nh4yBM+PGoVXJ07EkqVLsXx1CbZ+vhW7dqe2U1EeESxKCZ5jKmDbE1FMZ1lIBQKswK6v94T/UeOqNetQWPwW5s2fj8LCeeF/RS//kr5gdiGK5hXj7YWLw/9D5MefJv4v68uSl2ApSyGWhxWw7YmI00IFqIC9ChAs9s6NtZ7Z8ERkrTh0jApQAXf/B0nqTQWoABWgAv5XgDsW/88xR0gFqAAVcFUBgsVVudkZFaACVMD/ChAs/p9jjpAKUAEq4KoCCYNFGvCgBowBxgBjgDEQKwZikSwUq5BlVIAKUAEqQAUSVYBgSVQx1qcCVIAKUIGYChAsMeVhIRWgAlSACiSqAMGSqGKsTwWoABWgAjEV+D/9ZxHnQSzclwAAAABJRU5ErkJggg==;imageBorder=none;" vertex="1" parent="6wW6lBvhg6wL6kc6Jvn_-16">
          <mxGeometry x="479.34" y="47.45" width="307.25" height="164.97" as="geometry" />
        </mxCell>
        <mxCell id="qvFa3PDqAJ5_tdk628x6-20" value="" style="shape=image;verticalLabelPosition=bottom;labelBackgroundColor=default;verticalAlign=top;aspect=fixed;imageAspect=0;image=data:image/png,iVBORw0KGgoAAAANSUhEUgAAAH4AAABJCAYAAAD7XJKdAAAHHElEQVR4Ae2c+28VRRTH9xejPMQn8SeNSjQov/qLNzHRxMRXNGrwER+oUVfxQVSCoOL7gdFIrokx0Z8wodQSSx/E+wOGv0ChFgqlvW0vLS2NClIotcaEfs2Z3dmdnTu73LJ7oTv3kFz2zpyZs2e+nz0zG+8RB/ynIRVwGnLVvGgE4B3HAX/s10A+8xHwspOvdipAiS3/BN/UTmnkq10KqIwZvF1sE1fD4BPlsdfI4O1lm7gyBp8oj71GBm8v28SVMfhEeew1Mnh72SaujMEnymOvkcHbyzZxZQw+UR57jQzeXraJK0sN/tToD5jecTn+2X4epjrpcz5Odl6AqV+W4tTUwcSbs/HcKZAa/PTOJRHgJzvn4UT7fEx2LMTkjmWY+W/i3K2O7xyrQGrwU9spw+kzD5Od83GifQGOty/E8fZFmGi7CMe2XYxj2y7B362X4mjrZTjauhhHflqMo6WbMD3cEhsYG+qrQGrwtK1PdlCGL8AJAt52ISbaFmGi8wr8u2sFMPotMPI1MPIVUNkADH0IDKwHymsx07fGsLoSXK0QxC0ZhiV1lYsoOAUUy0mDGtuWGvzM2Cbgrw7gz1bgjxZgfDNweBMw9h0wshGofAwMvQ8MvgOU1wHlNUD/60Dfq0DvSoP6BF6BVnLhOC6S2WtzDF65K6pAavAY+x4Y/QY4RFm9ERj+Aji4wQf+ATC4Hhh8ywf+BtC3CjjwEtD7ArD/2Wg0oqVD1NuGKahljGle4/alBx8A/9IH/gkwRMDfBQYI+JtA/2qg/zWg7xWg90Vg/3PAvqeBnscNymsQKeMLRchdu+QqtXDiDKDxpj65a/j+irRzeOMK6hkgjgXZXxRjVLMhQCu60oMfJuCfA5VPgcpHwNB7wMDbwMC6EPgBH3jv88C+Z4CeJ4G9jwJ7lhtENIE0DItkufawVNkcOPJFIXJ0ePeSpnKxwOBNUhv7Kp/5wLVzvI8yfBXQS9u66wNfAex9DNjzMND9IPD7fQaXCkSRjdr5LsDJDNeyWm4LVeDlOLqd5l/ZTchGmcAZb8BS1SW29fVehottXZ7jL4fneI8E/kgIvOtuYPcdVe4iYABQFgZbc+RBKKNYkEAVmMKj2la/k1Fpkz8GH62rNxAxd9G2TsDLqwHKcrmti3P8KaDnCW9b714OdN8PdN0D7L4T2HU78NutBp8KGGFV2up5Lx6ClODFQ+CAt3ofg3rwG8hEumb61yrAVwL79XP8IaD7AaDrXmD3XT7w24Bfb/GyP+KNGgpo3ybOXpGZlOX+Nl9w4QYZDwQvfcELXy0PBd1Ofenjl7sqHI3SMZuHPs+aqOvkunpAvNzlGWitsTN4RSkSQxVEMVn3VV0nZ7x1eOMXxODjtbHawuCtxhu/OAYfr43VFgZvNd74xTH4eG2stjB4q/HGLy4VeK6wjRd2rltSgecK27mONz6+VOC5wjZe2LluSQW+/hW28he2tDJW/+KXziP5U6p6NGdeJc+ZxF5LnLWM0QIyNFOBr3eFbfhzrCHyWXWlFUuf77ULys/CYThko//mbzH4uVFhG0oe/00HFz/SbNHne23XVaqD5ET6fd91oyXi0nbaq34f04RaxpjmRftSZXxYUl2nCttIUUYodlBnL6pwZP1dWEkjlqjYCsWiAkIXTm8rxR4O+SR7eA+vaFPOoataEyjLwaTdF1uJhQSXFT/JcYq6MxSCe8v7aL6jPGtupQNflwrbcIuMbvW0YCesv9PKplBVihUKHD1zdeHUtgc9qPELZFTHUGfYpsqfACTFICqFQrs3VhsTHAM0LrQlxlly/bWrvoMAZ/0lHfhKPSpsleyKZJO2YAFaZoG37gBCAEDqoc5Vv5NdaRt8+p6VHcMwxy/YDO5/Gp/BuKQ4RSyqFvJlUolXLu8MrunA17nCNroebcEGSDUJqkIRN1D8Gnx6MShj9Dnwt/eSzHYaoIw3+KwpTsM8cyxe72z/Tge+7hW26nIUMUU3tcNt0tvq5Q4QtUW3UG87D7ZnUWwpj5fZb/VeKF7BZnhEqLFGY6k9Tm9e6FNqofqWfbO/pgJ/NipswyUZFiyyQm6HEp4/Q6uerf4fMf15VW/gnuAkDH3kA0JZKvpEhx4LPTDyoaP7a/YzjTMybw5t9dOVrTjy880Yb7kS4z9ehfGWq3G4+RqMNV+L0S1LMNp8HQ5tuR4jTUsx0nQDhptuxMHNy3BoawEnB9tDpvztrCuQKuPPerR8w8wUYPCZSZkvRww+X7wyi5bBZyZlvhwx+HzxyixaBp+ZlPlyxODzxSuzaBl8ZlLmyxGDzxevzKJl8JlJmS9HDD5fvDKLlsFnJmW+HDH4fPHKLFoGn5mU+XLE4PPFK7NoGXxmUubLEYPPF6/MomXwmUmZL0ex4MnAH7s1kI9q8M+dyQ6+NoYCDL4xOFetksFXSdIYHf8DgX0rJHXYA/oAAAAASUVORK5CYII=;" vertex="1" parent="6wW6lBvhg6wL6kc6Jvn_-16">
          <mxGeometry x="51" y="60" width="172.6" height="100" as="geometry" />
        </mxCell>
        <mxCell id="6wW6lBvhg6wL6kc6Jvn_-1" value="" style="shape=image;verticalLabelPosition=bottom;labelBackgroundColor=default;verticalAlign=top;aspect=fixed;imageAspect=0;image=data:image/png,iVBORw0KGgoAAAANSUhEUgAAAawAAACkCAYAAADL7Bp1AAAgAElEQVR4Ae2dDZarIAyFuy4X5Hq6mm6mi3HOBQIBCWDVtnbuO2eeViGEj58Aargt/EcCJEACJEACFyBwu4COVJEESIAESIAEFhosVgISIAESIIFLEKDBukQxUUkSIAESIAHTYN1ut4V/ZMA6wDrAOsA68O46YJnmpsGyIvE6CZAACZAACZxBAMbR+mfeaUWyhPE6CZAACZAACewh0LI9NFh7yDIuCZAACZDAoQRosA7FSWEkQAIkQAJnEaDBOoss5ZIACZAACRxK4HCDdZ+Mt2bmx6GKX1LYY169XTnN9+V5QmYe822Z7mdIbin7WGb9Bul0XwdWDN6v37Ks6+e0zKdxCjxqHNZkdl953qdV/UIDv92m5bQsvqr1875Mt0/U0VcVZrxvIHC4wUKm7tO8ZOYJlfOHDNYqfxtKEp1K6qifyyuGZU/6G1R9PSjKe7ovj9nuKHMOeVLn5g9GRNfP53Jv6Jlr9sqvxzIfbLAsPpop6pU0uftkl8MrObLS3yJL67olHsP+bwKnGqxapURDQqLotB/32Y2ybtrAPe7LHGdpGP1mpm9ZFnQAYRaHeHc/a5nudz+6n+Zwf14ej4r8p4oPPdQMB/o63eYQD6NTrVsYFSKM/pOOYaQqrZiUxryV/5H0GzOYbv5cBhSfjO/4bA3pOCbgbwztVxyQ9kj+GuUHEd36hfqTGSwkG/Qdiu8NnJS/M8y64DP9IDcZLOEv9UXrmkRgEKNmShPaQzA4I3yCIG2wkmwwVuVb1H8frsjfPLnBh7u3If0szcqPavlXwvESCWgCaHfWP/NOKxKE6WWXaoflOtXJzbqe6Aefj8UdnSZPde47IGngXva03B+h83w+XVoxDdegfON+OkM2LwiKDkBk3Oc5X4JDA57T0pXrVNBRhyQQN8oPpPaMMLOG6vRPunnx7fx7BnqGEJQqDlk66l4vf240Lpkv+So59inKRBg/3eyiZuos/SC3xbdXfk6vZv0qDRb0LWYgjfirsM4AyLIujEGqO8sSjI+aYSHfUhdFV12/fF1VxCC/WNJr8ZFysQxWj58vl0dsI0+wUPr3ykfS7x1b5d+Ly/v/l0DL9uwwWL5DNStlY+SNUXacQWEEOKWlDTcCLxrPomXBYMl9NLTQM8ROwhgh3tSIO4aVOqHlh2sjHYZEL4+QL6NzPFuYxThIwFb+N6RvsW/mT/MTfbL8o/PMZ5c+L8qAIrzqkfVgQUTiaOmHeybfgfJzaWQ661RxXuahUgZWfKSv8iaSkUc3kazFK5g2+bvVgzR4Evnl0eSjAlYN1hC/YgaWGWCfwEj6SpXVKQaT022Kg8JVAF4gAYPAqQbLSBNTntWsxYcNo0nViWcNvGj8Lo6Wpe/XDNZAh5ClhwS0/JChPQ1Wd9QYvU7oEIJc35mqGWTo2Ms+ciR9nU4UX5On86f5SSR9X641jrLMlYzyLQ4cdDRLP4Sx85eW17Ss1XlTZ9QxzXwVu1rmLhT4lIXhqsixBkvNryrKtfik4FWDNVD/kwRUlufiVipkEBhu2uWTxW7+aJV/MyJv/msC32WwXIc5xyXBZ3ieo/uIbEmmXLLSHW7VYPnlwWn1XCzVATQknV7dYKUlJD9alCWwJMc6KxsqfstM0M8g2/mHXM3ASr9MR/Tp5U/LRkFgeVcvWYmc+tEblLzD9UuEySj7mJZ+uKt1KPPnl2hLaYU2ZxmsQjeX6gtLgsIT9bt8Uw6GRu5D/tPJV6sMhQ4lHyFRN1j9+g/2etbvBlVZg2iXj6TfO7bKvxeX9/8vgcMNln5+tX6dtlyO8ctLuj2gIsvoHC9EPNzvZCBqL134Bq5kQyAMVni5Q2T6dMqH2uFZWph9SNoubJAhcqSauEYsS2OVJRMJtzoqeem5gDcK8lt0dWlW849HfsVLIdFCKAainzumJdp+/tSSEPKG5RvjxYksfxgsxDSlvLQ+uKZ/66XFfMZj5w8p2uW3Xu5b16+99RPp461C4Tj00gW4yCwlGCAXP/B1ZR0Z5/JveL6mVhwcAbP8/YqA6OaPOds2Pz97m1X+3EtHsX75Em+XT1YrzB80WCYa3mgQQJ22/pl3WpEsYWddh0Eb6lDPUuDH5ZLvjxfwp7IXBjhsu58qgGum27I9X2uw9ChZv5Z+zSL4Pq3J9/vKhBqRAAksbmXD4vC1BstSmNdJgARIgAR+l8AlZ1i/WxzMGQmQAAmQgEWABssiw+skQAIkQAJfRYAG66uKg8qQAAmQAAlYBGiwLDK8TgIkQAIk8FUEaLC+qjioDAmQAAmQgEXgYgar+PBUPsa0crfjeulxYIeoD0YNvExOvfsfVJ1JkwAJkEBB4GIGK2gfXDBFp6NFpno/j/CF1kvje+73/O/17n9PTqgJCZDA/yZwSYMFty7iOmn9pXzpumfjfkLKfdJaNipL7jpHu+YRt0qTtZ9WrGvP4PW8dJsTA9gnrf2ynHrKtZLzBl8YJO0aqHbfTpl3SIAESOCjBC5osLwzVe/ebL3fkt/OQjk/c/7rxLedZz0yw7J8nWnHrE6aMwCyH5LfNkP7X/POWpU+PtLrBmtp7ZcF49Taj6l3/6N1kYmTAAmQQJPA9QwWHH96L7YuY95ASR6L2YRcLo4vGywsRaq0Raxemoyzv3TzWF+Hrf2yal7Kw/KpU6d3X3TmkQRIgAS+kMDlDBZehoDS2V80It5glfOZkvt1DRZeksi9d2cGsmeQevdLUPxNAiRAAl9E4GIGq2aQ8v2Wyrf7Xt1PaM+SYLSfKOiakVhefIblZkut/bJ6S369+19UM6kKCZAACRQErmOw0FnHmZU8k9Kvucu1/KWIbfsJaXl6Fqdfjsjl1166AFRntMwXOCQdLbcoGeMnDKnMLqv7hdVeqrD2Y5KXLvR9I11eJgESIIFPE7iOwfo0KaZPAiRAAiTwUQI0WB/Fz8RJgARIgARGCdBgjZJiOBIgARIggY8SoMH6KH4mTgIkQAIkMEqABmuUFMORAAmQAAl8lAAN1kfxM3ESIAESIIFRAjRYo6QYjgRIgARI4KMEaLA+ip+JkwAJkAAJjBK4nMG6T/qDXpxPy3zvOWNa4yg9YqxD7LtytvxXtJOPjjNPHIagV/TfIt9IlpdJgARIwCRwOYO1LPASoT1EeM8TL9gsE8rZN0Z8GZ6lA4zKiMF6Nf2z5b+qF+ORAAlcn8APGCy/pYd0wpgZIFPYy+pxn707J2y5IWVlukuSALbrJYTYJT9zL5VmiqL7Eu+Lm6mwXcnKddKLvgixmxcM1l25udJsfAaT66fqKAD+CIPuiHufI29E78oXzDySAAmQwEYCP2Cw4Pw2dfAu/84oTW4rkCdWC5+PxR0VHHSstQ0aV7KK/a72ykf85gxr5Sw3d+7rs7DPYN0wQw2rqPX9urzhMflI5Cd084MDQQuuI/IlPI8kQAIkMErgogYrzU7cMyzpQCXXq05fbqRj1WBhhhOnOyms3u/KXX1VfhDZNFjY0VjPegbSSpr2z9wMKE43LW/yhsECn+meJ1LoNyo/F8JfJEACJNAncFGDpZb4anksOtFakO81WNqIFMarlpGN10YNismHBmsjcQYnARI4igANVkFydEmwtlymRVU7/BBAp/F0z9nmJX/P0RuqO+5VnyPtWxLMJpGGcbf017pjnbW2JDgiX7PiOQmQAAmMELicwcpfay+eXbk3CPVyoT9PHajsQ1WG0TO21ksX9fjb5OORWngZxL1MkZ4nZQXmnsNpvfRd0cO6r8OmcxghFDj+nM6rF1BEbovP+qULMap9+UkXnpEACZDAVgKXM1hbM3jZ8MbM59vy8zBeXvk2PakPCZDA9QnQYH1ZGcpr834mVM4gv0NZPcvFrsf5cuZ36EgtSIAEfo8ADdbvlSlzRAIkQAI/SYAG6yeLlZkiARIggd8jQIP1e2XKHJEACZDATxKgwfrJYmWmSIAESOD3CNBg/V6ZMkckQAIk8JMEaLB+sliZKRIgARL4PQKXM1j6lWooH//S17u/V0on5OiV/a5G1FiXz3fuVzaSl/8WRn/4HduVa2Pf+XnFJ8un1n78JylkdWa5XM5gAUbmHBYXDKe1Z4I7U/YqfxsT2xt/Y3JFcHjL0B443r9f2WfzX+C40E/tjgudr4wBM3dcB+Tn7PLpye/d35PFI1idqd+evH1D3EsbLN3ABKYf5bT2w7qn/ZzcbsXadTmkrF0PAdJ0vy9zcKXk94Oal4e4WNLe1d12JGnmpz+slRHsNBeumUT5uB9Wio+0peNwwR4N/Yfi+/2rfJ5qn/zarqm6+nsFC4MV9siKmG35PrqtXzf9kfzDG/6cXFRN87T2QL+85qvRzy6nxfmAlNn/NC+ZO8hW+Q3tt2aVf3CrNc2hfhv1cyj/ft+3rN7FOqraB9rF6sPxBt+h8pGEjGOLX09+7/4Qf7t+QmNnsLSO6BtCM5P6K1x1X+VyO6AftkqK+9FV+RvcwmXRAe0//mUOrYvym+5xL0GJa/ZfSGOnfm3tF6ezFeZm3riZt6woh17Xy07ixy5LoLkf1jPbG0uPJCHDVzipYYVzV1eh/JQfTmtl3ydsPyKV8D4XjmxRgHPaksMVuqrEtf2o2iOstv4+D3qGk5GJP6BHjd1qhOgqYPJm0de/MsNS+5X15IuCln799CszcBEaNpic7o/onQN+HW9Zg0Xg1wwWYqJuuk48jgVKj/v98lterb8D9dNz7eXfNlgj9bvHt12/VWFVT/v8evJ799v8vVJW/XR903RPfYxrP6k9Ip70FU5SxQVbS78e/yoydTFL//lYJtU2EazXPhH/1ui/9uqnVK2ewsha/8w7rUiWsCOvS4FalQYVrtYZOx2eeoR6W6ZJzWDQ4MvOS8vS99GphJoXK4HrMNTIJY5ijquwWP7MRlha/wBZ+LSYV9lB/6w1eQl6P7CYVxGu+bhrpQNdNFAZAPTli9iqfsHgZCqu0m8brGwGjRGqanyS9p7jqsGXOg+U3yH1t1Y/pXxkx+hG/suBnIs6UL9H+Nr1s6w70pZS+zmi/tvph5Kv1KmyTlj1s1f+/fbTqL9d/gP8JCNOVvG8bW/77+onib9+bNmerzdYZrbNCocCnZa7dKCVzmSXwXLLiWk2VdNvV4V13ugb+ocEuw0y5Htl1PdWWJc+GKsORkMYkC/BrQ5hHz+RHo7P5+JmyuUgpQi25We7w+rUP0noiPprGixJBJXAzn/VYA3UbyXdlD9SPzM58ccYv5783v3mgCHoYtXPdvmXy+N677uYyfUz+ngLy4Ht/iUGbZ04w1IYK4QfaJ/t9neQfg3d/5fBQoFMc5yuP8Nasx6xZxWu3O/JxQ8VxugQ/BJffGCzQt8ucB9c65DtlzWgPySY8ZU2ww2usiSoea0bd8NgFbo5dQr5oqKl3y5+If0440MbhXHIMgQNTloSHCy/NdNApRd/oH6ibvTzby8J9ur3iPyR+in1IDv28h8C9+T37pv8lTJW/SyXBNHHuFl8iKvjuXuY5WYPOdvtt8dfqVg/BUMM2uOSdW5kNBsnoGifvfa3W7+61vHq5QyWfn51y8AjT+gsZRkhHXV/BODINP7wrAHbY+Ry1ENNLBfFTRSVbAiEwQqVTWT6dJ4LCk3SuE2T6xBRPyQc7rmwQYbIkVJp7ZelZdT1b+23pfKQcdIzov5D15b+7fJBDm35Vvm5Z4UH8cPoes7KJz0UF/5JD80l3W2duQb/KOpQ7BzyOrAuv3r5jNVfFbdRP7v5V3XS1+GSgV2/waUrH+WIQYLUv41Lsvvqvy85O33FUPSTtuqi1u9L/fQvUWAFBEYh9D9l/pwBUPfcs/DcaNn6QYk2f59D+3+vY+obXRlnsza7fWr2dv+1Tz9bc38H+lr/zDutSJawq17nfk9XLbnP6L0aoX5GDaZKAj9JoGV7/q3B0rME98bXTxY9M3U0AV1v1m8eHp0a5ZHA/yNAg/X/ypw5JgESIIFLEqDBumSxUWkSIAES+H8EaLD+X5kzxyRAAiRwSQI0WJcsNipNAiRAAv+PAA3W/ytz5pgESIAELkmABuuSxUalSYAESOD/EbicwcpeHXYf533Rfkurjy5vmaPId1Sv+PGi+lj1Hem6NMr8wwno2xLfmJD74r/8KHajDAYnARJ4K4HLGSzvhUB3NP7L7ORq5Hx+LV9k+Bo880yATjz7kvwd+mnXK9vTa+VvRBo8fbyzPEZ0YhgSIIHrE/gBg1U6lLRdi7jiUrOA0oeXuB4x93txo/LCrUnmuqXUZe2rTlyjIG3n9gmzRLhvkbqk99Kp7tdVuj6B9/bcQIi3BckPChlG0812tGuY4J4qzoIG8rdyrVTZT6ppsBr5E31N/sJop68/xyO4zinrwNLQT8oO8V08VZfioKQRP6rPExIggZcI/IDBwn5DqcPW545I4bxRKKFzXHVW4q9O+f/yzhxjl+6it2Yg0ummTjHpJml7P4TBxyBEPx/RIS8MwlMlh05Sz9igj3Ze6jZMK3wqCgNnEFVekP7IfjW9/PX2O2oarE7+HD+lc40/GHmfkcrQR7gbTqpe0dv8V/Vm5Ty3HX+DdgxKAiRQELiowdKzHNWBY4age/eQ2VoHuup4Qlhcz0RUOrVeh57FdwazMFoVmbFcmvsl5Z6VY5ziBM/5sM8X9utStg/Tv+SUM8wwvGHNO/5W/tySbGc/pRrvqGIzf+sZ6ojn7Ch760mtHDr6OWMJj/8hLRkcxKS78WNInpAACWwkcFGDlXewMc/faLDCrC0zYrWO0mUC3qBb+115gyWdZcx3cQKDNc9ztq2BDzJq8Ay+RTrWfkqlwUqDgF7+Pm2w+voBQcwPyjEv2E75lQD5mwRIYAuB3zJYX7DfUuzMpBQwwyqec5mzBhjczn5dWCLUS5nP8ExK95tx1I8OVT8fc/vFYSk0PjETLbNjjO86Z2wFkc8o9JKk2wpBJx7S0C9dRCYD+YthRaOqcT9pSXBAP6+WN/yak7s+HF8yxyMJkMAWApczWPlr7cVSm8t566ULbzz8MpheVvQzCnSWcs/1weqhemYk0InKkpp63iJ7ZIkMOaa49fR1f691WO+XhAzm+cN+W3oHZf9igOeyekkg8MEMSHTT+3VJxWntx4PlQnM/KcUryg+cJI+t/Ol7Lf579quSPLpjxRhqHer8vQQXTjKlhI7GV1F4SgIkMEgA/Yr1z7zTimQJ43US+DYCMC5pMPFt2lEfEiCBkkDL9tBglbT4++IE8hku9zq7eHFS/X9HgAbr3xU5M0wCJEAC1yRAg3XNcqPWJEACJPDvCNBg/bsiZ4ZJgARI4JoEaLCuWW7UmgRIgAT+HQEarH9X5MwwCZAACVyTAA3WNcuNWpMACZDAvyNwLYMFTwLywa4c9Ye7byy+0uPEG5N2SX06/Vfzm3/4jY+3X9vPbCz98Br7W7Z3gRNmnx/t5SN+TP6SDi/orz7efuUbs98tH+9SCx3e+q/mgGCshjHUewlcy2CBDRqk9jAQ3OG0nQ1tg9p2/rpN1iuhP53+KzqPx0EnrH0Vnr2f2Zj/xHH9l8UsnzCg0v4F4VWkdI+1JS3vbPi+LUrwd/iKwXr/fnPvKx/9oTgGfNKNrFxsbaadRzDrRx6Mv14gcH2DVTbO4FtPRlHrj0Nz10aT3s+pNoOr+AGMsrOhdBrBNfdzau2XtDN9X/5F/qZ73GtL3AY19StcP2V8YgXb48uvNFjKmawbj/gRMDrb6n5hpX4qf069rPzheT91iJJ/6ajEdVXesTf2G+uVD+7P92TQ3O9H+u0VXO7KNda0Qf91/m4uvZozZN05x2IbOvnh8lH51wZLXXZb/cx6N4K53DW7aF9b+48sMf7YSuAnDJaedfX2e/INOW27Ab95cfO9QG9khGR1CK5TVMuUboSdGbb+fkl70l+NFl0HnhpdT78RPvv2oyo7xHw/M1cEblmrvl9YO38wTvPyiD14MD5qOQ75E4MlaWmDhfLSzn3r+43pGaJqcsFAoT46g+tk5TOyvfr36rdo48sxgpDLA8cfLh+Ve8tg9fiOtI+R9qtU4ekGAr9lsIwR8C1bgkKnltax3XJN0a5HKpzVIfQ6ROxJlaefliak3F5OXzpMERSO6ITFZnb1W/p8CvEbf6JDTPzdM6xkYbysilNad6OXv1o8xBk2WGk21sqUWT5Rv6crY0k3ho/3c+mxfHr6I37GTjiuDWi9fpbsa/HLMIUBh+o1PXF9b/7Caok9oNhZPgp71WAN8e23j1jeKj2eHkPgJwxWapxjFTqiez6X5/34GVazwTX3u/KajVT4lOeYm36H0e0QlCycGnyKUBt/liP4SvQPd4jF+GWloFk+Rocdwxv3hw2WG0yMPc+q1o9VTmoXfrh8VHarBmsDXyfKaB+xvFV6PD2GwPUNllvySiNMNP7Wfk9YktFLPrX9nPSyDQya3g9KsFsdAq6bBgsdVme/K8jfk76O63StLAma+oW0e3yOXRIUoupoGayCzTp/GLD0lwRlCfD58DMW+Q156Mj07+Z+Y24AoOqHYZB0B9Yun77+vfotFK36Kfft4w6D9e3lozJdN1go//f0H0oVnm4gcC2DhQ6hXBLJOijkvHxoHp6FBCjoPMz9nEIYez+ocrkkX1JBJwGg+HNGofKKsQ5j7bf0avpe/eKhsHqor9O29Bvhs2c/qvy16bRU6XWv880M7CsvXaBMZFlQv5SBuoMZ9k0bqZxfud8Y9KyWT1Y3Q76yazKoyuUPvXSh9W/W7zq/fEk8VHLj8LPlI/lVbdK3VSkXCXBm/yFp8PgqAZSZ9c+804pkCeN1EiABEiABEthDoGV7aLD2kGVcEiABEiCBQwnQYB2Kk8JIgARIgATOIkCDdRZZyiUBEiABEjiUAA3WoTgpjARIgARI4CwCNFhnkaVcEiABEiCBQwnQYB2Kk8JIgARIgATOIkCDdRZZyiUBEiABEjiUwAUNVvHh5TxnvuIOpXOKsPzDRPl4OP84djTh8KGofBQ7Gu2AcOkjZP3xb/HhaqlX+dHmlJzyQqUkUz7IlqNPw7wv6ZTy8UFwxds2vBmg4uNvzX9dPtFVU/YhcNBNfbje1W+Ae/7hruT/5rfU6eavw9+l79vPFPxpIv/wHi++JtNH4fpj6gHFR4OsGJYf7o4KssJpX3/1vdac95qwd5n2amJJ5PXvIXA5g4VOYU6ta3HudaTD+h6upiboLO/P2AU6f33opF4zWEhmo/9EU7NtN1AOZmNHpwQPG1lHmORb17VM7TpHuzPSYZzEkJZIz+/D+OQdb4+/Cz8nb/4PeC/RhhVGQxeWSz91unn6zgpvHlBpV04xjyHNXP46fzG8wR/516634C9ynrTB8iTzdITuAUfw0vwOEKlFoK7E/D39TgBZcqXbr8e8o+3plHn+DgKXNFjwFai6/IJTMQOruCaSCozOyY2ylQHU16z9mNDoEc/9TfC+rhq8dv1TjvCHGqutv8toJh+NszBY2f3aDANS9uxn5XG3OjTcc4zLziGUlGWwwm13QDlIOenrKd0i3yFQuh8vpA6yx98Zn7Vz2UyX0mCFmaEY75R+XT+dF+tcDFaSlUKurlXyhDBV/kb+kvR0tkon3dp3VtF3n8B27MgiBFvVvTfr09aWd3sELmewxFeg+BR0Sz7KeunRuMu868DT0lNZgatbJbill/p+TOsRKpZhksFq7qdjdOC6kNr6oxNsO3dtph8TOtNgYVQ7hwEFRu+JvSS/6jTkhjpmRkJdR/npwYK65U6zjrYcYXf4Z3G1YB2vYrD0fmw9/bRY61wvC4ohlLCZjmX+XKAGf50PEWgcs3SMMC9dhoGQwZ7zkajr80sS7UjBQKvuYT3rD2FsIbzzTQQuaLByfHBEmhyb1pcbdAeJhpiN3GuNuHbNJdsZNZeNMTbMsGRkyg15QvxMOX896l+LrxtcL/0c3a5fZocGHVUevIHPk4r5yS9nv1oGy3fi9bKAXtGg3VDWqruq8VOpNvMks/ABg2XrVzxjKutH0KU3wzLzh/gt/ln+C11UmUGMyULxOuTUqPO7Zbt959JSrchb1T3dfiQQj19L4PIGyz8kDhXTqPy6kqIhZm0za8ShnGrX3C3fSaousCjYeicaA/UaR0//ml6ZzE76UZH9J1aHBkOTOtRwngH3WzhI/w9NVmUStvkoojmlrXQlR/q+86qOGWm62X6elLGUSH7LkahLxWBlabae7SWRzTMxWLVAWVqoDzp/gZvJv1e/VII6HXX5hNPj66x7qUI9h9RKrwZCBhMdh+ffQ+BiBissv+lRc1Hh2ktq+cixth+SK5qaYQhlhgqvl2nK/ZJgHFv7cfn7yuS5JctkRNv6o3HrJZTwRpt66aSXvs/GWUuCvvNRuXPPy8oOWA8goA86x2gQFOfymoTV/HFNyy87WvzWL0n0+LvyVZ1d/6WLUCZB7zL9Ur8QrHnQ+SkDlvLz/PX5u/ql2w/4VV6OKdPJ9IDRxuywVkBZwPUPpK/bh+NbynlZvn/+m72UVdYtzLzUaAn1oUx+rTWvfAuBSxqs1X5WGc0NLy2g88/2QyqWScKSTV6hc/nr/ZLy16JxH0tkuhP3m0LKSxvzcs86kFz+sfslCSjJp5p9yK3B46pDw8AhLnHJMz1JB3mdlntgvZoByP5hSFs6qygr6eg653hdz+RCGB03GnE801H7YTkDiU0Xbf7oxETH7LX4LI8pvhRfV78Btvr5lWOmK04rf3jBR/IUn6kW/J2svH4hjWzZNOi4Kl+lu59FSxmrG0OnefoZ3xD/Zfm18tF1K8hH+4vlq4zXkPoM9FECFzNYH2XFxBWBVoemgvH0ogTs8vUDgHKWe1w2z5Z/nKaU9H4CNFjvZ/4TKabZxKsj7Z/A8IOZSLOyqlFys5g06z0cwNnyD1eYAt9JgAbrnbSZFgmQAAmQwMsEaLBeRseIJEACJEAC7yRAg/VO2kyLBEiABEjgZQI0WC+jY0QSIAESIJj0FSoAAATLSURBVIF3EqDBeidtpkUCJEACJPAygY8bLPv12ZfzxIgkQAIkQAI/SOA0gzX22jNeoRVHqaCbXqmFYtFHoIDXH06G+/q7ypSm/qgU5/7Va/O+fGRayi+9rTs98g+D8eEjvtZPHxev70cdax82Ks8VXf2EQ+OYf3iqOEDBbv46/EP+4RnhY/spNfLOWyRAAr9N4FSDVf2OQ/FEB10Ng47d2M8H0UvXPiJSy8PX8mJEtLsjHcbFC2nVZHjP8LkrJp92NEGr/ay2u/ZBXtN3LT39RM/WceXaB3kMMHL5MK55/jSTGmdcyzwjvHs/pVbGeY8ESOCnCXzQYJWzq8QZnarrXw2ffrWONMX2Z9pg6Xupw/Z+1/Q9nKf74Y7q7Bd9Xkb0kavOVTNdMMsRSxqTSIY7pV/Xr5ZseU0MVpKVQqyuVfKEMFX+CCuz0SSyerZKpxqKF0mABEhgnMDHDJbdoTX28wn52muw3HJjbcmxNFjlfkOGARXcZp50vIrB4n5KQpBHEiABErAJfMhg+dlV3PZB64fOXc1A/BKUDmAvCepQ2axG3UhGpT6Dwf1o0ErHoNrwKJlymmTLlXDU8QYMll8mrelXPGOKzk7TkiJS7M2wzPwhcou/zkf5vFGVGcSYLAISHkiABEhgK4GPGKxWZwZDkzrUcF50huUMC/KKIO7ZTHkNcFppl/e5n1LBv7J8CGZleZQc8Zv/SIAESGAvgQ8YLOzFlM8IUib8rEK90gATE2cMEq7sIPcaLJmRQH5p0PBbP3NC2tmLIsV+VjC4ejsR7qckpcYjCZAACewj8HaDVRqEqD5G73GJSzyA6yUw7qcUWTVO8tfahWOIoF9rjy9P+O0cUBG6/N1IIt/P6JX9lBrq8xYJkAAJmATebLDQORadqKkab1yZgDkwuXKmqDsJkMBHCZxqsCBcPtr9aC6Z+BsJpFlxtnT6Rg2YFAmQwG8SOM1g/SYu5ooESIAESOBTBGiwPkWe6ZIACZAACWwiQIO1CRcDkwAJkAAJfIoADdanyDNdEiABEiCBTQRosDbhYmASIAESIIFPEaDB+hR5pksCJEACJLCJwCkGy7lXUltmbNKIgUmABEiABEigQuAUg4V0LOezFR14iQRIgARIgAS6BE4zWPB0UHM+29WIAUiABEiABEigQoAGqwKFl0iABEiABL6PwGkGy+2rBIeq99z3+vchoEYkQAIkQAJXIHCaweKS4BWKnzqSAAmQwHUI0GBdp6yoKQmQAAn8awKnGSy+Jfiv6xUzTwIkQAKHEzjFYPE7rMPLiQJJgARI4N8TOMVg/XuqBEACJEACJHA4ARqsw5FSIAmQAAmQwBkEaLDOoEqZJEACJEAChxOgwTocKQWSAAmQAAmcQYAG6wyqlEkCJEACJHA4ARqsw5FSIAmQAAmQwBkEaLDOoEqZJEACJEAChxOgwTocKQWSAAmQAAmcQYAG6wyqlEkCJEACJHA4ARqsw5FSIAmQAAmQwBkEaLDOoEqZJEACJEAChxOgwTocKQWSAAmQAAmcQYAG6wyqlEkCJEACJHA4ARqsw5FSIAmQAAmQwBkEXjZYiMg/MmAdYB1gHWAdeGcdsAzhzbrB6yRAAiRAAiTwTQRosL6pNKgLCZAACZCASeAPzsOhHXtjP0kAAAAASUVORK5CYII=;" parent="6wW6lBvhg6wL6kc6Jvn_-16" vertex="1">
          <mxGeometry x="42" y="267.66" width="408" height="156.34" as="geometry" />
        </mxCell>
        <mxCell id="6wW6lBvhg6wL6kc6Jvn_-34" value="" style="endArrow=none;dashed=1;html=1;rounded=0;exitX=0.794;exitY=0.549;exitDx=0;exitDy=0;exitPerimeter=0;strokeColor=#FF0000;entryX=0;entryY=0.5;entryDx=0;entryDy=0;" parent="6wW6lBvhg6wL6kc6Jvn_-16" source="6wW6lBvhg6wL6kc6Jvn_-1" edge="1" target="6wW6lBvhg6wL6kc6Jvn_-22">
          <mxGeometry width="50" height="50" relative="1" as="geometry">
            <mxPoint x="460" y="250" as="sourcePoint" />
            <mxPoint x="510" y="200" as="targetPoint" />
          </mxGeometry>
        </mxCell>
        <mxCell id="qvFa3PDqAJ5_tdk628x6-37" value="" style="endArrow=none;dashed=1;html=1;rounded=0;strokeColor=#FF3333;" edge="1" parent="6wW6lBvhg6wL6kc6Jvn_-16">
          <mxGeometry width="50" height="50" relative="1" as="geometry">
            <mxPoint x="260" y="130" as="sourcePoint" />
            <mxPoint x="700" y="190" as="targetPoint" />
          </mxGeometry>
        </mxCell>
        <mxCell id="qvFa3PDqAJ5_tdk628x6-39" value="" style="endArrow=none;dashed=1;html=1;rounded=0;strokeColor=#FF3333;" edge="1" parent="6wW6lBvhg6wL6kc6Jvn_-16">
          <mxGeometry width="50" height="50" relative="1" as="geometry">
            <mxPoint x="270" y="120" as="sourcePoint" />
            <mxPoint x="506.81" y="170" as="targetPoint" />
          </mxGeometry>
        </mxCell>
        <mxCell id="qvFa3PDqAJ5_tdk628x6-41" value="" style="endArrow=none;dashed=1;html=1;rounded=0;strokeColor=#FF3333;" edge="1" parent="6wW6lBvhg6wL6kc6Jvn_-16">
          <mxGeometry width="50" height="50" relative="1" as="geometry">
            <mxPoint x="240" y="330" as="sourcePoint" />
            <mxPoint x="430" y="360" as="targetPoint" />
          </mxGeometry>
        </mxCell>
        <mxCell id="qvFa3PDqAJ5_tdk628x6-42" value="" style="endArrow=none;dashed=1;html=1;rounded=0;strokeColor=#FF3333;" edge="1" parent="6wW6lBvhg6wL6kc6Jvn_-16">
          <mxGeometry width="50" height="50" relative="1" as="geometry">
            <mxPoint x="420" y="360" as="sourcePoint" />
            <mxPoint x="620" y="390" as="targetPoint" />
          </mxGeometry>
        </mxCell>
        <mxCell id="qvFa3PDqAJ5_tdk628x6-43" value="" style="endArrow=none;dashed=1;html=1;rounded=0;strokeColor=#FF3333;" edge="1" parent="6wW6lBvhg6wL6kc6Jvn_-16">
          <mxGeometry width="50" height="50" relative="1" as="geometry">
            <mxPoint x="140" y="90" as="sourcePoint" />
            <mxPoint x="270" y="120" as="targetPoint" />
          </mxGeometry>
        </mxCell>
        <mxCell id="qvFa3PDqAJ5_tdk628x6-44" value="" style="endArrow=none;dashed=1;html=1;rounded=0;strokeColor=#FF3333;" edge="1" parent="6wW6lBvhg6wL6kc6Jvn_-16">
          <mxGeometry width="50" height="50" relative="1" as="geometry">
            <mxPoint x="190" y="120" as="sourcePoint" />
            <mxPoint x="260" y="130" as="targetPoint" />
          </mxGeometry>
        </mxCell>
        <mxCell id="6wW6lBvhg6wL6kc6Jvn_-17" value="INGENIERIA&amp;nbsp; DE&amp;nbsp; APLICACION" style="swimlane;horizontal=0;whiteSpace=wrap;html=1;" parent="1" vertex="1">
          <mxGeometry x="40" y="440" width="1000" height="460" as="geometry" />
        </mxCell>
        <mxCell id="6wW6lBvhg6wL6kc6Jvn_-23" value="&lt;b&gt;ARCHIVO DE APLICACIÃN ProductTest&lt;/b&gt;" style="text;strokeColor=none;fillColor=#ece9e9;align=left;verticalAlign=middle;spacingLeft=4;spacingRight=4;overflow=hidden;points=[[0,0.5],[1,0.5]];portConstraint=eastwest;rotatable=0;whiteSpace=wrap;html=1;" parent="6wW6lBvhg6wL6kc6Jvn_-17" vertex="1">
          <mxGeometry x="486" y="20" width="500" height="30" as="geometry" />
        </mxCell>
        <mxCell id="6wW6lBvhg6wL6kc6Jvn_-27" value="&lt;b&gt;PRODUCTO FINAL&lt;/b&gt;" style="text;strokeColor=none;fillColor=#ece9e9;align=left;verticalAlign=middle;spacingLeft=4;spacingRight=4;overflow=hidden;points=[[0,0.5],[1,0.5]];portConstraint=eastwest;rotatable=0;whiteSpace=wrap;html=1;" parent="6wW6lBvhg6wL6kc6Jvn_-17" vertex="1">
          <mxGeometry x="50" y="20" width="360" height="30" as="geometry" />
        </mxCell>
        <mxCell id="qvFa3PDqAJ5_tdk628x6-3" value="" style="shape=image;verticalLabelPosition=bottom;labelBackgroundColor=default;verticalAlign=top;aspect=fixed;imageAspect=0;image=data:image/png,iVBORw0KGgoAAAANSUhEUgAAAgAAAAEJCAYAAADin5+vAAAgAElEQVR4Ae2dv27cONfGdT3fJajJTWzqNIauIM0WgdOkVwoDBoJt3bhIYUTtroFUBoKt4kbFuyniBdb1AtudD4fkkQ4pUpRmpPFo5lkgK40kHh7+SPE8/DOegvAfCIAACIAACIDA2REozq7EKDAIgAAIgAAIgABBAKARgAAIgAAIgMAZEoAAOMNKR5FBAARAAARAAAIAbQAEQAAEQAAEzpAABMAZVjqKDAIgAAIgAAIQAGgDIAACIAACIHCGBCAAzrDSUWQQAAEQAAEQGBUARVEQ/oEB2gDaANoA2gDawDbbwJjMyQqAscS4BwIgAAIgAAIgcJwEWLSN/Td6N5d4zDDugQAIgAAIgAAIvByBXAyHAHi5ukHOIAACIAACILAaAQiA1dDCMAiAAAiAAAgcLwEIgOOtG3gGAiAAAiAAAqsRWFQA/Pfff6s5CsMgAAIgAAIgAALLEThOAdB+pqviNV0Wr+m2SRf2uX5rnuHnLquHxIMPdFu8pqv6Z+L+epen+bde/jnLdRl+baWkqm5zyXa831DFXxst6x3Tz0vW1mXiK6olrVbEeS72T7c1lUVB5dE51ruIMxAAgdMjcJwCwHC2gXtMAEh1PFZjAkCeernj8frHQbmiXmO1VFdrBsiGqoUFQF1q//s6ZgEgAbWpCqpcIety2fKl8u89yZ9pX/NP4wkQAAEQWIbAagKgG8HXn+m2tKP5y/IjPZoB5k+6l2vVA5kA6Ub8l8VHejRlcyP3Uo3yy490HxmgpgJsfgT+k+4rZd/48DaaRxz3tPRj/gknnsW4qj7Ts86oVeyEj57pyN3XtqLnoQAg4mAkwZIDJzcQDqRNXZlRauEFXCsY+BnzXFkrMUFELQd8mWVgu70AkBF6LK/e1ZaaSo3ky5oqCeBu1Cx5y1Hs9TaItADQ133/CiqrmvzmFZSvKqkUATMjfy/PyAcIgAgUXAIBEFidAPebY/+N3g0T+3sAbAA3Ad31qjYg9wF2EBibjxQKAC+9ud+nF8cHduSGO8bvOxFSqqBr7I8vO/Smp6eP599bsmfWXr9UES5d/KRHFiudv7n7of3Y51AAtDQYITcVFUVJZdVQy/XYuiPR8FkT8CWIcrCvqOkiqgvmEkDZlBIbxrum6kbt/JmDf9UbsIKi8EfwU0bgKQFQV5Uf8Nn/ql+isIG56Z5pmYXyn32ckn+MvL4GAaBp4BwEQOBQBMIYHua7twDwp/D9IDcIjBEBMJZenB3YkRvuGL1v9hmEYoKDangtMCYfZ6SP5k9Ez81nupKZEDfC7wWAExhyvXxLt/WDmiHI3RdHx45uXb77k85BwOWkQVDurPEIODLc5qBtlrJj6TiNCqDjAqCfLejyjJxMCcBRAZAYwRfekoiewSio9ASNdWZK/hG3u0utmVkplVDqbuEEBEAABFYlsDEBQHa5QE+DU/yaphYNwNEArlNlzmekT+fPsw2yOdEXR5L7c/NA9/VHupWlim4GwD6Ruy924sdwBiDyVCyQ82MHEgDdBELENb40JQBHBQBNExhdtm1LHKwxA9ARwQkIgMDGCawuAMam8L3A2D64fQH+HgCe8rb7BnjE/JGuIiN0z06kQuL33Qi6CkfVbyd+Y2B6+mj+brbD7mn4Sc81l019WyEiMPiZbokkdz/CYXhpDwGw0BKAbNRrm+FOeA7ccp99b92eAj3xoJcs7Gg6mNY3kxj9JkDNgGcryrrfAqnv8Tnb1ksQvAQQznpMyT+0G37GEkBIBJ9BAAQOQWB1AXAbbAL0N/E9+BsETYBzGwbd1PdtZQOj+apf+ZbuuxGz7DHwn7/0BEL4TDi9P9zEN9iIN1oLY+nDvMXP3gezpm/KyaJDbfjjGQ4T4CWNO+pNkLn7o37bm/7XAP21deIRcrc0IBv5wkAabJKbsglQfxVQbxLk6XUeYXtfh/PtF7wBUO8JMFsS3OZEY1fvObDLF2yv/xd+YyDcZOj2Ojh2PLtQeZsQA/u5/CfUAT8CATARFB4DARBYlMD6AiA9wFq0IDAGApsl4PYj6NmOzZYFjoMACGyGwGoCQH+9rZu23gwWOAoCIAACIAACp01gNQFw2thQOhAAARAAARDYNgEIgG3XH7wHARAAARAAgZ0IQADshA2JQAAEQAAEQGDbBCAAtl1/8B4EQAAEQAAEdiIAAbATNiQCARAAARAAgW0TgADYdv3BexAAARAAARDYiQAEwE7YkAgEQAAEQAAEtk0AAmDb9QfvQQAEQAAEQGAnAhAAO2FDIhAAARAAARDYNgEIgG3XH7wHARAAARAAgZ0ILCoAdvIAiUAABEAABEAABA5OAALg4MiRIQiAAAiAAAi8PAEIgJevA3gAAiAAAiAAAgcnAAFwcOTIEARAAARAAARengAEwMvXATwAARAAARAAgYMTgAA4OHJkCAIgAAIgAAIvT+BMBMAD3Rav6ar+uQrx5/otXVYPq9iuy4K4kvp/JVV1u0peRA1VnFdZr2T/2M3+Q1XxBxXlX8fuKPwDARAAgb0JnIkA2JvTqIHH6vVqAsAG5YqazoOW6qqk1TQAi4CFBUBdav+7ghzpyT9ULSwA6vK7qr8jLTbcAgEQODsCxysA2s90Vbymy+I13daf6ba055flR3rsBsB2ZM/P8Aj8sXprnudn7t0zZnTu7HijdGXf5MERtvlo00u+DRGnFz/4uavqMz13zUTlL3k4X7pH2ofed77n+d89NXLCo3I/gLZ1SZVTBE1lZwfKuqWmrqg0I3j9vBUMMoNQlrUfjFoO+DLDwHZ7AcD5cLpYXr3DLTWVfc7kUdZUlU6gtLX1x5vB6O31NuJndfkHFcUD1fV3Knlkbkbn3z3x01T2eln/S4085wXcf6muHmza4g8qy7+C8nPAd7aLB6qaXgC0tU3Xl7/Pq/f4X2qUfZ49qMoH62P7V++3+F/80fHsbbRkZ3oqarq23d/FGQiAAAisQeB4BYAprQTYPujbgP62C/D8mBmBmwD8kR7JBm0v2Mszg2n6n3TPwkJdN7ZKHeQ1dvt8uJSQnAFwIuO26ZceYv7rHIbnoQDgYBHMADQVFUVJZdVQywGkdUei4bMm4Ndk4wwHex10XDBXMwBabBjfmopYbMh/HPwrHbXYfuH7t88MAIuAsvrLlstk+i8NRtTNdyMUyuofV353NOV3wVgcbm2AtyXg8+8q6LpgrmYAWASIADAmmu/EYkP+4+BfNf1nYvssWnpEQ38lcXeEAOhQ4AQEQOBgBDYhAG77+W8iGgZhKwBs8E+RSwZpM+p3abuA3Vt5bj7Tlcw+uFH+VAHgzT64tGa2gmc1vDL1+Q3P3Lp8N4oOAi4nCIJyZ4NH4F70snc4aJsAFUvHaSYLgH62oMszcrKfAPCDKZvPBeXOBR6BV/90H+WEg7Ytvx/MzX1OM1kA9LMFYjt2HAiW2EO4BgIgAAIHJnA6AkCN4mMMkwJACQoTsPXovxMEMoIfig/OK2XbCoBxYRLz1b8WzgD4d82nWCDnGwcSAGqwG3GOZyH0kkT0keTFWqbT1RPHJgDy5cceAFV9OAUBEDgSApsQAJeFWgIwI/bIEsDOAsBf+/dG9252wO4n+EnP9UezH8B7pltycMsG7QPdl2/tNw5kn0H10O0beG6sjXkzAJkAmhIACy0ByJR/29g1ffnMbZj3IOjPrdtToCce9JJFa/YpVG4JIv8WTF0C0NPy2upAQOywBCC228au6ctnW/4/vCWB1tj31/m1D63Zp/DdL79Zwimo0NB0IXAOAiAAAisQ2IQACDcBygY/wyPYuBcGZyLZR+A2ERa+eLBM5ZnhaL3bWFhwUFebET3BoTf6vfU3Cg42AQb3M5Xqfw3QX1vvvrbXLQ/YzXx+HNlhE6DZSOi+Cqg3CfJIvub9Bjro+/YL3p+g9wSYLQluc6Kxq/ccZAova/hmY16/CbA37762pzbY8UZBv/w7bAI0mw3dVwFdQJcNiLzRkM97EeDbL3jGQu8JMOX3NzH2/tvy242c00VRnhqeAAEQAIE8gW0IgMnr5fkC44ltEdCj5215PtXbdrBpcmpKPAcCIAAC+xA4XgEg0+fd5rnh6HyfgiPt8ROwXwOUkT/+OM/x1xg8BAEQ2BKB4xUAW6IIX0EABEAABEBgYwQgADZWYXAXBEAABEAABJYgAAGwBEXYAAEQAAEQAIGNEYAA2FiFwV0QAAEQAAEQWIIABMASFGEDBEAABEAABDZGAAJgYxUGd0EABEAABEBgCQIQAEtQhA0QAAEQAAEQ2BgBCICNVRjcBQEQAAEQAIElCEAALEERNkAABEAABEBgYwQgADZWYXAXBEAABEAABJYgAAGwBEXYAAEQAAEQAIGNEYAA2FiFwV0QAAEQAAEQWIIABMASFGEDBEAABEAABDZGAAJgYxUGd0EABEAABEBgCQIQAEtQhA0QAAEQAAEQ2BgBCICNVRjcBQEQAAEQAIElCEAALEERNkAABEAABEBgYwQgADZWYXAXBEAABEAABJYgAAGwBEXYAAEQAAEQAIGNEYAA2FiFwV0QAAEQAAEQWIIABMASFGEDBEAABEAABDZGAAJgYxUGd0EABEAABEBgCQIQAEtQhA0QAAEQAAEQ2BiBTQiAv//8RO8vLuji4oLef/qT/t4YZLgLAiAAAiAAAsdG4PgFwN9f6P3Fe/piov7f9OX9BX3602H885MRBSwMun/vP9GfOyiEPz+9721cvO/zOLYagz8gAAIgAAIgsACBoxcAf395T+9t9LfF5dkA9Znvd4KAiHi24OL9l3loWGS8/4SZhXnU8DQIgAAIgMCGCRy9AOCRuY33f9Kn924ZICMAeJmg++/vPp1dQvjiBfo/P6nZA5lJ8ATE3/RFzQ68f/+FlHWS9CxK/vzilip4FkIcyOQvj+EIAiAAAiAAAocksBkBwIH2Ewf+yAxAN/1vArgIBovxy6dgZM8B+VMwQ2BmAIJrrha+vPftkQnovohgny4u3tv9Cbz88Pef9LdbhpiU/yFrHHmBAAiAAAiAABFtRgCYQMzD6ogA0AN+G6Bd0Db7ByIj/As1QudmkBIAfN0zbttMPyvh2lDgU9eypubfJcAJCIAACIAACByGwGYEgAnSkSn6cA8AY+uv8fR/fGTv4V1LANDE/D1n8AEEQAAEQAAE1idw9AJgsAkwYNIHe3eDp+gv+m8K8Gj9/ZduRT5ILWl4E2BcKExdAtAbE3Umk/LXCXAOAiAAAiAAAgcgcPQCwI785at9/DVAtSYf+xog/60AtUmQ6G/iINztE3jv1uodXP5aYXdPZhi8af+xTYBWbITpveSZ/A9Qx8gCBEAABEAABAYEjl8AmCl9/w8BDUqBCyAAAiAAAiAAArMIbEIAzCoRHgYBEAABEAABEMgSgADIIsIDIAACIAACIHB6BCAATq9OUSIQAAEQAAEQyBKAAMgiwgMgAAIgAAIgcHoEIABOr05RIhAAARAAARDIEoAAyCLCAyAAAiAAAiBwegQgAE6vTlEiEAABEAABEMgSgADIIsIDIAACIAACIHB6BE5XALSf6ap4TZfFa7pt0hX3XL81z/Bzl9VD4sEHui1e01X9M3H/pS9P9K/56Mr6kR5f2mUiaqrC/BoVN8Kybqmty+5zUdY7eViXJdWtStrWVJY16Uvq7vRTtuP8nJ4IT4IACIDA8RI4XQFgmNvAOCYApGoeqzEBIE+dwNGIgMMKgLqsKKXBmioI2NRQtWPwp6aiohrmxEIjcnlWZbI4YZGC/0AABEDgVAgcrwDQI/j6M92WdjR/WX6kR9MP/6R7uVY9kAngbsR/WUiAcyPjUo3yy490H+nHUwIgP0Pwk+4rZd/48Daah9doVPm6WYpuhK5nLnz7V9VnV35rLetf+9Cz41kMw0L4eB4lPrRUV/3IvKxKM6LuHm45YKuRfKVG227UzI1M/9PBeEwA1MZuSXVdmdG3sVFW/gi/c4SIn9e2u1sLzAJAAHQ0cQICIHAiBI5XABjANoCbgO6Ctg14fYAdBG5vhBtJb+736aUeB3bkhjvG7zsRUn6mZ3neBfEpsw5ELr1aejD5dPac/9WDs//TCZ1hAI/75wSQLF2wGDACZZhe3A+PNvA13RR6y6NsNUKvq6q7Z9KyIKj86ft9ZgA4qJcsKjrR1lLcXkNVkZpp4HvhTENY0vHPEADjfHAXBEBgewQ2IQD8YGqDpqzHDwJfRACMpZcqG9iRG+4YvW9G8aGY4CAbXguM6Y/aXzcr0Pmr73VpbBDvnhnxz4ilTky4B6M2O+ORk2CEz9P5EowTI/wiCMTxgG2zGpsB4CcGa/pEZq/AYKRvfAnEiCpNcnZAPZM6bc0MRNmXO/UgroMACIDAhgicoQAgO4pWo26ur2iAVxUZvR8VACrRpNNe0AwCdjRYH1oAqEK0vFFPzwBMW6+fJQDcdL3kegwCgH3BDIDUCI4gAAKnQmATAsBbAjBBsR9he4G5fXD7AmSK2015l/26+XPzka4iI3TPTqR24/f7KfxuCcBM67+d940BUya77i8zG9YF57+3BMD7DaR8vaNR/7oZBffthQGfPn3qjANw1Q35iXgJoFTDbx7Bl/Vw4522p4O4HU33I3UOrHrjXvgZSwCaJM5BAARAYDkCmxAAt8EmQH8Tn9rkxhsEa/mqm9s0yF8DrDjoyybCt3TfyNf5XICVe92xFxhE4TP6HleEv0mPN/TxRr1eEEypLMljGNiJg7baZHilxIy1LGmlvIF/rb+B8r7jEzyXcJNH75XaBFjoJQCTpiUWAdyQzL+yNAJBVgn4ESMauvtqCSGS3qz3K1+MeGjUMsQg//7h5DQ/NgH2kHAGAiAAAo7ANgTA+AATlXnCBPTsQbaYK34NkNx+B3wVMFsLeAAEQGAjBI5XALjpa/MHembuXN8Ie7iZIcAj+n5mwf9mQSrpQDAsMPpP5YXrIAACILBlAscrALZMFb6DAAiAAAiAwJETgAA48gqCeyAAAiAAAiCwBgEIgDWowiYIgAAIgAAIHDkBCIAjryC4BwIgAAIgAAJrEIAAWIMqbIIACIAACIDAkROAADjyCoJ7IAACIAACILAGAQiANajCJgiAAAiAAAgcOQEIgKOqoH+oKv6govzrqLzasjPe3xIwf42wpKrWf6dwydLxrw4W3q8lLml9iq3w7yC0bUMN/5gR/6riGuVuiP6vIPq/iuh/tT3/xf3JBvls7vMz6t9va1XBFEjqmd9K3y/28ddpf3JCWZl++iszKKc/v/eTI/Wzt202MGa/JfpF1bmp/5Lo9yOpe13+3ysiabf6+lLnq9kf4z/BeQiACZAO+8g/VC0sAOryO7+nZ/pf+DPBLdXVfj8NPA5y2g8kjdvw7479mJL3ZOIvIZpn+Dcc1hAArpM3nafrjH51jY0FgHSq3AHKdQ66SwoAtve7B2LeBw7KOv1v1bL+hd78urAAGC3/SP2Efu30OWef20SlLPPze9aXsnYUp6P81/Ywxz+TPwTACKC6/IOK4oHq+juVPDI3o/PvpPvRprLXy/pfauQ5L+D+S3X1YNMWf1BZ/uUH45YDvrNdPFDV9AKgrW06+e0dnVfv9r/UKPs8e1CVD9bH9q/eb/G/+IPEXm8jfmZ+mEf+hn9wnBJMzK8b8l9xrD67H2l6TZflR/J+y6FVv+XAz/LvOfAIQf8lyO4njd2PL5m/DDnttwx4iFIFP0/M5RIGTWX/2iCXx4yUzQi+UnVkBQO/KPyvLGt1z/zQAVXdXyxku70AEH6xvHri4W8p1FSVTqC4Pz8sectR7PU27FnytxD49soCwAR3JwBiwV0LAM/vlogDoswO/MIzCd4DRByQ9X0OIOY/1/nJPTmK0AjMJD+GAoCFi9hgv9kuC5nfWdC4EXwoGCTvQXALysd2RQDIDEksL+2s+GDyKG16w3hK+d0zJo+R+tH5zTrP2Q8FANmZIhGGFPCZVf/O0SQfIpJ7yfpzTKSOddk5sPP136TeXd137XsK/xH7kpfXvpU4kvbBTLqZFHXfpM/xl0wSR+5Txv4bvZtLPGZ4K/dYBJTVX9R201b/0mBE3Xw3QqGs/rHPte5ofs/eBWMpsAn4f3G7JyIO9t/V78y7YK5mAFgEeB1+851YbMh/HPyrpv9MbJ9FS+cvDf2VxAc4ml8p5F9fdD/A5P3kcfhrhURkRYML7t0vP/a/uig/znQ7eUojFAAthdPkHByLwv2IkREfTVffg2dbG+AtXj7XP27kgnnZzyFrsWFwB4GYf0hJ/9oisf3Cn6GYNgMQljOo3CDf4O5eHzmA6oCkg6MY5o5YAp1c4yN3fl7A54CgRowyiyDP/I87VBEAztC+I7BQALC9rpPnPFwnboKTaR9E/3Pv1+BZF9DEXw72esrbBCTlvxYbpjhNP2vCnwfc2L7wnlj+7nkXLGL140ztdBi1z+xUfZoM1LV9638Kn7H6kwJLO5PPcuT67erdXQzbW/hZ0urjmH2vrQXth9Nxe5c2xOXtxJPLYJS/diJynovhEAAymlbwckG5e5RH4NU/3Uc54aBtAnQQzM19TjNZAPSzBWI7dhwIlthDkWsygpWRpz5OmQFgk4OfKTZB3f7qYTdDYEb08muG9mgDvP2lQ/41SPtrjm/J/pph5FcTI/7bSxwY1W8KFEHA5YdSwZFH4J76chZlCSGWzv32gLgzLgD62QJ5PnacJADMbEH/M8sDOzFfBw+td2HQUXNWiREUj7p0kPJmCFRnKN5O6YDl2diRO1AzunbHgVAJgnJng/0Pg5sL2qZTj6XjNDMEgMwWdHlGTvYtf8TkcpdUsO+MyrUF6n8KHxYAYdDsfHEnkwO0m8HQbWQK/6j9XPuJ5DWlLGHZxj5DAIzRiY3gud/KjMo7kwcSAG4w0mUbnuwqAEI7u3zOC4DxYG5nEFgUvO1/0rl6mOFKZmTMllLB8UACIF9/ekkiUfQtCgDqp8MTpfIvt26joQqg/MCUDtg35H9iAaAFh3/XzgBEA0iuA48Fnh0EgMwmDPxyF/Ytf8ruItcl2CtjOhhOCuCSNlL/nD7HZ0rQ1D5Jdnxktt4IPRKUp/CP2s+1n0heU8qi/c+dQwBkCE1dAtDT8tpkHc4g7LAEILbbxq7py2fOh/cF6M+t21OgB67ah9bsU/juliC0p+ucjwmAbp2/eqBnl/1z89EEepni72YJ+Jn6LfGvQ17VP2c4u4cAMALQn443U/Rl7fhNWwKQ2ZK2qankfQRqfYb3IOjPvGuf9xT49df70PKO/iI20s+UMyVymKRZAimo0JnOIDzl0egMgBstR4OrM8qdqx5t8RJAOOrWnbTpaIsJQUE5vbMAiAWIYAqXA5RM33KWzEEvYejAYMrm9huIe+GULy89sE3NZN/yr1r/oQBw/ovgCssn5ZZjrv7D9DE+U4KmrgfJm4+c/5QlABEJqfY3Zl/SmnyD9sPpdF1PKYv235yPvN8QAANa/gUTPM3GvH4TYNMN2dzX9tQGO94o6PejO2wCNJsN3VcBXUCXDYi80ZDP+6Dv2y9YcOg9AWafmr+JsfffL+vSnyRgm5905lF7bGPfYBPgW7qqPneCQNIYQWDST938Z0vjfw2wD6T2brg8YJcK/PrbYROg2Ujo9gG4gG6WT3i/QM37DXTQ9+0XvAEwqKCWg7csY3h7Dvwai20ClE2OJv/ORr9HgS3YZ0I2vu2dP3EACKbYpfMXmyYoyjPS4bqbJgCoTYB6PVTSS+A0+QQBV55JHdm+9s/rjHmGQvxSR69D5iCh/Ju0CZBtySyG6/A734OvUrLf2j6n+y3Y/7JP+dn+avXPI1zFrStj13/aWtm3/sf45Oovdp/9lDbK7YN5s+hK+T/GP2c/rF/dfjj4mzz5q6lc5+pdGhPNlmr//7H6hQDoOUXP9Og5+gAugsCxEBj7GmDSR94UqQVJ8kHcOEkCqP+xajUCIBAsY88f373x+oUAGKkx+zVAGfnjj/OMoMKtIyEw+NZCzi+3dyAYVOZS4f6pEED9J2vSmx2SGZvk00d6I1O/EABHWm9wCwRAAARAAATWJAABsCZd2AYBEAABEACBIyUAAXCkFQO3QAAEQAAEQGBNAhAAa9KFbRAAARAAARA4UgIQAEdaMXALBEAABEAABNYkAAGwJl3YBgEQAAEQAIEjJQABcKQVA7dAAARAAARAYE0CEABr0oVtEAABEAABEDhSAhAAR1oxcAsEQAAEQAAE1iQAAbAmXdgGARAAARAAgSMlAAFwpBUDt0AABEAABEBgTQIQAGvShW0QAAEQAAEQOFICEABHWjFwCwRAAARAAATWJAABsCZd2F6VwI/7d3Rx/7RqHjAOAiCwDgG8v+twnWP1pARA2zbU1BWVI79v3rr7RVFSWQ9/6Dl3fw7cwbMN0f8VRP9XEf2vtue/1IOnjv9CS/RLQfT70p7O4vONPlxe04+ID9yxfHgMbjxe06vLN/6/q2v6+hw8d6Ifmcmg/IbHO7o5EwZTq/br7ZuBsORrry7BagrD6Ps3SJh+fweP4sJqBE5KAHSUmioa3Cm83lRU6R9Cz93vMtjxxAVOE/RdsPtV509E/BvUiwdW5e7a9lVW808n8BGjsdHDj8c7unl8ItsBPZF81mm0MPjBouDqTm6f9FHz4mAmHG6ulg1qNyyqViSZs5+7v49rS7Ba0799yrZEWnnfUu+fzkO3R30d54clcFYCoKlK8gb9bU2lUgC5+3tXjQtwJug7AfCbTEK4e2aGgGcJ3D9PILREv5b9vV94JiFw6rfKv/9L6R6YYj+wFX5k8SB+8VHPXsi932o7O2CeK4m68jljnf8sdMJZkDE+njPp0cOP52/04eqNCezh6N52TL0hFgAXt9/6CyNnN2yTR4D313QhMwlX1/7o+fHO5u1G1h/ufdt2FGlHl1/Fjg6YyfRcXi7TtbN/TV/Zd3etD7hPdHPbj/Qvbt/RRUTgaAHgFVnYufJd3N4FMwwYDxoAABsXSURBVCwj9p/vei4uPc84iNDw8kl9SJafiHL2c/eJKM+/nyWKLS0ZAaB9VDNI3LZ0eXVeprgT/KMs/xQ4e1188GZ6vPoP6u/qrhNrkvbi1m/ffdviOnDvVrJ9EI29f7336fe3fwZnhyAAAVD2c/BRAaDuL1EhvxYuKLpgF472x0boHNy9gM+CoOq94mUFDsryzP9YZIgAcI+N2e8tTThrfAHAKdi2ESUiaoIZDb7/m8x4tO75Hr/JNMeHH+LOKtZByz0e1cdGa9LJ9R3kvNEviwATFLsp8yfyR3RP9KO7ZwPOIACapYh3RniYZ5+/qTQj6U0Asf7+uOdAZZcvvt72yx2Wy7cuaKdmOFIC4OY2WFLhDv+2nyGZYt/nYap0xv9Gyu+s5Ozn7tMof5tJqn0ZEXh119eXCYj9jAen8+qbRVqwR2XMvxz/HEgv/+dvdBHM7gzeCeN/L/I4PYtMEc7ctrT/U/yzNuLvn/jPz2i7ch3HwxOAAFAB/hACIFfFyQCdGMHzSFuLiG6EXRDx6P93FYw576T9nGPh/YQACEf8LErMLAb7H4gRitgIsxl+tqMHb2SiHvp670Y13LkFI3Cvg+Q0pgMUEeBG2Wr0aoVC38EPOlAnRrpO/1nPALyhi6vICDgSFDr3x9KzAJDRHAcxN3PhlykYoanOvMvDjYQ7n+VGYoRqhIY8Q3n76QCX58ujfDN7IyPMCL+0fetk7j4LgFzwSQWoXP37dUEUyyvpX5b/BH5ST0osyiUzgxKZ7eIgL3tARv3P+mdzGnv/7BPj72/nL04OQuDMBEDhr/kPlgDG7x+iRsYCNAf3yf+1bqNhkGbM/mTb/GAkeLPttQVAqnOe4vuggwsDeMbIeADgju2d2YMgZmL5xYKCfT6TnjvgrACQnFnc8F6I+B6H+AwAB/d+tK8sxU8T9pMBLm5FXc2U3z2Zs5+7n+bfu5JqY+P1b2emPGEVERtp/2by7931z2LBn5/g6/sIACP+ZrQP36vuU4pt9wBODkrgrAQAtTVVahMAj/jVFgDK3ueqaSpiaIWXcLk600HUTOkX/ZT+79Vw2l3nzGn1ngFeAuApef3fmH15jqfhw5kFudcdEwIguwQgMxKJJYDOfvTkyez8T43+o0nUxUFA5hmAGevUo0sAJkBfd9PDvCGKR7NeQGBfIkHBuJhLb+67DjgxA8AB6sNj/7XI1B6HuADgJQuemvX3LSh8ZlklZ18HSRYgF4lvami7k8rvEuTs5+4n+SuHUkEqXALgOr5Qezh0OnPvcvhtgjH/cvyVi/FTbiPeNxV8UaHzNgYiSwBeew3a6t7+0X7vb7zQuLoPgZMSAE1V2ODMAVr+qSl+BsVf85N7qa8Bjt23eQSbCfepgSCtCdqyCTAyhc8iwGyw42dkzd3ZMAIguB8uAeTss6l9BACv8XfLEBH/vXtuz0KAIPlRd7DJh1I3zNpv8DXASAedSs7XTQf6qKbBgyl29k/2F/Bega/ms0yxWrEh9+WoO9x0epWWR3GuLDyVLWnYDo8uP6hNgHo915RrwKBf3rDlfjIiQHx7deX2KjgoWfs8o8JBQ5ZRAj7OTPIgZeH8h/xsspz99H3FUPzzxF/8viyB2E19PMOjNjuG5TMB1bUxvmf2avgiIO0fl2+cfxKcu2F9DNq4N6uT3wTI7E2bVG2lXzLZzz+u395WrjS4fwgCJyUA1gfWUj3yNwbWz/94cpANh9ojPbugr6fO+VsA+psEqefsdd5wJ8F0/Mm17r50/muVC3ZBYH0CL//+rl/G7eUAATCnznjPQFHx8vdZ/iczAzwDEX4FkYO/nplIAdLPhTZSaY7hupn+lZGjN6o6Bu/gAwiAAAjMJwABMJ8ZUoAACIAACIDA5glAAGy+ClEAEAABEAABEJhPAAJgPjOkAAEQAAEQAIHNE4AA2HwVogAgAAIgAAIgMJ8ABMB8ZkgBAiAAAiAAApsnAAGw+SpEAUAABEAABEBgPgEIgPnMkAIEQAAEQAAENk8AAmDzVYgCgAAIgAAIgMB8AhAA85khBQiAAAiAAAhsngAEwOarEAUAARAAARAAgfkEIADmM0MKEAABEAABENg8AQiAzVchCgACIAACIAAC8wlAAMxnhhQgAAIgAAIgsHkCEACbr0IUAARAAARAAATmE4AAmM8MKUAABEAABEBg8wQgADZfhSgACIAACIAACMwnAAEwnxlSgAAIgAAIgMDmCUAAbL4KUQAQAAEQAAEQmE8AAmA+M6QAARAAARAAgc0TgADYfBWiACAAAiAAAiAwnwAEwHxmSAECIAACIAACmyewWQHw33//bR4+CgACIAACIAACL0UAAuClyCNfEAABEAABEHhBAhAALwgfWYMACIAACIDASxGAAHgp8sgXBEAABEAABF6QAATAC8JH1iAAAiAAAiDwUgQgAF6KPPIFARAAARAAgRckcLIC4Mf9O7q4f3pBtMgaBEAABM6TAPrfbdT7iQqAb/Th8pp+ROqAG+aHx8gNeqKvt+/o1eUb8+/i9o6+Jp+NpdfXOP839OrqTl9c5Pzr7Zv9hM3zHV1cXtPXRbxZy8g8fszk1eU7unley5+M3cfrrt3o9hNrfxlL2dt71382h9gDrj7cuxFt14rBSwjvmyv73gp/bg8fVhsAzGufMaJzrnGf1ZdLl/PwbT7df+oSMZ94/6ufwvnLEzhJARBTnz8e7+jm8YlsA34i+SxVwMH/5lnNGDw/EXcqcbEgqcaO3+jDCgJgLMeXvndztaSwmMfv5urwnaHm7bc5FpPzhdqy/LR3C52zeLy6M0I5JbZ8Dn6+65bPBp1e2D7RjXmnfR+W+zSvfU7JN8VHM+V2JX3S0m0+lT/7Lv1lqv/U5dP+6us4Pz4CJygA0urzxzO/tHZk/lWPFrlju/2WqR3boYgSNx2hTiG2zSiJZxmCDsK7/4Z4hmHWCHFkhMUvHPt1cXtNF90ozQ/G4QhpMErL+ufPkPAo8IMEXTOroEcm9lw6KoMpZ9+7H+GnWUfOTWf4yD45P1iMSB13/vUiQZj5o9knO3OzwwzJoNML25T2zYxOVXvr/PMZevz2rH8i1/bNzNQ1fb23sxaDdhBhK5e4jManx+vkLNSAAyeeUj6v/ofvh53lsaKKfTft3BOcoQAgJ/at9/n0u7/f0pakvnRewo6CGcbZ748zpAVAb5sZq/o1fUHYvwTlu31nxJyxMaV+WARIHiwC5d3ynOAP6f538CguvDiBkxMA0Q7IYTYv6tUdDZTzSIcmNTRIY14Gecn45VMBR152NQNwcxtMiXH62/lLBKny2bL1PvCMRrJzj5Q35x/b+/CoZ0j4Re8DKnMaG0GM28/zk3pIHY3AubqjH9IxmfpRImhQZp7hUfeN4YUEgJk9csGyc/ip943IzBBIwJBHhv7Inf64a/1bgeTqz81uJdtHn506s7ysaH0ys1sxAZvyjw2NlW+8fTg3jAh6Z8S6qefnb4ppKADYX7990kj6wbMz328ut1efQXvb9/2RikgJgBw/Wy/fukHHD2ah+qdc/fB9tsFpBqzEOffMvHalEuP04AROTACEnYDP8+v9nV375pf7Xo3AgpfVT+VGMJEZArtsQMQdy6DRs6qWFyyhsF8tMdJ0zuY6IK9Mob9Z/zhA58VKsoPP2Q/9YWc1P8/5+IdYp+QzCQJ+LM+46UlXTecosy88wtdiiS08q9kJHqFFlpeS/JQHnM+grbmONxmAYiy98vN7488+2JkuJZD4efUO2ICmHHOnKf/4drJ8ufYh2Xg+y0U5hmWI1EEqPeevyiYWJ7/fOf5m9mWP90ccSgjH1AyL378EMwTegMVmkKwfl3+y/+z8G+9/u8dwcjQETkoAjHU+o8RjHaROsHcHMS2A6ixT56ky8vVkAAiNDTrCnH/2fmzEp02nO5CM/YE/awgALdQCMaALseO5rhceXV14swvcMb4ze1DE/KC+xgKkJBoZYQ3saaax9q3vK/upU5nWliUwc4wETc0htLVz+xBDoz5PCD6p9Hu/3/5yg3HXy2vf90cAxGeO7PJOXmB0Vp55L9T8GYAufeJkrO4TSXD5hQmckADg6Vs1YpkJltW+N7IyU4B9UB2MMGdOEVr7atZhpn/yeOolGw0AkliOXudkL+b84wCg+ch6oBYdmhF3MPxtAxEN4/a5g+yXL7r10gmzDlKkcAmANy35QZiftIH/hn2L7hBfaAnABepXEiBNAL7upqvZN96roNmxd2P8pJy71r+2TbOXAGIBLC6iUv7lyjfePlzpI+1WuMjac78JsL/TnY2k9/hwgpnvty63aXs8y6Pa2L7vj5QhtQSQ48fl07NSRqRK+3TGNYPw/ZX808f9+t+0XdxZk8DJCAD9Au4KzDb6fhMZf2ug/y/YRMMbYfqbwSYcftnclGQXxMJNdG4tU9tInjtbg2laK3i47DIyM0FlZMOYySLaEeb888v/itdXPT68UzjYhCjr8SbTjH3T4co0dIxfEo5ZTzdfA+SgL4w8QaHSGjYpoSicU/eVHX2qePfrqhwg+6+C6jqSr5iGX11M8xO/hI8c59Q/B/G+bZuNdCpA6eJ45yxehGm350P7w+vs+rP4xkefY7p8nONY+4jb1wLK3+QarP2bjWnaL3uu0xtxqL8GPPf91u2X295gk+We749uY6Y+fLbj/OzyywdVvleR92O8frxWMfiwRP87MIoLqxM4EQHAnW340q/ObrMZnPXLGhU/m63KnR3nv3GhR6g7G0JCEDAza+h/t9gQTkQAbBH9IX32R1Czv4J4SFdXystfwz7PzkqPks+xDazUtGAWBDZLAAJgs1UHx0EABEAABEBgdwIQALuzQ0oQAAEQAAEQ2CwBCIDNVh0cBwEQAAEQAIHdCUAA7M4OKUEABEAABEBgswQgADZbdXAcBEAABEAABHYnAAGwOzukBAEQAAEQAIHNEoAA2GzVwXEQAAEQAAEQ2J0ABICwa2sqi4IYiP1XUSP3Fjk2VJViu6SqbgdW27qi0jxTUhm5P0iACyAAAiAAAiCwIwEIAAHHAqBaNuSLaT7WZUlV44J+27rP6omm8oN+U9GK7qiMcQoCIAACIHCOBCAApNZXFgCSjRzbmgWBfCJqqpK8Qf+B/ek9wRkIgAAIgMA5EIAAkFoOlwDKimTALo8sduS8ypr0IkBUAJT1YlnCEAiAAAiAAAhoAhAAmoY+X2sE3tZUsbjQeVFiBgACIKCEjyAAAiAAAksRgABIkuRNe8uOwM0mv6rxRv6SfVMV3pIArSVAJEMcQQAEQAAEzprAaQmAprI7+PXi+sTq5U16Zd2Py5u6pCK0s7P9lurK3/kf7gHggK+/GcBLAmH2E4uCx0AABEAABEAgS+CkBACPoosi2EyXRSAP2CDNQPhfWflr9PzUzvbD/QUujzDA8wxBl7+3I1B8xBEEQAAEQAAEliFwQgKAv1pX+F+lW4aRs7K2/UWdhTEQAAEQAAEQGCVwOgLAjLKHm+tGSz/n5tr25/iCZ0EABEAABEBgTwKnIwD2BIHkIAACIAACIHBOBCAAzqm2UVYQAAEQAAEQcAQgANAUQAAEQAAEQOAMCUAAnGGlo8ggAAIgAAIgAAGANgACIAACIAACZ0gAAuAMKx1FBgEQAAEQAIGTFQA/7t/Rxf0TahgEQAAEQODABND/Hhj4jtmdqAD4Rh8ur+lHBAo3zA+PkRv0RF9v39Gryzfm38XtHX1NPhtLr69x/m/o1dWdvrjI+dfbN/sJm+c7uri8pq+LeLOWkXn8mMmry3d087yWPxm7j9ddu9HtJ9b+Mpayt/eu/2wOsQdcfbh3I9quFYOXEN43V/a9Ff7cHj6sNgCY1z5jROdc4z6rL5cu5+HbfLr/1CViPvH+Vz+F85cncJICIKY+fzze0c3jE9kG/ETyWaqAg//Ns5oxeH4i7lTiYkFSjR2/0YcVBMBYji997+ZqSWExj9/N1eE7Q83bb3MsJucLtWX5ae8WOmfxeHVnhHJKbPkc/HzXLZ8NOr2wfaIb8077Piz3aV77nJJvio9myu1K+qSl23wqf/Zd+stU/6nLp/3V13F+fAROUACk1eePZ35p7cj8qx4tcsd2+y1TO7ZDESVuOkKdQmybURLPMgQdhHf/DfEMw6wR4sgIi1849uvi9pouulGaH4zDEdJglJb1z58h4VHgBwm6ZlZBj0zsuXRUBlPOvnc/wk+zjpybzvCRfXJ+sBiROu7860WCMPNHs0925maHGZJBpxe2Ke2bGZ2q9tb55zP0+O1Z/0Su7ZuZqWv6em9nLQbtIMJWLnEZjU+P18lZqAEHTjylfF79D98PO8tjRRX7btq5JzhDAUBO7Fvv8+l3f7+lLUl96byEHQUzjLPfH2dIC4DeNjNW9Wv6grB/Ccp3+86IOWNjSv2wCJA8WATKu+U5wR/S/e/gUVx4cQInJwCiHZDDbF7UqzsaKOeRDk1qaJDGvAzykvHLpwKOvOxqBuDmNpgS4/S385cIUuWzZet94BmNZOceKW/OP7b34VHPkPCL3gdU5jQ2ghi3n+cn9ZA6GoFzdUc/pGMy9aNE0KDMPMOj7hvDCwkAM3vkgmXn8FPvG5GZIZCAIY8M/ZE7/XHX+rcCydWfm91Kto8+O3VmeVnR+mRmt2ICNuUfGxor33j7cG4YEfTOiHVTz8/fFNNQALC/fvukkfSDZ2e+31xurz6D9rbv+yMVkRIAOX62Xr51g44fzEL1T7n64ftsg9MMWIlz7pl57UolxunBCZyYAAg7AZ/n1/s7u/bNL/e9GoEFL6ufyo1gIjMEdtmAiDuWQaNnVS0vWEJhv1pipOmczXVAXplCf7P+cYDOi5VkB5+zH/rDzmp+nvPxD7FOyWcSBPxYnnHTk66azlFmX3iEr8USW3hWsxM8QossLyX5KQ84n0Fbcx1vMgDFWHrl5/fGn32wM11KIPHz6h2wAU055k5T/vHtZPly7UOy8XyWi3IMyxCpg1R6zl+VTSxOfr9z/M3syx7vjziUEI6pGRa/fwlmCLwBi80gWT8u/2T/2fk33v92j+HkaAiclAAY63xGicc6SJ1g7w5iWgDVWabOU2Xk68kAEBobdIQ5/+z92IhPm053IBn7A3/WEABaqAViQBdix3NdLzy6uvBmF7hjfGf2oIj5QX2NBUhJNDLCGtjTTGPtW99X9lOnMq0tS2DmGAmamkNoa+f2IYZGfZ4QfFLp936//eUG466X177vjwCIzxzZ5Z28wOisPPNeqPkzAF36xMlY3SeS4PILEzghAcDTt2rEMhMsq31vZGWmAPugOhhhzpwitPbVrMNM/+Tx1Es2GgAksRy9zslezPnHAUDzkfVALTo0I+5g+NsGIhrG7XMH2S9fdOulE2YdpEjhEgBvWvKDMD9pA/8N+xbdIb7QEoAL1K8kQJoAfN1NV7NvvFdBs2PvxvhJOXetf22bZi8BxAJYXESl/MuVb7x9uNJH2q1wkbXnfhNgf6c7G0nv8eEEM99vXW7T9niWR7Wxfd8fKUNqCSDHj8unZ6WMSJX26YxrBuH7K/mnj/v1v2m7uLMmgZMRAPoF3BWYbfT9JjL+1kD/X7CJhjfC9DeDTTj8srkpyS6IhZvo3FqmtpE8d7YG07RW8HDZZWRmgsrIhjGTRbQjzPnnl/8Vr696fHincLAJUdbjTaYZ+6bDlWnoGL8kHLOebr4GyEFfGHmCQqU1bFJCUTin7is7+lTx7tdVOUD2XwXVdSRfMQ2/upjmJ34JHznOqX8O4n3bNhvpVIDSxfHOWbwI027Ph/aH19n1Z/GNjz7HdPk4x7H2EbevBZS/yTVY+zcb07Rf9lynN+JQfw147vut2y+3vcEmyz3fH93GTH34bMf52eWXD6p8ryLvx3j9eK1i8GGJ/ndgFBdWJ3AiAoA72/ClX53dZjM465c1Kn42W5U7O85/40KPUHc2hIQgYGbW0P9usSGciADYIvpD+uyPoGZ/BfGQrq6Ul7+GfZ6dlR4ln2MbWKlpwSwIbJYABMBmqw6OgwAIgAAIgMDuBCAAdmeHlCAAAiAAAiCwWQIQAJutOjgOAiAAAiAAArsTgADYnR1SggAIgAAIgMBmCUAAbLbq4DgIgAAIgAAI7E4AAmB3dkgJAiAAAiAAApslAAGw2aqD4yAAAiAAAiCwO4HTEQBtTWVZU7s7C6QEARAAARAAgbMhcDoCgIiaqqCqOZu6Q0FBAARAAARAYGcCJyUAKDsL0FJdFlQUFTWYKti50SAhCIAACIDA9gmclgCghqqipDoZ3CEAtt9kUQIQAAEQAIElCJyYACAzwscywBJNAzZAAARAAAROmQAEwCnXLsoGAiAAAiAAAgkCJyYAMksATUVc4AJTBInmgMsgAAIgAALnQuC0BEBmEyB/S4A3ACa3CJxLraOcIAACIAACZ0/gpATA+NcA28wGwbNvCwAAAiAAAiBwRgRORwBkRv9nVKcoKgiAAAiAAAhkCZyOAMgWFQ+AAAiAAAiAAAgIAQgAIYEjCIAACIAACJwRAQiAM6psFBUEQAAEQAAEhAAEgJDAEQRAAARAAATOiAAEwBlVNooKAiAAAiAAAkIAAkBI4AgCIAACIAACZ0QAAuCMKhtFBQEQAAEQAAEhAAEgJBY4mr80WFbULGALJkAABEAABEBgTQIQAAvTHf9rhAtnBnMgAAIgAAIgsCMBCIAdwaWStXVJ+K2hFB1cBwEQAAEQOBYCEAAL1wQEwMJAYQ4EQAAEQGAVAhAAS2NtKiqLgsoavzm4NFrYAwEQAAEQWI4ABMByLI0lzAAsDBTmQAAEQAAEViEAAbAwVgiAhYHCHAiAAAiAwCoEIAAWxopvASwMFOZAAARAAARWIQABsCBW/B2ABWHCFAiAAAiAwKoEIABWxQvjIAACIAACIHCcBCAAjrNe4BUIgAAIgAAIrEoAAmBVvDAOAiAAAiAAAsdJYLMC4DhxwisQAAEQAAEQ2AYBCIBt1BO8BAEQAAEQAIFFCewtANgA/oEB2gDaANoA2gDawPbawJiiKMZu4h4IgAAIgAAIgMBpEoAAOM16RalAAARAAARAYJQABMAoHtwEARAAARAAgdMkAAFwmvWKUoEACIAACIDAKAEIgFE8uAkCIAACIAACp0kAAuA06xWlAgEQAAEQAIFRAhAAo3hwEwRAAARAAAROkwAEwGnWK0oFAiAAAiAAAqMEIABG8eAmCIAACIAACJwmAQiA06xXlAoEQAAEQAAERglAAIziwU0QAAEQAAEQOE0C/w9xPlKQ5BC/rQAAAABJRU5ErkJggg==;" vertex="1" parent="6wW6lBvhg6wL6kc6Jvn_-17">
          <mxGeometry x="480" y="50" width="512" height="265" as="geometry" />
        </mxCell>
        <mxCell id="qvFa3PDqAJ5_tdk628x6-28" value="" style="shape=image;verticalLabelPosition=bottom;labelBackgroundColor=default;verticalAlign=top;aspect=fixed;imageAspect=0;image=data:image/png,iVBORw0KGgoAAAANSUhEUgAAAc0AAAHpCAYAAADgeGc9AAAgAElEQVR4Ae2deWxcVZ7v6x8EWQhrhOYPEBCBAvlz0EiUhAQSM2wDAygswxJAQEFYIiAvJIDZCcnAIyokhBqkpxeYLDiDY8eZlLpDaKDpfk13EjtOnDh2eYkdOxaQxYljTGc6/j6du1TdurW6Fqdc9bF0qXvP8jvnfE61P33Ovc4NiB8IQAACEIAABHIiEMipFIUgAAEIQAACEBDS5EsAAQhAAAIQyJEA0swRFMUgAAEIQAACSJPvAAQgAAEIQCBHAkgzR1AUgwAEIAABCCBNvgMQgAAEIACBHAkUTZqBQEAcMOA7wHeA7wDfgcn4HcjRmcV7etZA4gcCEIAABCAw2QiMx19FM914Gp1sQOkvBCAAAQhULoHx+AtpVu73gJFBAAIQgEAOBJBmDpAoAgEIQAACEDAEkCbfAwhAAAIQgECOBJBmjqAoBgEIQAACEECafAcgAAEIQAACORJAmjmCohgEIAABCECg7KR5sv8zjW4+X79sPE0jjeY4Xccbz9DIV7N1cmQfMwYBCEAAAhA4ZQTKTpqjX89KkOXxxik61jBVwxuma3jzHI2dGDplsGgYAhCAAASqm0DZSXNko1lZmmOKhhun6ljDNB1tmK6jDTM0VH+Wjqw/W0fWn6PDdefqUN15OlQ3Uwe/nKlDkas02ltb3bPJ6CEAAQhAoKQEyk6aZit2eINZWU7TMSPL+jM1VD9DQ40X6Nft86T+j6W+D6W+D6SeZVL3m1JnjRRdrLH2RSWFVa3B//u//1v/8A//oIMHD04IAtOe+WJed911+uGHH3ThhReqpaUlr7ZNn2fPnp13/fE2OtHtjbd/lIcABAojUHbSHBtYKf28QfqpTvqxVhpcJR1YKQ18IvWtkHrelrpfl7pekaJLpOgiqeN5qf1ZqW1+Rhr/8i//InO4P/5rN70cPsvhl+8vv/xiietf//Vf9Y//+I8TIk0zbiNoI85i/Ew0x0LbK7R+MZgRAwIQSE+g7KSpgU+l/o+k/WY1uULqfU/at8yR5RtSV43U9ZIjyxek9gXS3qektiekPY+mHalfkP7rtBVTZPz1r3/Vn/70pxQ5xUsqp1+epi/jlWa+jIo97mLHyzbDhbZXaP1s/SMfAhAojED5STMmy/cdWb4jdRtZvip1Glm+KHUslDqek9qfkdqelPY8Ju1+WGq9PyUNvyD91ykrZUhcuXKlnnrqKf3ud7/LUCp1lrt6M+DNYVZU/rTPP//cWm25ZR5++GErmNminDFjRuy1au5qzP1Fe//998e2Ub1l3a1Vfzumvlv3P//zP2OxP/jgg4TOmzLjlWY+jEw7pq/uuE0/3P6Z8bjnS5cuTSjjdtZwcuu6zNw6/u1dNz3VuN28dDzdeXPb9bJ++eWXY9vBbhy3bf+1fz7SzbvbDp8QgMCpJ2D+95/rT+4ls0TM2GivkeVyqWep1POW1P2a1Pmy1LkkLsu9jizbHpd2PyK1PijtulfaOTdty35R+q/TVkyR8be//U3hcHjc4nR/SfqlZOTl/pJ3m/P/gjXX3m1L84vYvdfn5rlx/XVNfJOXrh0T19w/NP3zxvX2ZbzSzJeRv+/ea3ecLiszHvf/ELh9NZ/+OqnuabqxUo3bzfPyzMbe9MX8mDrm/9gYjt5++PuV7rvgr2MF5T8QgEDZEMjoL18vJ0aaPe86svTdt2w3K8sFUpvZig05spwn7bpP2nm31HKntOM2X5cTL/2i9F8nls58NTw8rOeee05PP/20JZvMpe1c84vU/AI3vxi9Pybd/KJ1f0mbPP8vz1R1jTzML+tUZb0rUjPJpmwu7Zi23bhuH0388UrT1M2HkX8s3mvveSpGhoUZqznSics7Jr9M3XH728nE3uT927/9W+w74K3rPff3N1VMfxm3r3xCAALlQ6D8pGltxdbYK0trK9a9b/l0/L5lqyvLe+KybL5ZarphQsjmu4pK94vS7bSRppmQdCL0C3c8v+TdNsxnpnbcFZC7cjLlzS//8UozX0aZRJMpz8vWjMGIzKT567gc/OnecfvzvLHd+i57k4c0XSp8QqDyCZSfNM1WrJFldKFkVpfuVqx13/IhqfUBeyu2Za7UcrvUfIvUdKO0/Xpp27UTMmP53K8zHXN/MXtXlP4Omzxz+H9xm2v/FqEr0XRlc23HxHXLphKEiT9eaebLKNVY3BVhpjwj+XRbrW59L2sTK924U7WTib03z3B0V7nufLv/B8R8+vNc7m7f/G276XxCAALlQaDspDnWsdgjy/nSHv99y7ukljuk5lulppscWV4nbb3GXnVOANetW7fm/fSs+8vagHdXleaXqXttfgGbMubHrGZMuvk0P0Zo7rar+8vXpKf6Rest68ZI1Y5b1zz04vbB/SVvNZrnSjNfRm5/TP/9Y8uU5wrKjOGf/umf9M///M85rTRTjdvfjumHl6eXvcnzcvU+COTPM3+64xW4acfMt5+7f95NHH4gAIHyIGD+95rrT+4ls0TM1Ohozzod3HS1Bmsv1OAXF2mw9mIdWHuJBtZeqv41s9S/9jLtX3O5+lbPVt/qK9S7+krtWzVH+9cFdbyrIUvLZPsJpBKEv0wlXlfruCtxLhkTBCaSQCZ/+fsxIdL0N8p1aQlUqzyqddyl/TYRHQKVTwBpVv4cZxxhtcqjWsed8ctAJgQgkJUA0syKiAIQgAAEIAABmwDS5JsAAQhAAAIQyJEA0swRFMUgAAEIQAACSJPvAAQgAAEIQCBHAkgzR1AUgwAEIAABCCBNvgMQgAAEIACBHAkgzRxBUQwCEIAABCCANPkOQAACEIAABHIkgDRzBEUxCEAAAhCAQNlJs729XRww4DvAd2A83wF+lUNgogiUnTQnauC0AwEIQAACEBgvAaQ5XmKUhwAEIACBqiWANKt26hk4BCAAAQiMlwDSHC8xykMAAhCAQNUSQJpVO/UMHAIQgAAExksAaY6XGOUhAAEIQKBqCSDNqp16Bg4BCEAAAuMlUHbSHBoaUq6HO9jR0VH3lE8IFEzg2LFjev3112U++YEABCDgJYA0vTQ4r3oCRpT//u//rk8++USPP/444qz6bwQAIJBIAGkm8uCqigm4wmxsbLQomH+RBnFW8ReCoUMgBQGkmQIKSdVHwC9MlwDidEnwCQEIGAJIk+8BBCRrG/abb75JycL9N1BTZpIIAQhUFQGkWVXTzWAhAAEIQKAQAkizEHrUhQAEIACBqiKANKtquhksBCAAAQgUQgBpFkIvVne3Pnj4Zf3rJ7tjKfaJSf9Q/zXoSy7oshQxC+oQlSEAAQhUDQGkWZSptkW24NWX9cF2b8BSCK4UMb195hwCEIAABNIRQJrpyIwr3RHZ9m+04NVvtD9WtxSCK0XMWIc5gQAEIACBDASQZgY4uWfFRfbDJy9rwcafnKrxdCth8BstMNu4zhFflTrljHQ9efs3fhgrmxTTU9af98Enpt4X+sE0mtCmk5b7wCgJAQhAAAIeAkjTAyP/U68cM517tm8tmbn3O02dl/Wv7ip1+xeWLGMytK5d4fnKpogTqydvXyRt/8Ij9PxHS00IQAAC1UoAaRZl5pPlZD8U5Em35OaKz27UrErt1aannJWV6dqfJ6WNk7DKdFa4SQ8rFQUAQSAAAQhUBQGkWZRp9ovsJ/2X9VCQJ71k0nTbMgPxtGcuU7RZlOESBAIQgECVEkCaRZl4n6xMzNgqL3ELNnYfM0Fo/vqZrk2e575p1jieskUZK0EgAAEIVC8BpFmUufdLzg5qP8jjStMrUrNV6kn3rxAzXttt2Q/72FuuMREn1fO3mepvSYsCgCAQgAAEqoIA0qyKaWaQEIAABCBQDAJIsxgUiQEBCEAAAlVBAGlWxTQzSAhAAAIQKAYBpFkMisSAAAQgAIGqIIA0q2KaGSQEIAABCBSDANIsBkViQAACEIBAVRBAmlUxzQwSAhCAAASKQQBpFoMiMSAAAQhAoCoIlK00ly5dKnMMDQ2lPdwZGh0ddU/L/vNk/2ca3Xy+ftl4mkYazXG6jjeeoZGvZuvkyL6y7z8dhAAEIFDNBJDmBM/+6NezEmR5vHGKjjVM1fCG6RrePEdjJ4YmuEc0BwEIQAACuRJAmrmSKlK5kY1mZWmOKRpunKpjDdN0tGG6jjbM0FD9WTqy/mwdWX+ODtedq0N15+lQ3Uwd/HKmDkWu0mhvbZF6QRgIQAACEMiHANLMh1oBdcxW7PAGs7KcpmNGlvVnaqh+hoYaL9Cv2+dJ/R9LfR9KfR9IPcuk7jelzhopulhj7YsKaJmqEIAABCBQKAGkmSPBTZs26csvv9TY2FhCDXNt0k1+Lj9jAyulnzdIP9VJP9ZKg6ukAyulgU+kvhVSz9tS9+tS1ytSdIkUXSR1PC+1Pyu1zc+lCcpAAAIQgECJCCDNHMEaMT766KP6/PPPY+I0wjTXJt3k5/Qz8KnU/5G036wmV0i970n7ljmyfEPqqpG6XnJk+YLUvkDa+5TU9oS059EsTUQVDgZkJtUcoYgpHlEoEFQoFFQgEJKVpFTlsoQmGwIQgAAErN+tuWII5FowW7lMpnafli23p2e9gnTF6QrTvc42bis/Jsv3HVm+I3UbWb4qdRpZvih1LJQ6npPan5HanpT2PCbtflhqvT9zE5GQArYpPeWMNAMKhqNOmi3M+LWnKKcQgAAEIJCRQCZ/+StWtTQNDK84a2pqklaefmApr3uNLJdLPUulnrek7tekzpelziVxWe51ZNn2uLT7Ean1QWnXvdLOuSlDxhKjYQUTBGly7JVm3JmmjLvijNXkBAIQgAAEciCANHOA5C3iFee4VphukJ53HVn67lu2m5XlAqnNbMWGHFnOk3bdJ+28W2q5U9pxmxsl42c0bLZiE7dnkWZGZGRCAAIQyIkA0swJU2IhI86urq7Yvc3E3CxX1lZsjb2ytLZi3fuWT8fvW7a6srwnLsvmm6WmG7IEj2cbcdpbsL6VpnM/k+3ZOCvOIAABCORKAGnmSqpY5cxWrJFldKFkVpfuVqx13/IhqfUBeyu2Za7UcrvUfIvUdKO0/Xpp27WZe2HuaToPAcUf+vFL04Sw73O6ZZNug2ZuhVwIQAACVUsAaU7w1I91LPbIcr60x3/f8i6p5Q6p+Vap6SZHltdJW6+xV50T3F+agwAEIACBOAGkGWcxIWejPet0cNPVGqy9UINfXKTB2ot1YO0lGlh7qfrXzFL/2su0f83l6ls9W32rr1Dv6iu1b9Uc7V8X1PGuhgnpI41AAAIQgEBqAkgzNRdSIQABCEAAAkkEkGYSEhIgAAEIQAACqQkgzdRcSIUABCAAAQgkEUCaSUhIgAAEIAABCKQmgDRTcyEVAhCAAAQgkEQAaSYhIQECEIAABCCQmgDSTM2FVAhAAAIQgEASAaSZhIQECEAAAhCAQGoCSDM1F1IhAAEIQAACSQSQZhISEiAAAQhAAAKpCSDN1FxIhQAEIAABCCQRQJpJSE5twsn+zzS6+Xz9svE0jTSa43QdbzxDI1/N1smRfae2c7QOAQhAoMoJIM0y+wKMfj0rQZbHG6foWMNUDW+YruHNczR2YqjMekx3IAABCFQPAaRZZnM9stGsLM0xRcONU3WsYZqONkzX0YYZGqo/S0fWn60j68/R4bpzdajuPB2qm6mDX87UochVGu2tLbPR0B0IQAAClUUAaRZ5Ptvb27V79+68o5qt2OENZmU5TceMLOvP1FD9DA01XqBft8+T+j+W+j6U+j6QepZJ3W9KnTVSdLHG2hfl3e7EVvS+GNt7PrG9oDUIQAAC4yWANMdLLEt5I8z6+no1NzdnKZk6e2xgpfTzBumnOunHWmlwlXRgpTTwidS3Qup5W+p+Xep6RYoukaKLpI7npfZnpbb5qYOWJLUQ2Xnres9L0lGCQgACECgaAaRZNJTxQEaYeYtz4FOp/yNpv1lNrpB635P2LXNk+YbUVSN1veTI8gWpfYG09ymp7Qlpz6PxTpT8rBDZeet6z0veaRqAAAQgUBABpFkQvvSV8xZnTJbvO7J8R+o2snxV6jSyfFHqWCh1PCe1PyO1PSnteUza/bDUen/6Dlk5UYWDAZlJN0co4hSPhhV00hLS5QgtHIrVCYajkpUejxOwAtllQ6GgAoGQrNDZ4ppQbhvWuaSEOk4cp0w8dppxZBk92RCAAAQKJYA0CyWYof6WLVusFefhw4czlPJl9RpZLpd6lko9b0ndr0mdL0udS+Ky3OvIsu1xafcjUuuD0q57pZ1zfcG8l7ZobOl5043s/AINynKjK0fXrhEjz0SR2eVMPDtOPH62uN42Up2bkCF5JR2Lbfrh9sk7FM4hAAEIlJgA0iwR4LxXmj3vOrL03bdsNyvLBVKb2YoNObKcJ+26T9p5t9Ryp7TjtvSjsVZwrvA8xVKkR0KuRO3VY6IY0wgu5Yoxsb3UcT1tJKwynZWsZxUb64dTLiZRz3A4hQAEIFBKAkizBHTzFqbpi7UVW2OvLK2tWPe+5dPx+5atrizvicuy+Wap6Yb0o0khR6twivTUcjOlPYJLOPfnudus+UgzsY49IG+7dor5bzRstoJdwcfTOYMABCBQKgJIs8hkC3161tqKNbKMLpTM6tLdirXuWz4ktT5gb8W2zJVabpeab5GabpS2Xy9tuzbDaMazPeuKyy8r77X33DSb6tojtAQ5e8v6zwPOlqx3KN4y3nRbnKw4E5lwBQEIlI4A0iwyW/N3mq2trXlHHetY7JHlfGmP/77lXVLLHVLzrVLTTY4sr5O2XmOvOjO2bOQTf4AndlvQ2e40X4ZAwN1+NYH8skq8NitSq06qLVRTPae4iTET6wSce5e+Mta9VXccruAzDpxMCEAAAkUhgDSLgrF4QUZ71ungpqs1WHuhBr+4SIO1F+vA2ks0sPZS9a+Zpf61l2n/msvVt3q2+lZfod7VV2rfqjnavy6o410NxesIkSAAAQhAIIkA0kxCQgIEIAABCEAgNQGkmZoLqRCAAAQgAIEkAkgzCQkJEIAABCAAgdQEkGZqLqRCAAIQgAAEkgggzSQkJEAAAhCAAARSE0CaqbmQCgEIQAACEEgigDSTkJAAAQhAAAIQSE0AaabmQioEIAABCEAgiQDSTEJCAgQgAAEIQCA1AaSZmgupEIAABCAAgSQCSDMJCQkQgAAEIACB1ASQZmoupyz1ZP9nGt18vn7ZeJpGGs1xuo43nqGRr2br5Mi+U9YvGoYABCAAAVkvqciVQyDXgtnKZTL10NCQzLF06VLrcK9TfbrtjI6OuqeT/nP061kJsjzeOEXHGqZqeMN0DW+eo7ETQ5N+jAwAAhCAwGQlkMlf/jEhTT+RElyPbDQrS3NM0XDjVB1rmKajDdN1tGGGhurP0pH1Z+vI+nN0uO5cHao7T4fqZurglzN1KHKVRntrS9AjQkIAAhCAgEsAabokivRp3qdpXkSd74/Zih3eYFaW03TMyLL+TA3Vz9BQ4wX6dfs8qf9jqe9Dqe8DqWeZ1P2m1FkjRRdrrH3ROJr1vqPSez6OEBSFAAQgUGUEkGaRJ9wIs76+Xs3NzXlFHhtYKf28QfqpTvqxVhpcJR1YKQ18IvWtkHrelrpfl7pekaJLpOgiqeN5qf1ZqW3+ONr0itJ7Po4QFIUABCBQZQSQZgkm3Agzb3EOfCr1fyTtN6vJFVLve9K+ZY4s35C6aqSulxxZviC1L5D2PiW1PSHteXQco/GK0ns+jhAUhQAEIFBlBJBmiSY8b3HGZPm+I8t3pG4jy1elTiPLF6WOhVLHc1L7M1Lbk9Kex6TdD0ut92ceTTSsYCBgPf0VDIcVCgQVjpoqjjQj3nwrI3M8ciEAAQhUGQGkWcIJ37Jli7XiPHz4cO6t9BpZLpd6lko9b0ndr0mdL0udS+Ky3OvIsu1xafcjUuuD0q57pZ1zM7RjxBhQKGIXiYaDCiRIM6BAMCxLlZZcXaFmCEkWBCAAgSojgDRLNOF5rzR73nVk6btv2W5WlgukNrMVG3JkOU/adZ+0826p5U5px23pR2NE6ErRKuXdkvWe2yEiobhg0wclBwIQgEB1EUCaJZjvvIVp+mJtxdbYK0trK9a9b/l0/L5lqyvLe+KybL5Zaroh/WjGJc2owkGkmR4mORCAQLUSQJpFnvlCn561tmKNLKMLJbO6dLdirfuWD0mtD9hbsS1zpZbbpeZbpKYbpe3XS9uuzTCa7NuzQfsGp2Rtz4bk7ORmiEkWBCAAgeoigDSLPN/m7zRbW1vzjjrWsdgjy/nSHv99y7ukljuk5lulppscWV4nbb3GXnVmajkSsh4CMpOe6kGgUMjc57QfFHLvfWYKRx4EIACBaiOANMtsxkd71ungpqs1WHuhBr+4SIO1F+vA2ks0sPZS9a+Zpf61l2n/msvVt3q2+lZfod7VV2rfqjnavy6o410NZTYaugMBCECgsgggzcqaT0YDAQhAAAIlJIA0SwiX0BCAAAQgUFkEkGZlzSejgQAEIACBEhJAmiWES2gIQAACEKgsAkizsuaT0UAAAhCAQAkJIM0SwiU0BCAAAQhUFgGkWVnzyWggAAEIQKCEBJBmCeESGgIQgAAEKosA0qys+WQ0EIAABCBQQgJIs4RwCQ0BCEAAApVFAGlW1nwyGghAAAIQKCEBpFlCuPmEPtn/mUY3n69fNp6mkUZznK7jjWdo5KvZOjmyL5+Q1IEABCAAgSIRQJpFAlmsMKNfz0qQ5fHGKTrWMFXDG6ZrePMcjZ0YKlZTxIEABCAAgXESQJrjBFbq4iMbzcrSHFM03DhVxxqm6WjDdB1tmKGh+rN0ZP3ZOrL+HB2uO1eH6s7TobqZOvjlTB2KXKXR3tpSd4/4EIAABKqaANIs8vSb92maF1Hn+2O2Yoc3mJXlNB0zsqw/U0P1MzTUeIF+3T5P6v9Y6vtQ6vtA6lkmdb8pddZI0cUaa1+Ub7MF1DMvtw7KfX916kC5lEldk1QIQAAC5UQAaRZ5Noww6+vr1dzcnFfksYGV0s8bpJ/qpB9rpcFV0oGV0sAnUt8Kqedtqft1qesVKbpEii6SOp6X2p+V2ubn1WZhlXIRYi5lCusFtSEAAQhMBAGkWQLKRph5i3PgU6n/I2m/WU2ukHrfk/Ytc2T5htRVI3W95MjyBal9gbT3KantCWnPoyUYTbaQuQgxlzLZ2iEfAhCAwKkngDRLNAd5izMmy/cdWb4jdRtZvip1Glm+KHUslDqek9qfkdqelPY8Ju1+WGq9P8NoHHFFwgoGAjITH4pI0XDQOjfXQe8eazRezi0bC+7JC4bDiduznrxAIKSIVckrzajCQbv9pLixBjiBAAQgUJ4EzO+tXH9yL5klYqZGh4aGZI6lS5dah3ud6tNtZnR01D0tq88tW7ZYK87Dhw/n3q9eI8vlUs9Sqectqfs1qfNlqXNJXJZ7HVm2PS7tfkRqfVDada+0c26Gdoy4AgoEw4qaUpGQJcuYKK1rr+RsqVoBLRG69y3tOEa45seWrjfPPbfbsON7pGnacSvbIfgvBCAAgUlDIJO//INAmn4iGa7zXmn2vOvI0nffst2sLBdIbWYrNuTIcp606z5p591Sy53Sjtsy9MgjLqtUhmtLkq5A7ZCRkCNRk+eK1x8nYZXprCYtQXracsrEZJ2hx2RBAAIQKDcCSLMEM5K3ME1frK3YGntlaW3Fuvctn47ft2x1ZXlPXJbNN0tNN2QYjUdcVqkM1wVJM1G2dof8bbkrVM9qNkPPyYIABCBQLgSQZpFnotCnZ62tWCPL6ELJrC7drVjrvuVDUusD9lZsy1yp5Xap+Rap6UZp+/XStmszjMYvrkzXJs8jtASJJuYlb8/67o1aPfK3ZXfT1GXFmWHKyIIABMqOANIs8pSYv9NsbW3NO+pYx2KPLOdLe/z3Le+SWu6Qmm+Vmm5yZHmdtPUae9WZtmW/uLJcJ2y1eu5TmvjO/VDz5cn8IFDAuX/pactTN/6gUNpOkwEBCECgrAggzbKaDmm0Z50Obrpag7UXavCLizRYe7EOrL1EA2svVf+aWepfe5n2r7lcfatnq2/1FepdfaX2rZqj/euCOt7VUGajoTsQgAAEKosA0qys+WQ0EIAABCBQQgJIs4RwCQ0BCEAAApVFAGlW1nwyGghAAAIQKCEBpFlCuISGAAQgAIHKIoA0K2s+GQ0EIAABCJSQANIsIVxCQwACEIBAZRFAmpU1n4wGAhCAAARKSABplhAuoSEAAQhAoLIIIM3Kmk9GAwEIQAACJSSANEsIN5/Q7y1/Vy8t/l9pD5M/MDCQT2jqQAACEIBAgQSQZoEAi13dCPPEiRNpD5P/3vKliLPY4IkHAQhAIAcCSDMHSBNZJBdp9vXuQ5wTOSm0BQEIQMAhgDTL7KuQTZr/seyd2Nbtm2+8mqX35u0izsugrU/f20qy1E6f7XlrSfpC5EAAAhCoOAJIs8ymNJs0vVu3pmz6n4h5h5dCgbgorXdfBsOKpq+UY05i3BwreYoVWt8TilMIQAACE0gAaU4g7FyaKqU0/RLNpT+pyxQqvULrp+4VqRCAAARKTQBplprwOONPnDRtcYVCQcVeBp3w4umAQmax6v548hJfPO0XoP86qnAwvkUcipj8+HUgoRG3MT4hAAEIlCcBpFlm81JKaSZuz9ryCobdzVr7OuYwS5Lu1m5inhUntu1r8txyBqb32hZmvA0XtreMm8YnBCAAgfIngDTLbI6KL03Pqi4QUnzx6BOXJUlvvhQJOatNk5dwL9Rb13tuYHquU8S0cXvKlBl/ugMBCEAgEwGkmYnOKcgrvjS9q0DvgHziSiE4pOnlxTkEIAABCWmW2bfglEnTWiF67mMmSNQINp6XuD1rb8HGtnUjIQVi27Vsz5bZ14vuQAACBRJAmgUCLHb1UydNSZYo3e1c3wrVkqGdl/ggkNmRNaJ06oVCKe5xujHj4jWrWKtOzLbFJkk8CEAAAgTJKPwAACAASURBVMUngDSLz7SgiMWVZkFdoTIEIAABCPgIIE0fkFN9WTxpnuqR0D4EIACByiOANMtsTpFmmU0I3YEABCDgIYA0PTDK4dS8wcSIM5fDlOUHAhCAAAQmjgDSnDjWtAQBCEAAApOcANKc5BNI9yEAAQhAYOIIIM2JY01LEIAABCAwyQkgzUk+gXQfAhCAAAQmjgDSnDjWtAQBCEAAApOcANIsswl8b/m7GZ+cNfkDAwNl1mu6AwEIQKA6CCDNMpvnbH+nafLNn5ogzjKbOLoDAQhUBQGkWWbTnIs0+3r3Ic4ymze6AwEIVAcBpFlm85xNmv+x7J3Y9u2bb7yapff220nMJNuH7x9hz1I7fbbvtWLpC+aY4+9nQMkvrrZDWf/Qe7p/5N37D8cH0sfIsVMUgwAEIJBEAGkmITm1CdmkeeLECbmHKZv2JxpOfCG09RKToAIJL5NOWztLRqHS9NdPdR1QwC9H8xaWYEihYAr5J7ySzHQ/3WvJsgyNbAhAAAIZCCDNDHBORVbRpGl1PpWMUghn3AP1xx1vAH99/7X7mrKQIp7Q5j2eZgXqfsazfO/0dDMS3gnqJvIJAQhAIH8CSDN/diWpOXHStEUVCgUVCDhySnifZvzdl9ZAPXmJ79P0C89/bQvN3h42MU2+u13srib9dUyLfhGaa0f41oozrKg7A2nl6KnjluUTAhCAQAEEkGYB8EpRtXjSNGu0RBmZFVp8e9aWV/zeoX0d2xG1ROSuShPzrDgBb557boh427TFF2/DJeYt46/jlvFJM0GUPhkm5Ln1zacvhjeLcwhAAAJ5EECaeUArZZXiS9OzqnNXlNYAfOJKsVozD91YEk2Skreu99wE9lyniGmz85RJ1RcrLVGM/i1ZS9yu4dO2kxjDbpv/QgACEMifANLMn11JahZfmt5VoLfLPnGlEM8plWZCf0xfvfJ3z917nmlWlAkxvGPnHAIQgEB+BJBmftxKVuuUSdNaIXruYyYIx5ZWfGFn7oO6MvYJK+EpVjtv/Nuzie3JxEx66jdVu65EzfTYMZLbLtnUERgCEKgCAkizzCb51EnTfWLVXcW5UnQAef4GMvFBIOOnkPN3oObBnpBCMaGauomrRFe81t9bmtWjlZBYJi5ku21TNpX8ErZoraY8/Qh4/g+AMwQ+IAABCBRKAGkWSrDI9YsrzSJ3jnAQgAAEqpwA0iyzL0DxpFlmA6M7EIAABCqAANIss0lEmmU2IXQHAhCAgIcA0vTAKIdT8wYTI85cDlOWHwhAAAIQmDgCSHPiWNMSBCAAAQhMcgJIc5JPIN2HAAQgAIGJI4A0J441LUEAAhCAwCQngDQn+QTSfQhAAAIQmDgCSHPiWNMSBCAAAQhMcgJIc5JPIN2HAAQgAIGJI4A0J441LUEAAhCAwCQngDQn+QTSfQhAAAIQmDgCSHPiWFstnez/TKObz9cvG0/TSKM5TtfxxjM08tVsnRzZN8G9oTkIQAACEBgPAaQ5HlpFKDv69awEWR5vnKJjDVM1vGG6hjfP0diJoSK0QggIQAACECgFAaRZCqoZYo5sNCtLc0zRcONUHWuYpqMN03W0YYaG6s/SkfVn68j6c3S47lwdqjtPh+pm6uCXM3UocpVGe2szRCYLAhCAAARKTQBplpqwL77Zih3eYFaW03TMyLL+TA3Vz9BQ4wX6dfs8qf9jqe9Dqe8DqWeZ1P2m1FkjRRdrrH2RL5r/0ryX0vceTH+RtNeF1E0blAwIQAACFUUAaeY4nZs2bdKXX36psbGxhBrm2qSb/Fx+xgZWSj9vkH6qk36slQZXSQdWSgOfSH0rpJ63pe7Xpa5XpOgSKbpI6nhean9WapufpYlCxFdI3SzdIhsCEIBAhRBAmjlOpBHjo48+qs8//zwmTiNMc23STX5OPwOfSv0fSfvNanKF1PuetG+ZI8s3pK4aqeslR5YvSO0LpL1PSW1PSHsezdhEKBCQmVDrCEXsstGwgm5aICQ7NapwMF42FDHCjF8H3LoZWyMTAhCAQPURQJo5zrlXkK44XWG61zmFisnyfUeW70jdRpavSp1Gli9KHQuljuek9mektielPY9Jux+WWu/P0oR/tei7joQUDEelSEjJYvSVzdIS2RCAAASqkQDSHMese8VZU1OTtPLMKVSvkeVyqWep1POW1P2a1Pmy1LkkLsu9jizbHpd2PyK1PijtulfaOTdLEz7xJawyPStQJ90SaCyir24snRMIQAACEHAJIE2XRI6fXnGOa4Xpxu9515Gl775lu1lZLpDazFZsyJHlPGnXfdLOu6WWO6Udt7lR0nz6xGfJ0d2STa4SDQetrVx7N9ZXN7k4KRCAAASqngDSzOMrYMTZ1dUVu7c5rhDWVmyNvbK0tmLd+5ZPx+9btrqyvCcuy+abpaYbsjTlF5+5DthbsmlqGnHaK05/3TQVSIYABCBQxQSQ5kRPvtmKNbKMLpTM6tLdirXuWz4ktT5gb8W2zJVabpeab5GabpS2Xy9tuzZrbyMhzzasKe3fojXLSnNPM/bgT3wlmlQ3a2sUgAAEIFBdBJDmBM/3WMdijyznS3v89y3vklrukJpvlZpucmR5nbT1GnvVOcH9pTkIQAACEIgTQJpxFhNyNtqzTgc3Xa3B2gs1+MVFGqy9WAfWXqKBtZeqf80s9a+9TPvXXK6+1bPVt/oK9a6+UvtWzdH+dUEd72qYkD7SCAQgAAEIpCaANFNzIRUCEIAABCCQRABpJiEhAQIQgAAEIJCaANJMzYVUCEAAAhCAQBIBpJmEhAQIQAACEIBAagJIMzUXUiEAAQhAAAJJBJBmEhISIAABCEAAAqkJIM3UXEiFAAQgAAEIJBFAmklISIAABCAAAQikJoA0U3MhFQIQgAAEIJBEAGkmISEBAhCAAAQgkJoA0kzNhVQIQAACEIBAEgGkmYTk1Cac7P9Mo5vP1y8bT9NIozlO1/HGMzTy1WydHNl3ajtH6xCAAASqnADSLLMvwOjXsxJkebxxio41TNXwhuka3jxHYyeGyqzHdAcCEIBA9RBAmmU21yMbzcrSHFM03DhVxxqm6WjDdB1tmKGh+rN0ZP3ZOrL+HB2uO1eH6s7TobqZOvjlTB2KXKXR3toyGw3dgQAEIFBZBJBmkeezvb1du3fvzjuq2Yod3mBWltN0zMiy/kwN1c/QUOMF+nX7PKn/Y6nvQ6nvA6lnmdT9ptRZI0UXa6x9Ud7tTmzFiEKBoMJR06r3fGJ7QWsQgAAExksAaY6XWJbyRpj19fVqbm7OUjJ19tjASunnDdJPddKPtdLgKunASmngE6lvhdTzttT9utT1ihRdIkUXSR3PS+3PSm3zUwctSWohsvPW9Z6XpKMEhQAEIFA0AkizaCjjgYww8xbnwKdS/0fSfrOaXCH1viftW+bI8g2pq0bqesmR5QtS+wJp71NS2xPSnkfjnSj5WSGy89b1npe80zQAAQhAoCACSLMgfOkr5y3OmCzfd2T5jtRtZPmq1Glk+aLUsVDqeE5qf0Zqe1La85i0+2Gp9f70HbJyogoHAzKTbo5QxCkeDSvopCWku1un4VCsTtDaUzWii8cJWIFs+YVCQQUCIVmhs8VNtT2bUMeJ4/QjHjvNOLKMnmwIQAAChRJAmoUSzFB/y5Yt1orz8OHDGUr5snqNLJdLPUulnrek7tekzpelziVxWe51ZNn2uLT7Ean1QWnXvdLOub5g3ktbNLb0vOm2ABMF6r3fGJAtRXP70cgzUWT2fUkTz44Tj58trreNVOd2e15Jx2KbfsQ67B0L5xCAAARKSwBplohv3ivNnncdWfruW7ableUCqc1sxYYcWc6Tdt0n7bxbarlT2nFb+tFYKzhXeJ5iKdIjIXcVaq8eE8WYRnDuqtRaPUrKOa6njYRVprOS9axiY/1wysUk6hkOpxCAAARKSQBploBu3sI0fbG2YmvslaW1Fevet3w6ft+y1ZXlPXFZNt8sNd2QfjQpJGYVTpF+aqWZQux+ITujjIbNVrAr+PRDJwcCEIBAsQggzWKRdOIU+vSstRVrZBldKJnVpbsVa923fEhqfcDeim2ZK7XcLjXfIjXdKG2/Xtp2bYbRjGd71hWXZxVoRfZee89NZqprj9AS5Owt6z8PKHkF6S2TOEQjzuTyiWW4ggAEIFAsAkizWCSdOObvNFtbW/OOOtax2CPL+dIe/33Lu6SWO6TmW6WmmxxZXidtvcZedWZs2cgn/gBP7Lags91pvgyB2N9PmkB+WSVemxWpVSfVFqqpnlPcxJiJddz7qb4y1r1Vdxyu4DMOnEwIQAACRSGANIuCsXhBRnvW6eCmqzVYe6EGv7hIg7UX68DaSzSw9lL1r5ml/rWXaf+ay9W3erb6Vl+h3tVXat+qOdq/LqjjXQ3F6wiRIAABCEAgiQDSTEJCAgQgAAEIQCA1AaSZmgupEIAABCAAgSQCSDMJCQkQgAAEIACB1ASQZmoupEIAAhCAAASSCCDNJCQkQAACEIAABFITQJqpuZAKAQhAAAIQSCKANJOQkAABCEAAAhBITQBppuZCKgQgAAEIQCCJANJMQkICBCAAAQhAIDUBpJmaC6kQgAAEIACBJAJIMwkJCRCAAAQgAIHUBJBmai6nLPVk/2ca3Xy+ftl4mkYazXG6jjeeoZGvZuvkyL5T1i8ahgAEIAABWS+pyJVDINeC2cplMvXQ0JDMsXTpUutwr1N9uu2Mjo66p5P+c/TrWQmyPN44Rccapmp4w3QNb56jsRNDk36MDAACEIDAZCWQyV/+MSFNP5ESXI9sNCtLc0zRcONUHWuYpqMN03W0YYaG6s/SkfVn68j6c3S47lwdqjtPh+pm6uCXM3UocpVGe2tL0CNCQgACEICASwBpuiSK9Gnep2leRJ3vj9mKHd5gVpbTdMzIsv5MDdXP0FDjBfp1+zyp/2Op70Op7wOpZ5nU/abUWSNFF2usfdE4mvW+o9J7Po4QFIUABCBQZQSQZpEn3Aizvr5ezc3NeUUeG1gp/bxB+qlO+rFWGlwlHVgpDXwi9a2Qet6Wul+Xul6Rokuk6CKp43mp/Vmpbf442vSK0ns+jhAUhQAEIFBlBJBmCSbcCDNvcQ58KvV/JO03q8kVUu970r5ljizfkLpqpK6XHFm+ILUvkPY+JbU9Ie15dByj8YrSez6OEBSFAAQgUGUEkGaJJjxvccZk+b4jy3ekbiPLV6VOI8sXpY6FUsdzUvszUtuT0p7HpN0PS633Zx5NNKxgIGA9/RUMhxUKBBWOmiqONCPefCsjczxyIQABCFQZAaRZwgnfsmWLteI8fPhw7q30Glkul3qWSj1vSd2vSZ0vS51L4rLc68iy7XFp9yNS64PSrnulnXMztGPEGFAoYheJhoMKJEgzoEAwLEuVllxdoWYISRYEIACBKiOANEs04XmvNHvedWTpu2/ZblaWC6Q2sxUbcmQ5T9p1n7TzbqnlTmnHbelHY0ToStEq5d2S9Z7bISKhuGDTByUHAhCAQHURQJolmO+8hWn6Ym3F1tgrS2sr1r1v+XT8vmWrK8t74rJsvllquiH9aMYlzajCQaSZHiY5EIBAtRJAmkWe+UKfnrW2Yo0sowsls7p0t2Kt+5YPSa0P2FuxLXOlltul5lukphul7ddL267NMJrs27NB+wanZG3PhuTs5GaISRYEIACB6iKANIs83+bvNFtbW/OOOtax2CPL+dIe/33Lu6SWO6TmW6WmmxxZXidtvcZedWZqORKyHgIyk57qQaBQyNzntB8Ucu99ZgpHHgQgAIFqI4A0y2zGR3vW6eCmqzVYe6EGv7hIg7UX68DaSzSw9lL1r5ml/rWXaf+ay9W3erb6Vl+h3tVXat+qOdq/LqjjXQ1lNhq6AwEIQKCyCCDNyppPRgMBCEAAAiUkgDRLCJfQEIAABCBQWQSQZmXNJ6OBAAQgAIESEkCaJYRLaAhAAAIQqCwCSLOy5pPRQAACEIBACQkgzRLCJTQEIAABCFQWAaRZWfPJaCAAAQhAoIQEkGYJ4RIaAhCAAAQqiwDSrKz5ZDQQgAAEIFBCAkizhHAJDQEIQAAClUUAaVbWfDIaCEAAAhAoIQGkWUK4+YQ+2f+ZRjefr182nqaRRnOcruONZ2jkq9k6ObIvn5DUgQAEIACBIhFAmkUCWawwo1/PSpDl8cYpOtYwVcMbpmt48xyNnRgqVlPEgQAEIACBcRJAmuMEVuriIxvNytIcUzTcOFXHGqbpaMN0HW2YoaH6s3Rk/dk6sv4cHa47V4fqztOhupk6+OVMHYpcpdHe2lJ3j/gQgAAEqpoA0izy9Jv3aZoXUef7Y7ZihzeYleU0HTOyrD9TQ/UzNNR4gX7dPk/q/1jq+1Dq+0DqWSZ1vyl11kjRxRprX5RvswXUMy+3Dsp9f3XqQLmUSV2TVAhAAALlRABpFnk2jDDr6+vV3NycV+SxgZXSzxukn+qkH2ulwVXSgZXSwCdS3wqp522p+3Wp6xUpukSKLpI6npfan5Xa5ufVZmGVchFiLmUK6wW1IQABCEwEAaRZAspGmHmLc+BTqf8jab9ZTa6Qet+T9i1zZPmG1FUjdb3kyPIFqX2BtPcpqe0Jac+jJRhNtpC5CDGXMtnaIR8CEIDAqSeANEs0B3mLMybL9x1ZviN1G1m+KnUaWb4odSyUOp6T2p+R2p6U9jwm7X5Yar0/w2gccUXCCgYCMhMfikjRcNA6N9dB7x5rNF7OLRsL7skLhsOJ27OevEAgpIhVySvNqMJBu/2kuLEGOIEABCBQngTM761cf3IvmSVipkaHhoZkjqVLl1qHe53q021mdHTUPS2rzy1btlgrzsOHD+fer14jy+VSz1Kp5y2p+zWp82Wpc0lclnsdWbY9Lu1+RGp9UNp1r7RzboZ2jLgCCgTDippSkZAly5gorWuv5GypWgEtEbr3Le04Rrjmx5auN889t9uw43ukadpxK9sh+C8EIACBSUMgk7/8g0CafiIZrvNeafa868jSd9+y3awsF0htZis25MhynrTrPmnn3VLLndKO2zL0yCMuq1SGa0uSrkDtkJGQI1GT54rXHydhlemsJi1BetpyysRknaHHZEEAAhAoNwJIswQzkrcwTV+srdgae2VpbcW69y2fjt+3bHVleU9cls03S003ZBiNR1xWqQzXBUkzUbZ2h/xtuStUz2o2Q8/JggAEIFAuBJBmkWei0Kdnra1YI8voQsmsLt2tWOu+5UNS6wP2VmzLXKnldqn5FqnpRmn79dK2azOMxi+uTNcmzyO0BIkm5iVvz/rujVo98rdld9PUZcWZYcrIggAEyo4A0izylJi/02xtbc076ljHYo8s50t7/Pct75Ja7pCab5WabnJkeZ209Rp71Zm2Zb+4slwnbLV67lOa+M79UPPlyfwgUMC5f+lpy1M3/qBQ2k6TAQEIQKCsCCDNspoOabRnnQ5uulqDtRdq8IuLNFh7sQ6svUQDay9V/5pZ6l97mfavuVx9q2erb/UV6l19pfatmqP964I63tVQZqOhOxCAAAQqiwDSrKz5ZDQQgAAEIFBCAkizhHAJDQEIQAAClUUAaVbWfDIaCEAAAhAoIQGkWUK4hIYABCAAgcoigDQraz4ZDQQgAAEIlJAA0iwhXEJDAAIQgEBlEUCalTWfjAYCEIAABEpIAGmWEC6hIQABCECgsgggzcqaT0YDAQhAAAIlJIA0Swg3n9DvLX9XLy3+X2kPkz8wMJBPaOpAAAIQgECBBJBmgQCLXd0I88SJE2kPk//e8qWIs9jgiQcBCEAgBwJIMwdIE1kkF2n29e5DnBM5KbQFAQhAwCGANMvsq5BNmv+x7J3Y1u2bb7yaY+/NW0acl0Jbn763luQYJbmY5+0lyZnjTjEvujZfSP/B68PGjZIKEIBAiQggzRKBzTdsNml6t25N2fQ/EU9Wotysd2AGw4p6SuR3mhh3/DHS1U+Xnq2FfOtli0s+BCAAAZsA0iyzb8JESFMqllwKjZOufrr0bJOVb71sccmHAAQgYBNAmmX2TZh4adqiCYWCir0UOuEF1AGFvItWT17iC6j9wvJfRxUOxrdeQxGTH78OJDTiq+tpM9ZHjSdemU0y3YEABCYtAaRZZlM3EdJM3J615RW/b2hfxxxmCcu9B5qYZ8UJePPccwPVKz5bcPE2XOjeMm6av66vTCQkK04kpETR+ut543EOAQhAoDgEkGZxOBYtSumk6VnVBUKKLx59UrIk6c2XzAM6lkRNXsK9UG9d77nB4blOEdMG5imTQNCTbtX19j1gy9JJTxSxp15CPC4gAAEIFIcA0iwOx6JFKZ00vatAb3d9okkhuFMvzUSJe3tvr3bdLWTfWLwFOYcABCBQBAJIswgQixnilEvTWiG6EpKUIFEjpXhe4vasvQUb29Y126exrdtCt2cD9pZsGtCmH/aKE2mmQUQyBCBQJAJIs0ggixXm1EvTFaW7JepboVoytPMSHwQyO7JGlE69UEihmDQNHVu4br4r19jfZroJFkif/PxbtKasty3PdnPqeMWaHeJAAALVTgBpltk3oDTSLLNB0h0IQAACk5QA0iyziSueNMtsYHQHAhCAQAUQQJplNolIs8wmhO5AAAIQ8BBAmh4Y5XBq3mBixJnLYcryAwEIQAACE0cAaU4ca1qCAAQgAIFJTgBpTvIJpPsQgAAEIDBxBJDmxLGmJQhAAAIQmOQEkOYkn0C6DwEIQAACE0cAaU4ca1qCAAQgAIFJTgBpTvIJpPsQgAAEIDBxBJDmxLHOqaX3lr+b8c9NTP7AwEBOsSgEAQhAAALFJYA0i8uz4GjZ/nEDk2/+PhNxFoyaABCAAATGTQBpjhtZaSvkIs2+3n2IM49pMF92/5H4Ps48glIFAhCoKgJIs8ymO5s0/2PZO7Ht2zffeDVL7xPfLBJ/VVeWalmzfW8hyVo+WwF/P9O/Csx6i0nCG1E8sRPefJIuRr59z7eep3+cQgACk54A0iyzKcwmzRMnTsg9TNm0P9Gw8zqu+Ku9rPdfBsOKpq2Ua0ahAvHXT3UdUMAvR/OKsGBIoWB8TLEeW8L0po/3HZ6xSGlO/H1MU4xkCECgogkgzTKb3qJJ0xqX/xe9/zrfwRcax1/ff+2+0zOkiKeL7sum3c94lu8F2G5Gwgu03URfWwnv6nTbs+O5W7mhiKnj2dr1y9wNzScEIFDxBJBmmU3xxEnTlkcoFFTAfYlzgkACSnCDJy/x5dM+CVkvm05e8WUWkD+GmRS/CM21E9f0xbtitvrmCs87oZ46sWRvW95z+yXa1j1Os2pNGLyp7Csbi8cJBCBQTQSQZpnNdvGkadZoib/oE7dnTZ73vp99HXOFJSJXfol5VpyAN889NzC9bdriS37YxlvGX8edEJ80E0Tpk2FCnlvffPpiWFmetq0xelaQZjVpADjpif321PM2wTkEIFBVBJBmmU138aXplYJ3NeaTgCUKb75kHrqxJJokJW9d77mB6blOEdPG7SljJfivTWKiGP1bspa4XcOnbScxRlLbaevZJe3/c+CuuFP10S7HfyEAgeohgDTLbK6LL03vKtA7WJ8EUgjklEozoT+mr175u+eu5FOtKFPfF02QuiV472rby8c+j8vaxyu5KCkQgEAVEECaZTbJp0yajkDcxZu9RelKyZaWm2evwFwZ+4SV8BSrnZe4zWmA+wWU6tpd4ZniIQW89zCtOUvVrttft41UQvS1ZcnZlbCzPWuNwU2Lx7T+3MXdwi2z7w3dgQAEJoYA0pwYzjm3cuqk6a7MXFm4UnS67hFJ4oNAjtTclWAopFDsfqepawvXfNHM4Yo3UUCJZfx/T2rKJovX3HoMJj6w4+mjt62c4VMQAhCAQBYCSDMLoInOLq40J7r3tAcBCECgsgkgzTKb3+JJs8wGRncgAAEIVAABpFlmk4g0y2xC6A4EIAABDwGk6YFRDqfmDSZGnLkcpiw/EIAABCAwcQSQ5sSxpiUIQAACEJjkBJDmJJ9Aug8BCEAAAhNHAGlOHGtaggAEIACBSU4AaU7yCaT7EIAABCAwcQSQ5sSxpiUIQAACEJjkBJDmJJ9Aug8BCEAAAhNHAGlOHGtaggAEIACBSU4AaU7yCaT7EIAABCAwcQSQ5sSxpiUIQAACEJjkBJDmBE/gyf7PNLr5fP2y8TSNNJrjdB1vPEMjX83WyZF9E9wbmoMABCAAgfEQQJrjoVWEsqNfz0qQ5fHGKTrWMFXDG6ZrePMcjZ0YKkIrhIAABCAAgVIQQJqloJoh5shGs7I0xxQNN07VsYZpOtowXUcbZmio/iwdWX+2jqw/R4frztWhuvN0qG6mDn45U4ciV2m0tzZDZPOu5vj7Ku2Cvhcum0Tzzkn3pZYpo6Wok1TOfgG0+fJYR9ILopMqkAABCECgIgggzQmeRrMVO7zBrCyn6ZiRZf2ZGqqfoaHGC/Tr9nlS/8dS34dS3wdSzzKp+02ps0aKLtZY+6LMvfULMRpWMJD4Amfz4uZUL3SOB84iTSdmgnejYYUj8QjjP8vSZk4BixEjp4YoBAEIVDEBpJnj5G/atElffvmlxsbGEmqYa5Nu8nP5GRtYKf28QfqpTvqxVhpcJR1YKQ18IvWtkHrelrpfl7pekaJLpOgiqeN5qf1ZqW1+5iaM0DyrPiPIUDisYMxwZoUYVDiaKUwm+dgrzFi4TGHGlZepzVwDFSNGrm1RDgIQqFYCSDPHmTdifPTRR/X555/HxGmEaa5NusnP6WfgU6n/I2m/WU2ukHrfk/Ytc2T5htRVI3W95MjyBal9gbT3KantCWnPo1ma8ErRPTcyCcleCHrPJTmrRmuLNaFMUOGIvUo1ebGVqVXejZWmKwkxvdvFjtTCIXtLNxbXpDvbvObTNXJCHLfNccZI00WSIQABCORLAGnmSM4rSFecrjDd65xCxWT5viPLd6RuI8tXpU4jyxelNRIw2AAAFIVJREFUjoVSx3NS+zNS25PSnsek3Q9LrfdnbSJ+XzOikLPqjISc1WXC9q0jIHfVGQk5cnQk5q5YLXk59c25m56yJ3Zd13u2lN2VrRPXzTR98Yva7Yuy9C2nGCk7SCIEIACBggggzXHg84qzpqYmaeWZU6heI8vlUs9Sqectqfs1qfNlqXNJXJZ7HVm2PS7tfkRqfVDada+0c272Jlwxup/WgtK+j5lwPzNhJees9CwZ+YRlPTvkrBitOu6qL0VXUuQnSDzgCtTU9bbjPfevgDP1zVvPe56ibyRBAAIQKAIBpDlOiF5xjmuF6bbT864jS999y3azslwgtZmt2JAjy3nSrvuknXdLLXdKO25zo6T/dFaDEXM/0304x6SFwon3M1MIzg7ql4/3Pqb3PEUXUsTMX5qp5Ozvm/fae56ibyRBAAIQKAIBpJkHRCPOrq6u2L3NcYWwtmJr7JWltRXr3rd8On7fstWV5T1xWTbfLDXdkENTttgCSas6s2LzishIxnO/MhbZl+4XobWt6r1Xaa8M7adn7boJso616Zea99p7bjpix4ndS03oW46r1VgdTiAAAQgUjwDSLB7L3CKZrVgjy+hCyawu3a1Y677lQ1LrA/ZWbMtcqeV2qfkWqelGafv10rZrc2rDbMMGfPcezYov9pCNG8USov8hHFtgoVAw9sBOTILp6nnbSoiZTnAmUKIorf6lfRDI7Xtinawx3P7yCQEIQKBIBJBmkUDmGmasY7FHlvOlPf77lndJLXdIzbdKTTc5srxO2nqNverMtSHKQQACEIBA0QkgzaIjzRxwtGedDm66WoO1F2rwi4s0WHuxDqy9RANrL1X/mlnqX3uZ9q+5XH2rZ6tv9RXqXX2l9q2ao/3rgjre1ZA5OLkQgAAEIFBSAkizpHgJDgEIQAAClUQAaVbSbDIWCEAAAhAoKQGkWVK8BIcABCAAgUoigDQraTYZCwQgAAEIlJQA0iwpXoJDAAIQgEAlEUCalTSbjAUCEIAABEpKAGmWFC/BIQABCECgkgggzUqaTcYCAQhAAAIlJYA0S4qX4BCAAAQgUEkEkGYlzSZjgQAEIACBkhJAmiXFS3AIQAACEKgkAkizzGbzZP9nGt18vn7ZeJpGGs1xuo43nqGRr2br5Mi+Must3YEABCBQXQSQZpnN9+jXsxJkebxxio41TNXwhuka3jxHYyeGyqzHdAcCEIBA9RBAmmU21yMbzcrSHFM03DhVxxqm6WjDdB1tmKGh+rN0ZP3ZOrL+HB2uO1eH6s7TobqZOvjlzPhn5CqN9taW2ajoDgQgAIHKIIA0izyP7e3t2r17d95RzVbs8AazspymY0aW9WdqqH6Ghhov0K/b50n9H0t9H0p9H0g9y6TuN6XOmvhndLHG2hfl3X5+Ff0vh84vCrUgAAEIlDsBpFnkGTLCrK+vV3Nzc16RxwZWSj9vkH6qk36slQZXSQdWSgOfSH0rpJ63pe7Xpa5XpOgSKbpI6ng+/tn+rNQ2P6+286+ENPNnR00IQGAyEUCaJZgtI8y8xTnwqdT/kbTfrCZXSL3vSfuWObJ8Q+qqkbpeciT5gtS+QNr7VPyz7Qlpz6NpRxUJBWQm3TpCEadcVOFgPN1OTpUmKRpW0K0fCCkiI8x43YBVOU3dtL0iAwIQgMDkIIA0SzRPeYszJsv3HVm+I3UbWb4qdRpZvih1LJQ6npPan5HanpT2PBb/3P2w1Hp/DqPyrA4jIdmy81RLlWYJMqhw1CkXCSloXXhimayUdT2xOYUABCAwSQkgzRJO3JYtW6wV5+HDh3NvpdfIcrnUs1TqeUvqfk3qfFnqXBKX5V5Hlm2PS7sfkVofjH/uulfaOTd9e0ZosZWhI0Bn9WgL0KmaIS1eP+DI1ifNVHXT94gcCEAAApOGANIs0VTlvdLsedeRpe++ZbtZWS6Q2p6S2kKOJOdJu+6Tdt4d/2y5U9pxW+pRWTIzW6rmx2yhelaN1s5r0BJqbNfWn5ZQ39uET5pOVjScHM9bi3MIQAACk40A0izBjOUtTNMXayu2xl5ZWlux7n3LpyX3fmWrK8t7JFeS7mfzzVLTDalHZVaZwbCs3VVLgInSNJWM6BJWnAlpRo6BpHz5t209raeK58nmFAIQgMCkIoA0izxdhT49a23FGllGF0pmdeluxZr7lrsfklofkMwWbMtcqeV2qfkWqenG+Of266Vt16YZlecBnWBIIXelmbBl66xEU6WZqM7Wa2yL1lmWxh4wMtfp6qbpFckQgAAEJgsBpFnkmTJ/p9na2pp31LGOxR5Zzpf2eO5bWvcr75Ja7pCab5WabpIsSV4X/9x6jb36zLsHVIQABCAAgXQEkGY6MqcofbRnnQ5uulqDtRdq8IuLNFh7sQ6svUQDay9V/5pZ6l97mfavuVx9q2erb/UV6l19pfatmhP73L8uqONdDaeo9zQLAQhAoLIJIM3Knl9GBwEIQAACRSSANIsIk1AQgAAEIFDZBJBmZc8vo4MABCAAgSISQJpFhEkoCEAAAhCobAJIs7Lnl9FBAAIQgEARCSDNIsIkFAQgAAEIVDYBpFnZ88voIAABCECgiASQZhFhEgoCEIAABCqbANKs7PlldBCAAAQgUEQCSLOIMAkFAQhAAAKVTQBpVvb8MjoIQAACECgiAaRZRJjFCHWy/zONbj5fv2w8TSON5jhdxxvP0MhXs3VyZF8xmiAGBCAAAQjkSQBp5gmuVNVGv56VIMvjjVN0rGGqhjdM1/DmORo7MVSqpokLAQhAAAJZCCDNLIAmOntko1lZmmOKhhun6ljDNB1tmK6jDTM0VH+Wjqw/W0fWn6PDdefqUN15OlQ3Uwe/nBn/jFyl0d7a8XU7zQupxxeE0hCAAAQqnwDSLPIcm/dpmhdR5/tjtmKHN5iV5TQdM7KsP1ND9TM01HiBft0+T+r/WOr7UOr7QOpZJnW/KXXWxD+jizXWvijf5qkHAQhAAAIZCCDNDHDyyTLCrK+vV3Nzcz7VNTawUvp5g/RTnfRjrTS4SjqwUhr4ROpbIfW8LXW/LnW9IkWXSNFFUsfz8c/2Z6W2+Xm1TSUIQAACEMhMAGlm5pNXrhFm3uIc+FTq/0jab1aTK6Te96R9yxxZviF11UhdLzmSfEFqXyDtfSr+2faEtOfRlP0OBwMKRTxZkZACwbCiiigUCCocdfKs7dqAzJcjEAjJVImEvHVTlLcCR2XasOt5y3va5BQCEIDAJCaANEs0eXmLMybL9x1ZviN1G1m+KnUaWb4odSyUOp6T2p+R2p6U9jwW/9z9sNR6f+pRGUl6rBkXoVeC3nPLlgoam3rrRkIKBoN2uqRo2Dn3lkndA1IhAAEITGoCSLOE07dlyxZrxXn48OHcW+k1slwu9SyVet6Sul+TOl+WOpfEZbnXkWXb49LuR6TWB+Ofu+6Vds5N054Ror1ylFldWqtMU9QjyoRVprNqNKI16U75SCiocMS9NqtLZ5Xq1LUkm6YHJEMAAhCYzASQZolmL++VZs+7jix99y3bzcpygdT2lNQWciQ5T9p1n7Tz7vhny53SjtvSjspdFbqfdkG/NF2xesO4cnRla65Dinhk6pY2sc0Xy7OodbP4hAAEIDCpCSDNEkxf3sI0fbG2YmvslaW1Fevet3xacu9XtrqyvEdyJel+Nt8sNd2QflSW5EIKGeHFSnmkaa06A7Gt11gRdxvWty0bCoXSl43dJPVG4RwCEIDA5CWANIs8d4U+PWttxRpZRhdKZnXpbsWa+5a7H5JaH5DMFmzLXKnldqn5Fqnpxvjn9uulbddmGJXzsE7CMtArTcuOCloPAXm2Z01Ea/vV/8CQ59rc04zV80o5Q3fIggAEIDCJCCDNIk+W+TvN1tbWvKOOdSz2yHK+tMdz39K6X3mX1HKH1Hyr1HSTZEnyuvjn1mvs1WfePaAiBCAAAQikI4A005E5RemjPet0cNPVGqy9UINfXKTB2ot1YO0lGlh7qfrXzFL/2su0f83l6ls9W32rr1Dv6iu1b9Wc2Of+dUEd72o4Rb2nWQhAAAKVTQBpVvb8MjoIQAACECgiAaRZRJiEggAEIACByiaANCt7fhkdBCAAAQgUkQDSLCJMQkEAAhCAQGUTQJqVPb+MDgIQgAAEikgAaRYRJqEgAAEIQKCyCSDNyp5fRgcBCEAAAkUkgDSLCJNQEIAABCBQ2QSQZmXPL6ODAAQgAIEiEkCaRYRJKAhAAAIQqGwCSLOy55fRQQACEIBAEQkgzSLCLDRUS0uLduxokXm1WFNTs7Zvb9L27du1bds2bd26VZs2RfTTTz8V2gz1IQABCEAgTwJIM09wpai2Y8cO/f3vf9eJE/+jv8WOE/rb305Y10acbW1t+vHHH0vRPDEhAAEIQCALAaSZBdBEZhtp/k8GaTY0NOi3v/2t1n6xbiK7RVsQgAAEIOAQQJpl9FUw27LxFaZ3tZl4/sc//b9x9tr3kulx1qY4BCAAAQjYBJBmGX0TmpqaLGkO/u9a9T6yXF23LIkdfc98qJ//83dW/vd//NM4e400xwmM4hCAAARSEkCaKbGcmkTz0I9ZaXpl6T3vX/wbK/8P3/9xnB1EmuMERnEIQAACKQkgzZRYTk3itm22NA/Wfacff7NBA2+uVP+Lv5FZeZrroe935i7NaFjBQEBmgoPhsEKBoMJRZ1yevEAgpIiV7Ig1Eq8XikjRcNCKYcdxA8hkxOKbPFOWHwhAAAKVTgBpltEMb922LbbSNNuz/Ys/sQ6zNWtf2yvNb//wfZZeGwHGRWaLz5Wmb9UZCSlo2dSuEwiGZakxEnKE64jSuvYKNh7fFqgbP0vXyIYABCAwiQkgzTKaPPMnJWZ71qw0zQrTHJYsndXm4d/+1cr/9rs/ZO61WQW68rNKekTpWyGaL0DAWiZ6yvjr+K+tGK5A7a5EQh6J2kn8FwIQgEDFEUCaZTSlf/2rLc19jyzXgbc+s7ZlzdasOcz1gTc/s6T5zbffZe51VmkmCs8OhjQzQyUXAhCAgKwduFw5BHItmK1cJlMPDQ3JHEuXLrUO9zrVp9vO6OioezqpP//yF3slae5lep+e7b77Dev6UN13ljR//+23WcZpb7W69xmTt2fNfU7P/Ukr2jikqcT49vZsKhFn6SbZEIAABCYZgUz+8g8FafqJFPn6h7/8xZJitr/V/Pqbb7K37NyTNBOc+UGgPLZnTesJ27zcz8w+IZSAAAQqgQDSLKNZ/PMPP+QkzS2/z0GaZTQuugIBCECgUgggzTKayT//+c8y/3CB+TvM777/Xt/94XuZh37MPczff/Otvv7mWxlh/p//u7KMek1XIAABCFQPAaRZPXPNSCEAAQhAoEACSLNAgFSHAAQgAIHqIYA0q2euGSkEIAABCBRIAGkWCJDqEIAABCBQPQSQZvXMNSOFAAQgAIECCSDNAgFSHQIQgAAEqocA0qyeuWakEIAABCBQIAGkWSBAqkMAAhCAQPUQQJrVM9eMFAIQgAAECiSANAsESHUIQAACEKgeAkizeuaakUIAAhCAQIEEkGaBAKkOAQhAAALVQwBpVs9cM1IIQAACECiQANIsECDVIQABCECgegggzeqZa0YKAQhAAAIFEkCaBQKkOgQgAAEIVA8BpFk9c81IIQABCECgQAJIs0CAxaze0tKiHTta1NzcrKamZm3f3qTt27dr27Zt2rp1qzZtiuinn34qZpPEggAEIACBcRBAmuOAVeqiO3bs0N///nedOPE/+lvsOKG//e2EdW3E2dbWph9//LHUXSE+BCAAAQikIIA0U0A5VUlGmv+TQZoNDQ367W9/q7VfrDtVXaRdCEAAAlVNAGmW0fSbbdn4CtO72kw8/+Of/l/pex0NKxgIKhwtfVO0AAEIQGCyEECaZTRTTU1NljQH/3eteh9Zrq5blsSOvmc+1M//+Tsr//s//qmMek1XIAABCFQPAaRZRnNtHvoxK02vLL3n/Yt/Y+X/4fs/llGv6QoEIACB6iGANMtorrdts6V5sO47/fibDRp4c6X6X/yNzMrTXA99vzNHaUYUMlurEbPFGpCZ5FBEioaD1rm5Dnr2XSMhu4xJD5iC1o8Tw9qedc7DoZT1ywghXYEABCBQUgJIs6R4xxd867ZtsZWm2Z7tX/yJdZitWfvaXml++4fvswQ2kgsoEAzLdp4tu5goI+Y6JFeP8WApRBmTpkeoaevHI3EGAQhAoBIJIM0ymlXzJyVme9asNM0K0xyWLJ3V5uHf/tXK//a7P2TptVd+pmiWa0uC7mrTffjHW8d7nipelu6QDQEIQKBCCCDNMprIv/7Vlua+R5brwFufWduyZmvWHOb6wJufWdL85tvvsvQ6m+Q8+dZTsu6qM6pwEGlmgUs2BCBQxQSQZhlN/l/+Yq8kzb1M79Oz3Xe/YV0fqvvOkubvv/02S689UrRKZrg2q0x3Gzfhz0y8dbznJqD/Okt3yIYABCBQIQSQZhlN5A9/+YslxWx/q/n1N99k6bVfapmuzerS2ZoNhhRipZmFLdkQgEA1E0CaZTT7f/7hh5ykueX32aRZRoOiKxCAAAQqiADSLKPJ/POf/yzzDxeYv8P87vvv9d0fvpd56Mfcw/z9N9/q62++lRHm//m/K8uo13QFAhCAQPUQQJrVM9eMFAIQgAAECiSANAsESHUIQAACEKgeAkizeuaakUIAAhCAQIEEkGaBAKkOAQhAAALVQwBpVs9cM1IIQAACECiQANIsECDVIQABCECgegggzeqZa0YKAQhAAAIFEkCaBQKkOgQgAAEIVA8BpFk9c81IIQABCECgQAJlJ80Cx0N1CEAAAhCAQMkIIM2SoSUwBCAAAQhUGgGkWWkzynggAAEIQKBkBE6ZNE3DHDDgO8B3gO8A34HJ9h3I1ciBXAtSDgIQgAAEIFDtBJBmtX8DGD8EIAABCORMAGnmjIqCEIAABCBQ7QSQZrV/Axg/BCAAAQjkTABp5oyKghCAAAQgUO0EkGa1fwMYPwQgAAEI5Ezg/wNpL8Ee5DhrsQAAAABJRU5ErkJggg==;" vertex="1" parent="6wW6lBvhg6wL6kc6Jvn_-17">
          <mxGeometry x="40" y="50" width="377.1" height="400" as="geometry" />
        </mxCell>
        <mxCell id="qvFa3PDqAJ5_tdk628x6-30" value="" style="endArrow=none;dashed=1;html=1;rounded=0;strokeColor=#FF3333;" edge="1" parent="6wW6lBvhg6wL6kc6Jvn_-17">
          <mxGeometry width="50" height="50" relative="1" as="geometry">
            <mxPoint x="190" y="300" as="sourcePoint" />
            <mxPoint x="480" y="40" as="targetPoint" />
          </mxGeometry>
        </mxCell>
      </root>
    </mxGraphModel>
  </diagram>
</mxfile>
